<svg width="720" height="125" viewBox="0 0 720 125" fill="none" xmlns="http://www.w3.org/2000/svg">
<path fill-rule="evenodd" clip-rule="evenodd" d="M77.0278 28.6166L80.9548 42.681C64.2002 43.6376 51.1897 47.2703 36.363 55.1318L32.436 41.0674C47.2525 33.1696 60.2812 29.5317 77.0278 28.6166Z" fill="#07162D"/>
<path d="M16.5517 53.6255V38.9951L18.5468 39.6601V53.6255H16.5517Z" fill="#DE8B21"/>
<path d="M12.8941 65.2633L16.5517 53.6255H18.5468V68.2559C18.1034 68.3667 18.5468 69.2534 14.5566 68.9209C12.4359 68.7442 12.5616 66.4825 12.8941 65.2633Z" fill="#07162D"/>
<path fill-rule="evenodd" clip-rule="evenodd" d="M13.072 39.6212L48.6219 11.2795L93.7955 17.1073L81.9048 26.5896C61.6343 27.6392 45.9879 32.008 28.1058 41.6112L18.0737 40.3131L18.0766 40.2909L13.072 39.6212Z" fill="#07162D"/>
<path d="M46.3527 70.6163C46.3527 76.803 48.2204 81.764 51.9557 85.4993C55.691 89.2346 60.6812 91.1023 66.9262 91.1023C69.7277 91.1023 72.4417 90.7813 75.0681 90.1393C77.7528 89.4973 79.9415 88.7969 81.6341 88.0382L82.422 99.5944C80.1458 100.236 77.5778 100.791 74.7179 101.258C71.858 101.783 68.8231 102.046 65.613 102.046C55.049 102.046 46.7321 99.3025 40.6621 93.8163C34.5922 88.2716 31.5573 80.6259 31.5573 70.879C31.5573 61.0737 34.6214 53.3112 40.7497 47.5915C46.878 41.8134 55.1074 38.9244 65.4379 38.9244C69.0565 38.9244 72.3249 39.2745 75.2432 39.9749C78.1614 40.6169 80.496 41.2589 82.2469 41.901L81.1088 53.8073C79.0661 52.5233 76.7607 51.5603 74.1926 50.9183C71.6246 50.2179 68.9982 49.8677 66.3134 49.8677C60.3602 49.8677 55.5451 51.7938 51.8681 55.6458C48.1912 59.4979 46.3527 64.4881 46.3527 70.6163ZM117.131 82.1725V81.122C116.722 81.2971 115.993 81.3846 114.942 81.3846C113.892 81.3846 112.608 81.4138 111.09 81.4722C107.413 81.5305 104.67 82.085 102.861 83.1355C101.11 84.1277 100.234 85.616 100.234 87.6004C100.234 89.1179 100.818 90.3436 101.985 91.2774C103.153 92.1529 104.845 92.5906 107.063 92.5906C110.098 92.5906 112.52 91.4817 114.329 89.2638C116.197 87.046 117.131 84.6822 117.131 82.1725ZM117.744 93.7287C116.051 96.5886 113.95 98.6897 111.44 100.032C108.989 101.374 106.304 102.046 103.386 102.046C98.3667 102.046 94.4271 100.82 91.5672 98.3687C88.7074 95.859 87.2774 92.649 87.2774 88.7386C87.2774 83.9527 89.1451 80.3049 92.8805 77.7952C96.6742 75.2271 102.16 73.9139 109.339 73.8556L117.131 73.9431C117.131 71.0249 116.197 68.9821 114.329 67.8148C112.52 66.6475 110.01 66.0639 106.8 66.0639C104.291 66.0639 101.752 66.4725 99.1838 67.2896C96.6742 68.1067 94.5147 69.1864 92.7054 70.5288L92.4427 60.0232C94.1937 59.0893 96.645 58.3014 99.7967 57.6594C103.007 56.959 106.158 56.6088 109.252 56.6088C116.314 56.6088 121.508 58.1263 124.835 61.1613C128.22 64.1379 129.913 68.8946 129.913 75.4314V88.0382C129.913 91.5401 130 94.5166 130.175 96.968C130.409 99.4193 130.613 100.645 130.788 100.645L130.963 100.82L118.532 100.995C118.298 100.995 118.123 100.295 118.006 98.894C117.89 97.4932 117.802 95.7715 117.744 93.7287ZM212.912 100.995H199.255V76.8322C199.255 73.7972 198.671 71.521 197.504 70.0035C196.395 68.4277 194.615 67.6397 192.163 67.6397C189.304 67.6397 187.202 68.7779 185.86 71.0541C184.518 73.3303 183.817 76.6863 183.759 81.122V100.995H169.927V76.8322C169.927 73.7972 169.43 71.521 168.438 70.0035C167.446 68.4277 165.812 67.6397 163.536 67.6397C160.501 67.6397 158.224 68.807 156.707 71.1416C155.248 73.4178 154.46 76.7154 154.343 81.0344V100.995H140.686V57.6594H153.468V65.1009C155.102 62.3577 157.145 60.2566 159.596 58.7975C162.047 57.3384 165.082 56.6088 168.701 56.6088C172.086 56.6088 174.975 57.4259 177.368 59.0601C179.819 60.636 181.483 62.7079 182.358 65.276C183.642 62.8247 185.539 60.7819 188.049 59.1477C190.558 57.4551 193.798 56.6088 197.766 56.6088C203.019 56.6088 206.842 58.0679 209.235 60.9862C211.686 63.9044 212.912 68.3109 212.912 74.2058V100.995ZM237.011 95.0419V119.468H223.353V57.6594H236.223V65.1009C238.207 61.8325 240.483 59.6146 243.051 58.4473C245.678 57.2217 248.509 56.6088 251.543 56.6088C257.555 56.6088 262.312 58.6808 265.814 62.8247C269.316 66.9686 271.066 72.484 271.066 79.371C271.066 86.1997 269.199 91.686 265.463 95.8298C261.786 99.9737 256.913 102.046 250.843 102.046C248.275 102.046 245.707 101.52 243.139 100.47C240.629 99.4193 238.587 97.61 237.011 95.0419ZM237.011 79.5461C237.069 82.8729 238.003 85.7036 239.812 88.0382C241.68 90.3728 244.102 91.5401 247.079 91.5401C249.997 91.5401 252.361 90.4019 254.17 88.1257C255.979 85.7911 256.884 82.8145 256.884 79.1959C256.884 75.519 256.008 72.6007 254.257 70.4412C252.506 68.2818 250.114 67.202 247.079 67.202C244.219 67.202 241.855 68.2818 239.987 70.4412C238.12 72.6007 237.127 75.3147 237.011 78.5831V79.5461ZM324.183 57.6594V100.995H311.576V93.291C310.292 95.6839 308.278 97.7559 305.535 99.5068C302.851 101.199 299.699 102.046 296.08 102.046C290.652 102.046 286.479 100.528 283.561 97.4932C280.701 94.3999 279.271 89.9934 279.271 84.2737V57.6594H292.929V80.159C292.929 83.8359 293.541 86.5791 294.767 88.3884C295.993 90.1393 298.006 91.0148 300.808 91.0148C303.784 91.0148 306.119 89.8767 307.812 87.6004C309.562 85.2659 310.496 81.9099 310.613 77.5325V57.6594H324.183ZM367.844 87.7755C367.844 92.328 366.064 95.859 362.504 98.3687C358.943 100.82 354.041 102.046 347.796 102.046C344.936 102.046 342.164 101.841 339.479 101.433C336.794 101.024 334.605 100.499 332.913 99.857L333.788 89.4389C334.489 89.7307 336.123 90.3144 338.691 91.1899C341.317 92.0653 344.09 92.5031 347.008 92.5031C349.167 92.5031 350.86 92.2112 352.086 91.6276C353.37 90.9856 354.012 89.9058 354.012 88.3884C354.012 87.1043 353.34 86.083 351.998 85.3242C350.714 84.5655 348.409 83.7776 345.082 82.9605C341.58 82.2601 338.603 80.9761 336.152 79.1084C333.759 77.1824 332.563 74.2641 332.563 70.3537C332.563 65.9764 334.372 62.5912 337.991 60.1983C341.609 57.8053 346.162 56.6088 351.648 56.6088C354.099 56.6088 356.58 56.8423 359.089 57.3092C361.599 57.7178 363.7 58.1847 365.393 58.71L364.517 68.6028C363.175 67.844 361.424 67.2312 359.265 66.7643C357.163 66.2974 355.091 66.0639 353.049 66.0639C350.656 66.0639 348.876 66.3849 347.708 67.0269C346.541 67.6106 345.957 68.5152 345.957 69.7409C345.957 70.7331 346.599 71.5502 347.883 72.1922C349.167 72.8342 351.794 73.6513 355.763 74.6435C359.965 75.6941 363.029 77.2991 364.955 79.4586C366.881 81.5597 367.844 84.332 367.844 87.7755ZM389.53 70.6163C389.53 76.803 391.397 81.764 395.133 85.4993C398.868 89.2346 403.858 91.1023 410.103 91.1023C412.905 91.1023 415.619 90.7813 418.245 90.1393C420.93 89.4973 423.119 88.7969 424.811 88.0382L425.599 99.5944C423.323 100.236 420.755 100.791 417.895 101.258C415.035 101.783 412 102.046 408.79 102.046C398.226 102.046 389.909 99.3025 383.839 93.8163C377.769 88.2716 374.734 80.6259 374.734 70.879C374.734 61.0737 377.798 53.3112 383.927 47.5915C390.055 41.8134 398.284 38.9244 408.615 38.9244C412.234 38.9244 415.502 39.2745 418.42 39.9749C421.338 40.6169 423.673 41.2589 425.424 41.901L424.286 53.8073C422.243 52.5233 419.938 51.5603 417.37 50.9183C414.802 50.2179 412.175 49.8677 409.49 49.8677C403.537 49.8677 398.722 51.7938 395.045 55.6458C391.368 59.4979 389.53 64.4881 389.53 70.6163ZM528.86 100.995H515.203V76.9197C515.203 74.0599 514.561 71.8128 513.277 70.1786C511.993 68.486 510.125 67.6397 507.674 67.6397C504.464 67.6397 501.983 68.807 500.232 71.1416C498.54 73.4178 497.664 76.7446 497.606 81.122V100.995H483.948V57.6594H496.73V65.1009C498.423 62.3577 500.553 60.2566 503.121 58.7975C505.748 57.3384 508.928 56.6088 512.664 56.6088C517.917 56.6088 521.915 58.1555 524.658 61.2488C527.459 64.2838 528.86 68.6028 528.86 74.2058V100.995ZM584.603 100.995H570.945V76.9197C570.945 74.0599 570.303 71.8128 569.019 70.1786C567.735 68.486 565.868 67.6397 563.416 67.6397C560.206 67.6397 557.726 68.807 555.975 71.1416C554.282 73.4178 553.407 76.7446 553.348 81.122V100.995H539.691V57.6594H552.473V65.1009C554.166 62.3577 556.296 60.2566 558.864 58.7975C561.49 57.3384 564.671 56.6088 568.407 56.6088C573.659 56.6088 577.657 58.1555 580.4 61.2488C583.202 64.2838 584.603 68.6028 584.603 74.2058V100.995ZM633.955 99.5944C631.795 100.353 629.431 100.937 626.863 101.345C624.295 101.812 621.406 102.046 618.196 102.046C610.317 102.046 604.101 100.032 599.549 96.0049C595.055 91.9778 592.807 86.404 592.807 79.2835C592.807 72.3965 594.85 66.9102 598.936 62.8247C603.08 58.6808 608.566 56.6088 615.395 56.6088C622.982 56.6088 628.556 58.8851 632.116 63.4375C635.676 67.9899 637.456 74.2641 637.456 82.2601L637.544 83.3106H606.202C606.903 85.9954 607.895 87.9798 609.179 89.2638C611.455 91.4817 614.928 92.5906 619.597 92.5906C622.573 92.5906 625.433 92.2112 628.176 91.4525C630.978 90.6354 632.904 89.935 633.955 89.3514V99.5944ZM606.115 74.9937H623.974L624.937 75.0812C624.879 71.9879 624.062 69.6825 622.486 68.165C620.91 66.5892 618.663 65.8013 615.745 65.8013C612.593 65.8013 610.142 66.9977 608.391 69.3907C607.34 70.7331 606.582 72.6007 606.115 74.9937ZM680.182 90.2268L680.62 100.645C679.803 100.82 678.344 101.083 676.242 101.433C674.141 101.841 671.719 102.046 668.976 102.046C661.272 102.046 655.144 100.003 650.591 95.9174C646.097 91.7735 643.85 86.1413 643.85 79.0208C643.85 72.3673 646.097 66.9686 650.591 62.8247C655.144 58.6808 661.068 56.6088 668.363 56.6088C670.698 56.6088 672.886 56.8131 674.929 57.2217C677.03 57.5719 678.781 58.0679 680.182 58.71L679.131 69.0405C678.489 68.5736 677.351 68.1067 675.717 67.6397C674.083 67.1728 672.332 66.9394 670.464 66.9394C666.729 66.9394 663.723 68.0483 661.447 70.2662C659.229 72.484 658.12 75.4314 658.12 79.1084C658.12 82.9605 659.258 86.0246 661.535 88.3008C663.869 90.577 666.992 91.7151 670.902 91.7151C673.12 91.7151 675.075 91.5109 676.768 91.1023C678.519 90.6354 679.657 90.3436 680.182 90.2268ZM705.801 85.0616C705.801 87.4545 706.297 89.2638 707.289 90.4895C708.34 91.6568 709.857 92.2404 711.842 92.2404C713.068 92.2404 714.118 92.1237 714.994 91.8902C715.927 91.6568 716.628 91.4233 717.095 91.1899L717.445 100.995C716.744 101.229 715.49 101.462 713.68 101.695C711.929 101.929 710.062 102.046 708.077 102.046C702.825 102.046 698.856 100.762 696.171 98.1936C693.545 95.6256 692.231 91.8027 692.231 86.725V67.3771H683.477V58.0096L692.406 57.6594L692.932 47.9417L705.714 43.827L705.801 57.6594H716.832V67.3771H705.801V85.0616Z" fill="#07162D"/>
<mask id="path-6-inside-1_286_344" fill="white">
<path fill-rule="evenodd" clip-rule="evenodd" d="M455.705 101.995C468.96 101.995 479.705 91.25 479.705 77.9951C479.705 64.7403 468.96 53.9951 455.705 53.9951C455.032 53.9951 454.365 54.0229 453.705 54.0773L453.705 101.913C454.365 101.967 455.032 101.995 455.705 101.995Z"/>
</mask>
<path d="M453.705 54.0773L453.376 50.0908L449.705 50.3937V54.0773L453.705 54.0773ZM453.705 101.913H449.705V105.597L453.376 105.899L453.705 101.913ZM475.705 77.9951C475.705 89.0408 466.751 97.9951 455.705 97.9951V105.995C471.169 105.995 483.705 93.4591 483.705 77.9951H475.705ZM455.705 57.9951C466.751 57.9951 475.705 66.9494 475.705 77.9951H483.705C483.705 62.5311 471.169 49.9951 455.705 49.9951V57.9951ZM454.034 58.0637C454.584 58.0183 455.142 57.9951 455.705 57.9951V49.9951C454.922 49.9951 454.145 50.0274 453.376 50.0908L454.034 58.0637ZM449.705 54.0773L449.705 101.913H457.705L457.705 54.0773L449.705 54.0773ZM455.705 97.9951C455.142 97.9951 454.584 97.9719 454.034 97.9265L453.376 105.899C454.145 105.963 454.922 105.995 455.705 105.995V97.9951Z" fill="#07162D" mask="url(#path-6-inside-1_286_344)"/>
<mask id="path-8-inside-2_286_344" fill="white">
<path fill-rule="evenodd" clip-rule="evenodd" d="M455.705 101.995C442.45 101.995 431.705 91.25 431.705 77.9951C431.705 64.7403 442.45 53.9951 455.705 53.9951C456.379 53.9951 457.046 54.0229 457.705 54.0773L457.705 101.913C457.046 101.967 456.379 101.995 455.705 101.995Z"/>
</mask>
<path fill-rule="evenodd" clip-rule="evenodd" d="M455.705 101.995C442.45 101.995 431.705 91.25 431.705 77.9951C431.705 64.7403 442.45 53.9951 455.705 53.9951C456.379 53.9951 457.046 54.0229 457.705 54.0773L457.705 101.913C457.046 101.967 456.379 101.995 455.705 101.995Z" fill="#07162D"/>
<path d="M457.705 54.0773L458.034 50.0908L461.705 50.3937V54.0773L457.705 54.0773ZM457.705 101.913H461.705V105.597L458.034 105.899L457.705 101.913ZM435.705 77.9951C435.705 89.0408 444.659 97.9951 455.705 97.9951V105.995C440.241 105.995 427.705 93.4591 427.705 77.9951H435.705ZM455.705 57.9951C444.659 57.9951 435.705 66.9494 435.705 77.9951H427.705C427.705 62.5311 440.241 49.9951 455.705 49.9951V57.9951ZM457.376 58.0637C456.826 58.0183 456.269 57.9951 455.705 57.9951V49.9951C456.489 49.9951 457.265 50.0274 458.034 50.0908L457.376 58.0637ZM461.705 54.0773L461.705 101.913H453.705L453.705 54.0773L461.705 54.0773ZM455.705 97.9951C456.269 97.9951 456.826 97.9719 457.376 97.9265L458.034 105.899C457.265 105.963 456.489 105.995 455.705 105.995V97.9951Z" fill="#07162D" mask="url(#path-8-inside-2_286_344)"/>
<mask id="mask0_286_344" style="mask-type:alpha" maskUnits="userSpaceOnUse" x="416" y="57" width="41" height="41">
<g clip-path="url(#clip0_286_344)">
<path d="M416.082 96.3174V96.4814H422.955V96.3174H416.082Z" fill="#0071BC"/>
<path d="M423.362 95.9517C423.61 95.9517 423.81 96.1534 423.81 96.3994C423.81 96.6471 423.608 96.8472 423.362 96.8472C423.116 96.8472 422.914 96.6454 422.914 96.3994C422.914 96.1534 423.114 95.9517 423.362 95.9517ZM423.362 96.6864C423.521 96.6864 423.647 96.5585 423.647 96.4011C423.647 96.2453 423.519 96.1157 423.362 96.1157C423.205 96.1157 423.077 96.2453 423.077 96.4011C423.077 96.5585 423.205 96.6864 423.362 96.6864Z" fill="#0071BC"/>
<path d="M434.111 96.3193C434.358 96.3193 434.558 96.521 434.558 96.767C434.558 97.013 434.357 97.2114 434.111 97.2114C433.863 97.2114 433.661 97.0113 433.661 96.767C433.661 96.5193 433.863 96.3193 434.111 96.3193ZM434.111 97.0507C434.268 97.0507 434.396 96.9244 434.396 96.7686C434.396 96.6128 434.268 96.4833 434.111 96.4833C433.953 96.4833 433.825 96.6128 433.825 96.7686C433.825 96.9244 433.953 97.0507 434.111 97.0507Z" fill="#0071BC"/>
<path d="M426.903 94.494C427.15 94.494 427.35 94.6958 427.35 94.9418C427.35 95.1878 427.15 95.3911 426.903 95.3911C426.655 95.3911 426.457 95.1894 426.457 94.9434C426.457 94.6974 426.657 94.494 426.903 94.494ZM426.903 95.2288C427.06 95.2288 427.188 95.1008 427.188 94.9434C427.188 94.7843 427.062 94.658 426.903 94.658C426.747 94.658 426.619 94.7876 426.619 94.9434C426.619 95.1008 426.747 95.2288 426.903 95.2288Z" fill="#0071BC"/>
<path d="M430.375 96.3193C430.622 96.3193 430.822 96.521 430.822 96.767C430.822 97.013 430.621 97.2114 430.375 97.2114C430.129 97.2114 429.927 97.0113 429.927 96.767C429.927 96.5193 430.127 96.3193 430.375 96.3193ZM430.375 97.0507C430.534 97.0507 430.66 96.9244 430.66 96.7686C430.66 96.6128 430.532 96.4833 430.375 96.4833C430.217 96.4833 430.089 96.6128 430.089 96.7686C430.089 96.9244 430.216 97.0507 430.375 97.0507Z" fill="#0071BC"/>
<path d="M431.829 96.3193C432.077 96.3193 432.277 96.521 432.277 96.767C432.277 97.013 432.075 97.2114 431.829 97.2114C431.582 97.2114 431.382 97.0113 431.382 96.767C431.38 96.5193 431.582 96.3193 431.829 96.3193ZM431.829 97.0507C431.987 97.0507 432.115 96.9244 432.115 96.7686C432.115 96.6128 431.987 96.4833 431.829 96.4833C431.672 96.4833 431.544 96.6128 431.544 96.7686C431.544 96.9244 431.672 97.0507 431.829 97.0507Z" fill="#0071BC"/>
<path d="M431.829 92.6705C432.077 92.6705 432.277 92.8722 432.277 93.1182C432.277 93.3658 432.075 93.5659 431.829 93.5659C431.582 93.5659 431.382 93.3642 431.382 93.1182C431.38 92.8706 431.582 92.6705 431.829 92.6705ZM431.829 93.4036C431.987 93.4036 432.115 93.2756 432.115 93.1182C432.115 92.9624 431.987 92.8328 431.829 92.8328C431.672 92.8328 431.544 92.9624 431.544 93.1182C431.544 93.2756 431.672 93.4036 431.829 93.4036Z" fill="#0071BC"/>
<path d="M422.165 86.8383C422.412 86.8383 422.611 87.0384 422.611 87.2827C422.611 87.5304 422.411 87.7305 422.165 87.7305C421.919 87.7305 421.717 87.5287 421.717 87.2827C421.717 87.0367 421.919 86.8383 422.165 86.8383ZM422.165 87.5681C422.325 87.5681 422.448 87.4435 422.448 87.2827C422.448 87.1286 422.321 87.0007 422.165 87.0007C422.007 87.0007 421.879 87.1286 421.879 87.2827C421.879 87.4402 422.007 87.5681 422.165 87.5681Z" fill="#0071BC"/>
<path d="M419.846 87.2008C420.093 87.2008 420.294 87.4025 420.294 87.6485C420.294 87.8945 420.092 88.0962 419.846 88.0962C419.598 88.0962 419.4 87.8945 419.4 87.6485C419.4 87.4025 419.598 87.2008 419.846 87.2008ZM419.846 87.9355C420.005 87.9355 420.131 87.8108 420.131 87.6501C420.131 87.4927 420.003 87.3648 419.846 87.3648C419.69 87.3648 419.562 87.4943 419.562 87.6501C419.562 87.8076 419.69 87.9355 419.846 87.9355Z" fill="#0071BC"/>
<path d="M424.095 87.2008C424.341 87.2008 424.541 87.4025 424.541 87.6485C424.541 87.8945 424.341 88.0962 424.095 88.0962C423.847 88.0962 423.649 87.8945 423.649 87.6485C423.647 87.4025 423.847 87.2008 424.095 87.2008ZM424.095 87.9355C424.254 87.9355 424.379 87.8108 424.379 87.6501C424.379 87.4927 424.251 87.3648 424.095 87.3648C423.939 87.3648 423.811 87.4943 423.811 87.6501C423.81 87.8108 423.934 87.9355 424.095 87.9355Z" fill="#0071BC"/>
<path d="M424.033 88.662C424.28 88.662 424.479 88.8621 424.479 89.1065C424.479 89.3541 424.279 89.5542 424.033 89.5542C423.785 89.5542 423.587 89.3525 423.587 89.1065C423.587 88.8621 423.787 88.662 424.033 88.662ZM424.033 89.3935C424.192 89.3935 424.316 89.2688 424.316 89.1081C424.316 88.954 424.189 88.826 424.033 88.826C423.877 88.826 423.749 88.954 423.749 89.1081C423.749 89.2688 423.874 89.3935 424.033 89.3935Z" fill="#0071BC"/>
<path d="M430.742 88.662C430.988 88.662 431.188 88.8621 431.188 89.1065C431.188 89.3541 430.988 89.5542 430.742 89.5542C430.494 89.5542 430.294 89.3525 430.294 89.1065C430.293 88.8621 430.494 88.662 430.742 88.662ZM430.742 89.3935C430.898 89.3935 431.026 89.2656 431.026 89.1081C431.026 88.954 430.898 88.826 430.742 88.826C430.583 88.826 430.457 88.954 430.457 89.1081C430.455 89.2688 430.581 89.3935 430.742 89.3935Z" fill="#0071BC"/>
<path d="M428.946 86.8383C429.192 86.8383 429.394 87.0384 429.394 87.2827C429.394 87.5304 429.192 87.7305 428.946 87.7305C428.699 87.7305 428.498 87.5287 428.498 87.2827C428.497 87.0367 428.699 86.8383 428.946 86.8383ZM428.946 87.5681C429.104 87.5681 429.232 87.4402 429.232 87.2827C429.232 87.1286 429.104 87.0007 428.946 87.0007C428.787 87.0007 428.661 87.1286 428.661 87.2827C428.659 87.4402 428.787 87.5681 428.946 87.5681Z" fill="#0071BC"/>
<path d="M428.946 90.484C429.192 90.484 429.394 90.6857 429.394 90.9317C429.394 91.1793 429.192 91.3794 428.946 91.3794C428.699 91.3794 428.498 91.1777 428.498 90.9317C428.497 90.684 428.699 90.484 428.946 90.484ZM428.946 91.217C429.104 91.217 429.232 91.0891 429.232 90.9317C429.232 90.7759 429.104 90.6463 428.946 90.6463C428.787 90.6463 428.661 90.7759 428.661 90.9317C428.659 91.0891 428.787 91.217 428.946 91.217Z" fill="#0071BC"/>
<path d="M440.839 90.12C441.087 90.12 441.287 90.3218 441.287 90.5678C441.287 90.8138 441.087 91.0122 440.839 91.0122C440.593 91.0122 440.392 90.8121 440.392 90.5678C440.39 90.3218 440.592 90.12 440.839 90.12ZM440.839 90.8515C440.999 90.8515 441.125 90.7252 441.125 90.5694C441.125 90.4136 440.999 90.284 440.839 90.284C440.682 90.284 440.554 90.4136 440.554 90.5694C440.554 90.7252 440.682 90.8515 440.839 90.8515Z" fill="#0071BC"/>
<path d="M427.729 90.12C427.975 90.12 428.175 90.3201 428.175 90.5645C428.175 90.8121 427.975 91.0122 427.729 91.0122C427.482 91.0122 427.282 90.8105 427.282 90.5645C427.282 90.3201 427.482 90.12 427.729 90.12ZM427.729 90.8515C427.885 90.8515 428.013 90.7236 428.013 90.5661C428.013 90.412 427.885 90.284 427.729 90.284C427.57 90.284 427.444 90.412 427.444 90.5661C427.444 90.7268 427.57 90.8515 427.729 90.8515Z" fill="#0071BC"/>
<path d="M437.684 91.5781C437.93 91.5781 438.132 91.7798 438.132 92.0258C438.132 92.2718 437.93 92.4702 437.684 92.4702C437.438 92.4702 437.236 92.2701 437.236 92.0258C437.235 91.7798 437.436 91.5781 437.684 91.5781ZM437.684 92.3095C437.843 92.3095 437.969 92.1832 437.969 92.0274C437.969 91.8716 437.843 91.7421 437.684 91.7421C437.525 91.7421 437.399 91.8716 437.399 92.0274C437.399 92.1832 437.525 92.3095 437.684 92.3095Z" fill="#0071BC"/>
<path d="M440.098 91.5781C440.344 91.5781 440.548 91.7798 440.548 92.0258C440.548 92.2718 440.346 92.4702 440.098 92.4702C439.851 92.4702 439.65 92.2701 439.65 92.0258C439.65 91.7798 439.852 91.5781 440.098 91.5781ZM440.098 92.3095C440.257 92.3095 440.384 92.1832 440.384 92.0274C440.384 91.8716 440.257 91.7421 440.098 91.7421C439.939 91.7421 439.813 91.8716 439.813 92.0274C439.814 92.1832 439.941 92.3095 440.098 92.3095Z" fill="#0071BC"/>
<path d="M450.191 88.662C450.437 88.662 450.638 88.8621 450.638 89.1065C450.638 89.3541 450.437 89.5542 450.191 89.5542C449.945 89.5542 449.741 89.3525 449.741 89.1065C449.741 88.8621 449.943 88.662 450.191 88.662ZM450.191 89.3935C450.35 89.3935 450.476 89.2639 450.476 89.1081C450.476 88.9523 450.35 88.826 450.191 88.826C450.032 88.826 449.905 88.9523 449.905 89.1081C449.905 89.2639 450.032 89.3935 450.191 89.3935Z" fill="#0071BC"/>
<path d="M438.05 87.2008C438.297 87.2008 438.498 87.4025 438.498 87.6485C438.498 87.8945 438.297 88.0962 438.05 88.0962C437.804 88.0962 437.602 87.8945 437.602 87.6485C437.602 87.4025 437.804 87.2008 438.05 87.2008ZM438.05 87.9355C438.209 87.9355 438.335 87.8076 438.335 87.6501C438.335 87.4927 438.209 87.3648 438.05 87.3648C437.892 87.3648 437.764 87.4943 437.764 87.6501C437.764 87.8076 437.894 87.9355 438.05 87.9355Z" fill="#0071BC"/>
<path d="M447.158 90.12C447.406 90.12 447.606 90.3201 447.606 90.5645C447.606 90.8121 447.406 91.0122 447.158 91.0122C446.912 91.0122 446.712 90.8105 446.712 90.5645C446.712 90.3201 446.912 90.12 447.158 90.12ZM447.158 90.8515C447.317 90.8515 447.445 90.7219 447.445 90.5661C447.445 90.4103 447.317 90.284 447.158 90.284C447.001 90.284 446.873 90.4103 446.873 90.5661C446.873 90.7219 447.001 90.8515 447.158 90.8515Z" fill="#0071BC"/>
<path d="M452.828 90.12C453.075 90.12 453.276 90.3201 453.276 90.5645C453.276 90.8121 453.075 91.0122 452.828 91.0122C452.582 91.0122 452.378 90.8105 452.378 90.5645C452.38 90.3201 452.582 90.12 452.828 90.12ZM452.828 90.8515C452.987 90.8515 453.115 90.7219 453.115 90.5661C453.115 90.4103 452.987 90.284 452.828 90.284C452.67 90.284 452.542 90.4103 452.542 90.5661C452.542 90.7219 452.67 90.8515 452.828 90.8515Z" fill="#0071BC"/>
<path d="M436.5 94.494C436.748 94.494 436.948 94.6958 436.948 94.9418C436.948 95.1878 436.748 95.3911 436.5 95.3911C436.252 95.3911 436.052 95.1894 436.052 94.9434C436.052 94.6974 436.252 94.494 436.5 94.494ZM436.5 95.2288C436.657 95.2288 436.785 95.1008 436.785 94.9434C436.785 94.7876 436.657 94.658 436.5 94.658C436.343 94.658 436.215 94.7876 436.215 94.9434C436.215 95.1008 436.343 95.2288 436.5 95.2288Z" fill="#0071BC"/>
<path d="M442.115 92.6705C442.361 92.6705 442.563 92.8722 442.563 93.1182C442.563 93.3658 442.361 93.5659 442.115 93.5659C441.869 93.5659 441.668 93.3642 441.668 93.1182C441.666 92.8706 441.868 92.6705 442.115 92.6705ZM442.115 93.4036C442.274 93.4036 442.401 93.2756 442.401 93.1182C442.401 92.9624 442.274 92.8328 442.115 92.8328C441.956 92.8328 441.83 92.9624 441.83 93.1182C441.83 93.2756 441.956 93.4036 442.115 93.4036Z" fill="#0071BC"/>
<path d="M443.381 94.4941C443.627 94.4941 443.829 94.6958 443.829 94.9418C443.829 95.1878 443.627 95.3862 443.381 95.3862C443.134 95.3862 442.934 95.1862 442.934 94.9418C442.934 94.6958 443.134 94.4941 443.381 94.4941ZM443.381 95.2255C443.539 95.2255 443.667 95.0992 443.667 94.9434C443.667 94.7876 443.539 94.6581 443.381 94.6581C443.222 94.6581 443.096 94.7876 443.096 94.9434C443.096 95.0992 443.224 95.2255 443.381 95.2255Z" fill="#0071BC"/>
<path d="M449.023 93.0361C449.269 93.0361 449.472 93.2378 449.472 93.4838C449.472 93.7281 449.271 93.9282 449.023 93.9282C448.775 93.9282 448.575 93.7281 448.575 93.4838C448.574 93.2378 448.774 93.0361 449.023 93.0361ZM449.023 93.7675C449.18 93.7675 449.308 93.6412 449.308 93.4854C449.308 93.328 449.18 93.2001 449.023 93.2001C448.864 93.2001 448.738 93.3296 448.738 93.4854C448.738 93.6412 448.864 93.7675 449.023 93.7675Z" fill="#0071BC"/>
<path d="M451.345 94.4941C451.591 94.4941 451.793 94.6958 451.793 94.9418C451.793 95.1878 451.591 95.3862 451.345 95.3862C451.099 95.3862 450.896 95.1862 450.896 94.9418C450.896 94.6958 451.098 94.4941 451.345 94.4941ZM451.345 95.2255C451.504 95.2255 451.631 95.0992 451.631 94.9434C451.631 94.7876 451.504 94.6581 451.345 94.6581C451.186 94.6581 451.06 94.7876 451.06 94.9434C451.06 95.0992 451.186 95.2255 451.345 95.2255Z" fill="#0071BC"/>
<path d="M456.552 91.5781C456.798 91.5781 457 91.7798 457 92.0258C457 92.2718 456.798 92.4702 456.552 92.4702C456.306 92.4702 456.103 92.2701 456.103 92.0258C456.103 91.7798 456.305 91.5781 456.552 91.5781ZM456.552 92.3095C456.711 92.3095 456.838 92.1832 456.838 92.0274C456.838 91.8683 456.713 91.7421 456.552 91.7421C456.395 91.7421 456.267 91.8716 456.267 92.0274C456.267 92.1832 456.395 92.3095 456.552 92.3095Z" fill="#0071BC"/>
<path d="M442.847 95.9517C443.094 95.9517 443.296 96.1534 443.296 96.3994C443.296 96.6471 443.096 96.8472 442.847 96.8472C442.601 96.8472 442.399 96.6454 442.399 96.3994C442.399 96.1534 442.601 95.9517 442.847 95.9517ZM442.847 96.6864C443.006 96.6864 443.132 96.5585 443.132 96.4011C443.132 96.2453 443.006 96.1157 442.847 96.1157C442.689 96.1157 442.561 96.2453 442.561 96.4011C442.561 96.5585 442.689 96.6864 442.847 96.6864Z" fill="#0071BC"/>
<path d="M454.937 95.9517C455.185 95.9517 455.385 96.1534 455.385 96.3994C455.385 96.6471 455.185 96.8472 454.937 96.8472C454.691 96.8472 454.489 96.6454 454.489 96.3994C454.489 96.1534 454.691 95.9517 454.937 95.9517ZM454.937 96.6864C455.096 96.6864 455.222 96.5569 455.222 96.4011C455.222 96.2453 455.096 96.1157 454.937 96.1157C454.779 96.1157 454.652 96.2453 454.652 96.4011C454.652 96.5569 454.779 96.6864 454.937 96.6864Z" fill="#0071BC"/>
<path d="M441.325 94.4941C441.571 94.4941 441.773 94.6958 441.773 94.9418C441.773 95.1878 441.571 95.3862 441.325 95.3862C441.079 95.3862 440.876 95.1862 440.876 94.9418C440.877 94.6958 441.079 94.4941 441.325 94.4941ZM441.325 95.2255C441.484 95.2255 441.61 95.0992 441.61 94.9434C441.61 94.7876 441.484 94.6581 441.325 94.6581C441.166 94.6581 441.04 94.7876 441.04 94.9434C441.041 95.0992 441.167 95.2255 441.325 95.2255Z" fill="#0071BC"/>
<path d="M436.338 93.0361C436.585 93.0361 436.785 93.2378 436.785 93.4838C436.785 93.7281 436.584 93.9282 436.338 93.9282C436.092 93.9282 435.89 93.7281 435.89 93.4838C435.888 93.2378 436.09 93.0361 436.338 93.0361ZM436.338 93.7675C436.495 93.7675 436.623 93.6412 436.623 93.4854C436.623 93.328 436.495 93.2001 436.338 93.2001C436.18 93.2001 436.052 93.3296 436.052 93.4854C436.052 93.6412 436.18 93.7675 436.338 93.7675Z" fill="#0071BC"/>
<path d="M421.502 93.0361C421.748 93.0361 421.948 93.2378 421.948 93.4838C421.948 93.7281 421.748 93.9282 421.502 93.9282C421.255 93.9282 421.054 93.7281 421.054 93.4838C421.054 93.2378 421.255 93.0361 421.502 93.0361ZM421.502 93.7675C421.658 93.7675 421.786 93.6412 421.786 93.4854C421.786 93.328 421.658 93.2001 421.502 93.2001C421.341 93.2001 421.217 93.3263 421.217 93.4854C421.217 93.6412 421.343 93.7675 421.502 93.7675Z" fill="#0071BC"/>
<path d="M416.082 94.8611V95.0234H426.598V94.8611H416.082Z" fill="#0071BC"/>
<path d="M416.082 93.4036V93.5659H421.135V93.4036H416.082Z" fill="#0071BC"/>
<path d="M416.082 91.9455H424.6V93.4034H430.455V96.4014H430.293V93.5658H424.438V92.1078H416.082V91.9455Z" fill="#0071BC"/>
<path d="M416.082 90.4842H427.036V91.9455H433.008V93.4034H435.662V95.0238H434.191V96.4014H434.029V94.8614H435.5V93.5658H432.844V92.1078H426.873V90.6466H416.082V90.4842Z" fill="#0071BC"/>
<path d="M422.084 87.6502H422.247V89.1885H416.082V89.0261H422.084V87.6502Z" fill="#0071BC"/>
<path d="M424.351 89.0261V89.1885H430.375V89.0261H424.351Z" fill="#0071BC"/>
<path d="M428.061 90.4843H434.558V91.9456H437.317V92.1079H434.396V90.6467H428.061V90.4843Z" fill="#0071BC"/>
<path d="M442.033 93.4852H442.197V96.4814H439.431V95.0235H436.858V94.8611H439.593V96.3191H442.033V93.4852Z" fill="#0071BC"/>
<path d="M436.705 93.4031H440.293V94.8611H440.959V95.0234H440.129V93.5655H436.705V93.4031Z" fill="#0071BC"/>
<path d="M443.242 89.0264H449.823V89.1887H443.406V90.4843H445.259V92.1079H440.466V91.9456H445.097V90.6467H443.242V89.0264Z" fill="#0071BC"/>
<path d="M447.527 90.4843H449.412V91.9456H450.679V90.4876H452.46V90.6499H450.84V92.1079H449.248V90.6467H447.527V90.4843Z" fill="#0071BC"/>
<path d="M447.078 94.8611H450.271V96.3191H454.571V96.4814H450.109V95.0235H447.24V96.4814H443.237V96.3191H447.078V94.8611Z" fill="#0071BC"/>
<path d="M446.151 93.4031H448.684V93.5655H446.314V95.0234H443.749V94.8611H446.151V93.4031Z" fill="#0071BC"/>
<path d="M452.803 91.9452H456.088V92.1075H452.967V93.4031H454.141V95.0234H451.711V94.8611H453.979V93.5655H452.803V91.9452Z" fill="#0071BC"/>
<path d="M416.082 87.5681V87.7305H419.482V87.5681H416.082Z" fill="#0071BC"/>
<path d="M427.946 86.1104H431.137V87.5683H434.132V89.0263H437.5V90.4875H440.466V90.6499H437.338V89.1887H433.969V87.7307H430.973V86.2727H428.108V87.7307H424.453V87.5683H427.946V86.1104Z" fill="#0071BC"/>
<path d="M431.749 93.4854V96.4014H431.911V93.4854H431.749Z" fill="#0071BC"/>
<path d="M428.864 87.6487V90.5679H429.027V87.6487H428.864Z" fill="#0071BC"/>
<path d="M442.012 86.1102H446.724V87.5682H451.28V89.0261H456.982V89.1885H451.117V87.7305H446.56V86.2726H442.176V87.7305H438.43V87.5682H442.012V86.1102Z" fill="#0071BC"/>
<path d="M443.153 87.5681V87.7305H445.453V87.5681H443.153Z" fill="#0071BC"/>
<path d="M450.834 61.7413C451.081 61.7413 451.283 61.943 451.283 62.189C451.283 62.435 451.083 62.6367 450.834 62.6367C450.588 62.6367 450.388 62.435 450.388 62.189C450.388 61.943 450.588 61.7413 450.834 61.7413ZM450.834 62.4744C450.993 62.4744 451.121 62.3481 451.121 62.189C451.121 62.0299 450.994 61.9036 450.834 61.9036C450.678 61.9036 450.55 62.0316 450.55 62.189C450.55 62.3481 450.679 62.4744 450.834 62.4744Z" fill="#0071BC"/>
<path d="M453.154 61.3739C453.4 61.3739 453.599 61.5756 453.599 61.8233C453.599 62.0709 453.4 62.271 453.154 62.271C452.907 62.271 452.705 62.0693 452.705 61.8233C452.705 61.5773 452.907 61.3739 453.154 61.3739ZM453.154 62.107C453.31 62.107 453.438 61.9807 453.438 61.8216C453.438 61.6626 453.31 61.5363 453.154 61.5363C452.995 61.5363 452.867 61.6626 452.867 61.8216C452.867 61.9824 452.995 62.107 453.154 62.107Z" fill="#0071BC"/>
<path d="M448.907 61.3739C449.154 61.3739 449.353 61.5756 449.353 61.8233C449.353 62.0709 449.154 62.271 448.907 62.271C448.661 62.271 448.459 62.0693 448.459 61.8233C448.459 61.5773 448.659 61.3739 448.907 61.3739ZM448.907 62.107C449.067 62.107 449.19 61.9824 449.19 61.8216C449.19 61.6626 449.064 61.5363 448.907 61.5363C448.751 61.5363 448.623 61.6626 448.623 61.8216C448.623 61.9824 448.748 62.107 448.907 62.107Z" fill="#0071BC"/>
<path d="M448.967 59.918C449.213 59.918 449.413 60.1181 449.413 60.3658C449.413 60.6118 449.213 60.8135 448.967 60.8135C448.721 60.8135 448.52 60.6118 448.52 60.3658C448.52 60.1181 448.72 59.918 448.967 59.918ZM448.967 60.6511C449.125 60.6511 449.251 60.5232 449.251 60.3658C449.251 60.205 449.128 60.0788 448.967 60.0788C448.807 60.0788 448.684 60.205 448.684 60.3658C448.684 60.5232 448.81 60.6511 448.967 60.6511Z" fill="#0071BC"/>
<path d="M442.26 59.918C442.506 59.918 442.709 60.1181 442.709 60.3658C442.709 60.6118 442.507 60.8135 442.26 60.8135C442.012 60.8135 441.814 60.6118 441.814 60.3658C441.812 60.1181 442.01 59.918 442.26 59.918ZM442.26 60.6511C442.417 60.6511 442.545 60.5232 442.545 60.3658C442.545 60.205 442.419 60.0788 442.26 60.0788C442.102 60.0788 441.974 60.2067 441.974 60.3658C441.974 60.5232 442.102 60.6511 442.26 60.6511Z" fill="#0071BC"/>
<path d="M444.054 61.7413C444.302 61.7413 444.503 61.943 444.503 62.189C444.503 62.435 444.303 62.6367 444.054 62.6367C443.808 62.6367 443.606 62.435 443.606 62.189C443.606 61.943 443.808 61.7413 444.054 61.7413ZM444.054 62.4744C444.213 62.4744 444.339 62.3481 444.339 62.189C444.339 62.0316 444.213 61.9036 444.054 61.9036C443.896 61.9036 443.768 62.0316 443.768 62.189C443.77 62.3481 443.898 62.4744 444.054 62.4744Z" fill="#0071BC"/>
<path d="M444.054 58.0909C444.302 58.0909 444.503 58.2926 444.503 58.5386C444.503 58.7862 444.303 58.9863 444.054 58.9863C443.808 58.9863 443.606 58.7862 443.606 58.5386C443.606 58.2926 443.808 58.0909 444.054 58.0909ZM444.054 58.8256C444.213 58.8256 444.339 58.6993 444.339 58.5402C444.339 58.3828 444.213 58.2549 444.054 58.2549C443.896 58.2549 443.768 58.3828 443.768 58.5402C443.77 58.6977 443.898 58.8256 444.054 58.8256Z" fill="#0071BC"/>
<path d="M432.161 58.4584C432.407 58.4584 432.608 58.6601 432.608 58.9061C432.608 59.1521 432.407 59.3506 432.161 59.3506C431.913 59.3506 431.713 59.1521 431.713 58.9061C431.713 58.6601 431.915 58.4584 432.161 58.4584ZM432.161 59.1899C432.318 59.1899 432.446 59.0619 432.446 58.9061C432.446 58.7487 432.318 58.6208 432.161 58.6208C432.001 58.6208 431.875 58.7487 431.875 58.9061C431.875 59.0619 432.003 59.1899 432.161 59.1899Z" fill="#0071BC"/>
<path d="M445.271 58.4584C445.518 58.4584 445.718 58.6601 445.718 58.9061C445.718 59.1537 445.518 59.3555 445.271 59.3555C445.025 59.3555 444.823 59.1554 444.823 58.9061C444.823 58.6601 445.023 58.4584 445.271 58.4584ZM445.271 59.1931C445.43 59.1931 445.556 59.0652 445.556 58.9061C445.556 58.747 445.431 58.6207 445.271 58.6207C445.115 58.6207 444.987 58.7487 444.987 58.9061C444.987 59.0652 445.115 59.1931 445.271 59.1931Z" fill="#0071BC"/>
<path d="M435.316 57.0002C435.564 57.0002 435.764 57.202 435.764 57.4496C435.764 57.694 435.562 57.894 435.316 57.894C435.07 57.894 434.868 57.694 434.868 57.4496C434.868 57.202 435.068 57.0002 435.316 57.0002ZM435.316 57.73C435.473 57.73 435.601 57.6038 435.601 57.448C435.601 57.2889 435.473 57.1626 435.316 57.1626C435.158 57.1626 435.031 57.2889 435.031 57.448C435.031 57.6038 435.158 57.73 435.316 57.73Z" fill="#0071BC"/>
<path d="M432.902 57.0002C433.149 57.0002 433.35 57.202 433.35 57.4496C433.35 57.694 433.148 57.894 432.902 57.894C432.654 57.894 432.452 57.694 432.452 57.4496C432.452 57.202 432.654 57.0002 432.902 57.0002ZM432.902 57.73C433.059 57.73 433.187 57.6038 433.187 57.448C433.187 57.2889 433.059 57.1626 432.902 57.1626C432.744 57.1626 432.616 57.2889 432.616 57.448C432.615 57.6038 432.744 57.73 432.902 57.73Z" fill="#0071BC"/>
<path d="M422.809 59.918C423.057 59.918 423.257 60.1181 423.257 60.3658C423.257 60.6118 423.055 60.8135 422.809 60.8135C422.563 60.8135 422.362 60.6118 422.362 60.3658C422.362 60.1181 422.562 59.918 422.809 59.918ZM422.809 60.6511C422.967 60.6511 423.095 60.5232 423.095 60.3658C423.095 60.2067 422.967 60.0788 422.809 60.0788C422.652 60.0788 422.524 60.2067 422.524 60.3658C422.526 60.5232 422.652 60.6511 422.809 60.6511Z" fill="#0071BC"/>
<path d="M434.95 61.3739C435.196 61.3739 435.398 61.5756 435.398 61.8233C435.398 62.0709 435.198 62.271 434.95 62.271C434.703 62.271 434.502 62.0693 434.502 61.8233C434.502 61.5773 434.703 61.3739 434.95 61.3739ZM434.95 62.107C435.108 62.107 435.236 61.9807 435.236 61.8216C435.236 61.6626 435.108 61.5363 434.95 61.5363C434.791 61.5363 434.665 61.6626 434.665 61.8216C434.663 61.9807 434.791 62.107 434.95 62.107Z" fill="#0071BC"/>
<path d="M425.84 58.4584C426.088 58.4584 426.288 58.6601 426.288 58.9061C426.288 59.1537 426.086 59.3555 425.84 59.3555C425.592 59.3555 425.392 59.1554 425.392 58.9061C425.392 58.6601 425.594 58.4584 425.84 58.4584ZM425.84 59.1931C425.997 59.1931 426.125 59.0652 426.125 58.9061C426.125 58.7487 425.997 58.6207 425.84 58.6207C425.683 58.6207 425.555 58.7487 425.555 58.9061C425.555 59.0652 425.683 59.1931 425.84 59.1931Z" fill="#0071BC"/>
<path d="M420.171 58.4584C420.418 58.4584 420.618 58.6601 420.618 58.9061C420.618 59.1537 420.417 59.3555 420.171 59.3555C419.923 59.3555 419.723 59.1554 419.723 58.9061C419.723 58.6601 419.925 58.4584 420.171 58.4584ZM420.171 59.1931C420.328 59.1931 420.456 59.0652 420.456 58.9061C420.456 58.7487 420.328 58.6207 420.171 58.6207C420.013 58.6207 419.885 58.7487 419.885 58.9061C419.887 59.0652 420.013 59.1931 420.171 59.1931Z" fill="#0071BC"/>
<path d="M450.753 60.2838H456.918V60.4461H450.916V61.8237H450.753V60.2838Z" fill="#0071BC"/>
<path d="M442.625 60.2834V60.4458H448.649V60.2834H442.625Z" fill="#0071BC"/>
<path d="M435.683 57.3675H438.604V58.8254H444.939V58.9878H438.442V57.5298H435.683V57.3675Z" fill="#0071BC"/>
<path d="M427.741 57.3675H432.534V57.5299H427.903V58.8255H429.758V60.4458H423.177V60.2834H429.594V58.9878H427.741V57.3675Z" fill="#0071BC"/>
<path d="M422.158 57.3675H423.751V58.8254H425.474V58.9878H423.588V57.5298H422.322V58.9878H420.538V58.8254H422.158V57.3675Z" fill="#0071BC"/>
<path d="M453.52 61.7398V61.9038H456.918V61.7398H453.52Z" fill="#0071BC"/>
<path d="M432.534 58.8256H435.662V60.2835H439.032V61.7415H442.025V63.2011H444.892V61.7415H448.547V61.9039H445.056V63.3618H441.864V61.9039H438.868V60.4459H435.5V58.9879H432.534V58.8256Z" fill="#0071BC"/>
<path d="M443.973 58.9078V61.8237H444.137V58.9078H443.973Z" fill="#0071BC"/>
<path d="M416.082 60.2835H421.929V61.7415H426.468V63.2011H430.837V61.7415H434.57V61.9039H430.999V63.3618H426.306V61.9039H421.765V60.4459H416.082V60.2835Z" fill="#0071BC"/>
<path d="M427.549 61.7398V61.9038H429.847V61.7398H427.549Z" fill="#0071BC"/>
<path d="M450.045 64.4522V64.6162H456.918V64.4522H450.045Z" fill="#0071BC"/>
<path d="M449.638 64.0849C449.886 64.0849 450.087 64.2866 450.087 64.5342C450.087 64.7819 449.887 64.9819 449.638 64.9819C449.392 64.9819 449.19 64.7819 449.19 64.5342C449.189 64.2882 449.39 64.0849 449.638 64.0849ZM449.638 64.8212C449.797 64.8212 449.925 64.6933 449.925 64.5342C449.925 64.3768 449.797 64.2489 449.638 64.2489C449.481 64.2489 449.353 64.3768 449.353 64.5342C449.353 64.6933 449.481 64.8212 449.638 64.8212Z" fill="#0071BC"/>
<path d="M438.889 63.7226C439.135 63.7226 439.337 63.9227 439.337 64.167C439.337 64.4147 439.137 64.6147 438.889 64.6147C438.642 64.6147 438.442 64.4147 438.442 64.167C438.442 63.9227 438.643 63.7226 438.889 63.7226ZM438.889 64.4524C439.05 64.4524 439.173 64.3277 439.173 64.167C439.173 64.0129 439.047 63.8849 438.889 63.8849C438.73 63.8849 438.604 64.0129 438.604 64.167C438.604 64.3261 438.73 64.4524 438.889 64.4524Z" fill="#0071BC"/>
<path d="M446.097 65.5448C446.345 65.5448 446.543 65.7449 446.543 65.9925C446.543 66.2385 446.345 66.4419 446.097 66.4419C445.851 66.4419 445.648 66.2402 445.648 65.9925C445.648 65.7449 445.85 65.5448 446.097 65.5448ZM446.097 66.2779C446.255 66.2779 446.381 66.15 446.381 65.9925C446.381 65.8335 446.255 65.7055 446.097 65.7055C445.94 65.7055 445.812 65.8335 445.812 65.9925C445.812 66.1516 445.938 66.2779 446.097 66.2779Z" fill="#0071BC"/>
<path d="M442.625 63.7226C442.871 63.7226 443.073 63.9227 443.073 64.167C443.073 64.4147 442.871 64.6147 442.625 64.6147C442.378 64.6147 442.178 64.4147 442.178 64.167C442.178 63.9227 442.378 63.7226 442.625 63.7226ZM442.625 64.4524C442.783 64.4524 442.911 64.3261 442.911 64.167C442.911 64.0129 442.783 63.8849 442.625 63.8849C442.466 63.8849 442.338 64.0129 442.338 64.167C442.338 64.3261 442.468 64.4524 442.625 64.4524Z" fill="#0071BC"/>
<path d="M450.834 73.205C451.081 73.205 451.283 73.4051 451.283 73.6527C451.283 73.8971 451.083 74.0972 450.834 74.0972C450.588 74.0972 450.388 73.8987 450.388 73.6527C450.388 73.4051 450.588 73.205 450.834 73.205ZM450.834 73.9348C450.993 73.9348 451.121 73.8069 451.121 73.6527C451.121 73.4936 450.993 73.3657 450.834 73.3657C450.675 73.3657 450.55 73.492 450.55 73.6527C450.55 73.8069 450.679 73.9348 450.834 73.9348Z" fill="#0071BC"/>
<path d="M453.153 72.8394C453.399 72.8394 453.599 73.0395 453.599 73.2871C453.599 73.5331 453.399 73.7349 453.153 73.7349C452.905 73.7349 452.705 73.5348 452.705 73.2871C452.706 73.0379 452.905 72.8394 453.153 72.8394ZM453.153 73.5725C453.31 73.5725 453.438 73.4446 453.438 73.2871C453.438 73.1281 453.31 73.0001 453.153 73.0001C452.992 73.0001 452.867 73.1264 452.867 73.2871C452.867 73.4446 452.997 73.5725 453.153 73.5725Z" fill="#0071BC"/>
<path d="M448.907 72.8394C449.154 72.8394 449.353 73.0395 449.353 73.2871C449.353 73.5331 449.154 73.7349 448.907 73.7349C448.661 73.7349 448.457 73.5348 448.457 73.2871C448.457 73.0379 448.659 72.8394 448.907 72.8394ZM448.907 73.5725C449.064 73.5725 449.19 73.4446 449.19 73.2871C449.19 73.1264 449.067 73.0001 448.907 73.0001C448.749 73.0001 448.621 73.1281 448.621 73.2871C448.621 73.4446 448.749 73.5725 448.907 73.5725Z" fill="#0071BC"/>
<path d="M448.967 71.3798C449.213 71.3798 449.413 71.5815 449.413 71.8275C449.413 72.0735 449.213 72.272 448.967 72.272C448.721 72.272 448.518 72.0735 448.518 71.8275C448.518 71.5815 448.72 71.3798 448.967 71.3798ZM448.967 72.1096C449.125 72.1096 449.251 71.9833 449.251 71.8275C449.251 71.6685 449.128 71.5422 448.967 71.5422C448.808 71.5422 448.682 71.6701 448.682 71.8275C448.682 71.9833 448.808 72.1096 448.967 72.1096Z" fill="#0071BC"/>
<path d="M442.26 71.3798C442.506 71.3798 442.709 71.5815 442.709 71.8275C442.709 72.0735 442.507 72.272 442.26 72.272C442.012 72.272 441.814 72.0735 441.814 71.8275C441.812 71.5815 442.01 71.3798 442.26 71.3798ZM442.26 72.1096C442.417 72.1096 442.545 71.9833 442.545 71.8275C442.545 71.6685 442.419 71.5422 442.26 71.5422C442.099 71.5422 441.974 71.6685 441.974 71.8275C441.974 71.9833 442.102 72.1096 442.26 72.1096Z" fill="#0071BC"/>
<path d="M444.054 73.205C444.301 73.205 444.502 73.4051 444.502 73.6527C444.502 73.8971 444.303 74.0972 444.054 74.0972C443.808 74.0972 443.606 73.8987 443.606 73.6527C443.606 73.4051 443.808 73.205 444.054 73.205ZM444.054 73.9348C444.211 73.9348 444.338 73.8069 444.338 73.6527C444.338 73.492 444.215 73.3657 444.054 73.3657C443.896 73.3657 443.768 73.4936 443.768 73.6527C443.77 73.8069 443.898 73.9348 444.054 73.9348Z" fill="#0071BC"/>
<path d="M444.054 69.556C444.301 69.556 444.502 69.7561 444.502 70.0038C444.502 70.2498 444.303 70.4531 444.054 70.4531C443.808 70.4531 443.606 70.2514 443.606 70.0038C443.606 69.7561 443.808 69.556 444.054 69.556ZM444.054 70.2891C444.211 70.2891 444.338 70.1612 444.338 70.0038C444.338 69.843 444.215 69.7168 444.054 69.7168C443.896 69.7168 443.768 69.8447 443.768 70.0038C443.77 70.1612 443.898 70.2891 444.054 70.2891Z" fill="#0071BC"/>
<path d="M432.161 69.9216C432.407 69.9216 432.608 70.1201 432.608 70.3661C432.608 70.6121 432.407 70.8154 432.161 70.8154C431.913 70.8154 431.713 70.6137 431.713 70.3661C431.713 70.1184 431.915 69.9216 432.161 69.9216ZM432.161 70.6531C432.318 70.6531 432.446 70.5252 432.446 70.3677C432.446 70.2119 432.318 70.084 432.161 70.084C432.001 70.084 431.875 70.2119 431.875 70.3677C431.875 70.5235 432.003 70.6531 432.161 70.6531Z" fill="#0071BC"/>
<path d="M445.271 69.9216C445.518 69.9216 445.718 70.1217 445.718 70.3694C445.718 70.6137 445.518 70.8154 445.271 70.8154C445.025 70.8154 444.823 70.6154 444.823 70.3694C444.823 70.1217 445.023 69.9216 445.271 69.9216ZM445.271 70.6531C445.43 70.6531 445.556 70.5251 445.556 70.371C445.556 70.2119 445.43 70.084 445.271 70.084C445.112 70.084 444.987 70.2103 444.987 70.371C444.987 70.5235 445.115 70.6531 445.271 70.6531Z" fill="#0071BC"/>
<path d="M435.316 68.4638C435.564 68.4638 435.764 68.6622 435.764 68.9082C435.764 69.1559 435.562 69.356 435.316 69.356C435.07 69.356 434.868 69.1559 434.868 68.9082C434.868 68.6639 435.068 68.4638 435.316 68.4638ZM435.316 69.1952C435.473 69.1952 435.601 69.0673 435.601 68.9082C435.601 68.7541 435.473 68.6262 435.316 68.6262C435.158 68.6262 435.031 68.7541 435.031 68.9082C435.031 69.0673 435.158 69.1952 435.316 69.1952Z" fill="#0071BC"/>
<path d="M432.902 68.4638C433.149 68.4638 433.35 68.6622 433.35 68.9082C433.35 69.1559 433.148 69.356 432.902 69.356C432.654 69.356 432.452 69.1559 432.452 68.9082C432.452 68.6639 432.654 68.4638 432.902 68.4638ZM432.902 69.1952C433.059 69.1952 433.187 69.0673 433.187 68.9082C433.187 68.7541 433.059 68.6262 432.902 68.6262C432.744 68.6262 432.616 68.7541 432.616 68.9082C432.615 69.0673 432.744 69.1952 432.902 69.1952Z" fill="#0071BC"/>
<path d="M422.809 71.3798C423.057 71.3798 423.257 71.5815 423.257 71.8275C423.257 72.0735 423.055 72.272 422.809 72.272C422.563 72.272 422.362 72.0735 422.362 71.8275C422.362 71.5815 422.562 71.3798 422.809 71.3798ZM422.809 72.1096C422.967 72.1096 423.095 71.9833 423.095 71.8275C423.095 71.6701 422.967 71.5422 422.809 71.5422C422.652 71.5422 422.524 71.6701 422.524 71.8275C422.526 71.9833 422.652 72.1096 422.809 72.1096Z" fill="#0071BC"/>
<path d="M434.95 72.8394C435.196 72.8394 435.398 73.0395 435.398 73.2871C435.398 73.5331 435.198 73.7349 434.95 73.7349C434.703 73.7349 434.502 73.5348 434.502 73.2871C434.501 73.0379 434.703 72.8394 434.95 72.8394ZM434.95 73.5725C435.108 73.5725 435.236 73.4446 435.236 73.2871C435.236 73.1281 435.108 73.0001 434.95 73.0001C434.791 73.0001 434.665 73.1281 434.665 73.2871C434.663 73.4446 434.791 73.5725 434.95 73.5725Z" fill="#0071BC"/>
<path d="M425.84 69.9216C426.088 69.9216 426.288 70.1217 426.288 70.3694C426.288 70.6137 426.086 70.8154 425.84 70.8154C425.592 70.8154 425.392 70.6154 425.392 70.3694C425.392 70.1217 425.594 69.9216 425.84 69.9216ZM425.84 70.6531C425.997 70.6531 426.125 70.5251 426.125 70.371C426.125 70.2119 425.997 70.084 425.84 70.084C425.683 70.084 425.555 70.2119 425.555 70.371C425.555 70.5235 425.683 70.6531 425.84 70.6531Z" fill="#0071BC"/>
<path d="M420.171 69.9216C420.418 69.9216 420.618 70.1217 420.618 70.3694C420.618 70.6137 420.417 70.8154 420.171 70.8154C419.923 70.8154 419.723 70.6154 419.723 70.3694C419.723 70.1217 419.925 69.9216 420.171 69.9216ZM420.171 70.6531C420.328 70.6531 420.456 70.5251 420.456 70.371C420.456 70.2119 420.328 70.084 420.171 70.084C420.013 70.084 419.885 70.2119 419.885 70.371C419.887 70.5235 420.013 70.6531 420.171 70.6531Z" fill="#0071BC"/>
<path d="M436.5 65.5448C436.748 65.5448 436.948 65.7449 436.948 65.9925C436.948 66.2385 436.746 66.4419 436.5 66.4419C436.254 66.4419 436.052 66.2402 436.052 65.9925C436.052 65.7449 436.252 65.5448 436.5 65.5448ZM436.5 66.2779C436.657 66.2779 436.785 66.15 436.785 65.9925C436.785 65.8335 436.657 65.7055 436.5 65.7055C436.343 65.7055 436.215 65.8335 436.215 65.9925C436.215 66.15 436.343 66.2779 436.5 66.2779Z" fill="#0071BC"/>
<path d="M430.885 67.3685C431.132 67.3685 431.332 67.5703 431.332 67.8163C431.332 68.0623 431.131 68.2656 430.885 68.2656C430.639 68.2656 430.437 68.0639 430.437 67.8163C430.437 67.5686 430.637 67.3685 430.885 67.3685ZM430.885 68.1033C431.042 68.1033 431.17 67.977 431.17 67.8179C431.17 67.6605 431.042 67.5325 430.885 67.5325C430.727 67.5325 430.599 67.6605 430.599 67.8179C430.599 67.977 430.727 68.1033 430.885 68.1033Z" fill="#0071BC"/>
<path d="M429.619 65.5481C429.866 65.5481 430.066 65.7465 430.066 65.9925C430.066 66.2385 429.865 66.4419 429.619 66.4419C429.373 66.4419 429.171 66.2402 429.171 65.9925C429.171 65.7449 429.371 65.5481 429.619 65.5481ZM429.619 66.2779C429.776 66.2779 429.904 66.15 429.904 65.9925C429.904 65.8367 429.776 65.7088 429.619 65.7088C429.461 65.7088 429.333 65.8384 429.333 65.9942C429.333 66.15 429.461 66.2779 429.619 66.2779Z" fill="#0071BC"/>
<path d="M423.977 67.0061C424.225 67.0061 424.425 67.2062 424.425 67.4522C424.425 67.6982 424.223 67.8999 423.977 67.8999C423.731 67.8999 423.529 67.6982 423.529 67.4522C423.529 67.2062 423.731 67.0061 423.977 67.0061ZM423.977 67.7359C424.136 67.7359 424.262 67.6096 424.262 67.4505C424.262 67.2947 424.134 67.1685 423.977 67.1685C423.82 67.1685 423.692 67.2947 423.692 67.4505C423.692 67.6096 423.82 67.7359 423.977 67.7359Z" fill="#0071BC"/>
<path d="M421.655 65.5481C421.902 65.5481 422.102 65.7465 422.102 65.9925C422.102 66.2385 421.901 66.4419 421.655 66.4419C421.407 66.4419 421.207 66.2402 421.207 65.9925C421.207 65.7449 421.407 65.5481 421.655 65.5481ZM421.655 66.2779C421.812 66.2779 421.94 66.15 421.94 65.9925C421.94 65.8367 421.812 65.7088 421.655 65.7088C421.497 65.7088 421.369 65.8367 421.369 65.9925C421.369 66.15 421.497 66.2779 421.655 66.2779Z" fill="#0071BC"/>
<path d="M416.448 68.4638C416.695 68.4638 416.895 68.6622 416.895 68.9082C416.895 69.1559 416.694 69.356 416.448 69.356C416.202 69.356 416 69.1559 416 68.9082C416 68.6639 416.202 68.4638 416.448 68.4638ZM416.448 69.1952C416.605 69.1952 416.733 69.0673 416.733 68.9082C416.733 68.7541 416.605 68.6262 416.448 68.6262C416.29 68.6262 416.162 68.7541 416.162 68.9082C416.162 69.069 416.289 69.1952 416.448 69.1952Z" fill="#0071BC"/>
<path d="M430.153 64.0849C430.399 64.0849 430.601 64.2866 430.601 64.5342C430.601 64.7819 430.399 64.9819 430.153 64.9819C429.906 64.9819 429.705 64.7819 429.705 64.5342C429.704 64.2882 429.906 64.0849 430.153 64.0849ZM430.153 64.8212C430.311 64.8212 430.439 64.6933 430.439 64.5342C430.439 64.3768 430.311 64.2489 430.153 64.2489C429.994 64.2489 429.868 64.3768 429.868 64.5342C429.868 64.6933 429.994 64.8212 430.153 64.8212Z" fill="#0071BC"/>
<path d="M418.063 64.0849C418.311 64.0849 418.511 64.2866 418.511 64.5342C418.511 64.7819 418.309 64.9819 418.063 64.9819C417.817 64.9819 417.615 64.7819 417.615 64.5342C417.614 64.2882 417.815 64.0849 418.063 64.0849ZM418.063 64.8212C418.221 64.8212 418.348 64.6933 418.348 64.5342C418.348 64.3768 418.221 64.2489 418.063 64.2489C417.906 64.2489 417.778 64.3768 417.778 64.5342C417.778 64.6933 417.906 64.8212 418.063 64.8212Z" fill="#0071BC"/>
<path d="M431.675 65.5481C431.923 65.5481 432.123 65.7465 432.123 65.9925C432.123 66.2385 431.921 66.4419 431.675 66.4419C431.429 66.4419 431.227 66.2402 431.227 65.9925C431.227 65.7449 431.427 65.5481 431.675 65.5481ZM431.675 66.2779C431.833 66.2779 431.96 66.15 431.96 65.9925C431.96 65.8367 431.833 65.7088 431.675 65.7088C431.518 65.7088 431.39 65.8367 431.39 65.9925C431.388 66.15 431.516 66.2779 431.675 66.2779Z" fill="#0071BC"/>
<path d="M436.662 67.0061C436.91 67.0061 437.11 67.2062 437.11 67.4522C437.11 67.6982 436.908 67.8999 436.662 67.8999C436.416 67.8999 436.215 67.6982 436.215 67.4522C436.215 67.2062 436.415 67.0061 436.662 67.0061ZM436.662 67.7359C436.82 67.7359 436.948 67.6096 436.948 67.4505C436.948 67.2947 436.82 67.1685 436.662 67.1685C436.505 67.1685 436.377 67.2947 436.377 67.4505C436.377 67.6096 436.505 67.7359 436.662 67.7359Z" fill="#0071BC"/>
<path d="M451.499 67.0061C451.745 67.0061 451.947 67.2062 451.947 67.4522C451.947 67.6982 451.745 67.8999 451.499 67.8999C451.252 67.8999 451.052 67.6982 451.052 67.4522C451.052 67.2062 451.25 67.0061 451.499 67.0061ZM451.499 67.7359C451.657 67.7359 451.785 67.6096 451.785 67.4505C451.785 67.2947 451.657 67.1685 451.499 67.1685C451.342 67.1685 451.214 67.2947 451.214 67.4505C451.214 67.6113 451.339 67.7359 451.499 67.7359Z" fill="#0071BC"/>
<path d="M446.402 65.9104V66.0728H456.918V65.9104H446.402Z" fill="#0071BC"/>
<path d="M451.865 67.3682V67.5322H456.918V67.3682H451.865Z" fill="#0071BC"/>
<path d="M442.543 64.5344H442.707V67.3683H448.562V68.8279H456.918V68.9902H448.4V67.5323H442.543V64.5344Z" fill="#0071BC"/>
<path d="M438.807 64.5345H438.971V66.0729H437.5V67.3685H440.156V68.8281H446.127V70.2893H456.918V70.4517H445.964V68.9904H439.992V67.5325H437.338V65.9121H438.807V64.5345Z" fill="#0071BC"/>
<path d="M450.753 71.7455H456.918V71.9095H450.916V73.2871H450.753V71.7455Z" fill="#0071BC"/>
<path d="M442.625 71.7457V71.9097H448.649V71.7457H442.625Z" fill="#0071BC"/>
<path d="M435.683 68.8281H438.604V70.2893H444.939V70.4517H438.442V68.9904H435.683V68.8281Z" fill="#0071BC"/>
<path d="M430.803 64.4523H433.569V65.9119H436.142V66.0726H433.407V64.6163H430.967V67.4502H430.803V64.4523Z" fill="#0071BC"/>
<path d="M432.041 65.9119H432.871V67.3682H436.295V67.5322H432.708V66.0726H432.041V65.9119Z" fill="#0071BC"/>
<path d="M427.741 68.8281H432.534V68.9905H427.903V70.2893H429.758V71.9097H423.177V71.7457H429.594V70.4517H427.741V68.8281Z" fill="#0071BC"/>
<path d="M422.158 68.8281H423.751V70.2893H425.474V70.4517H423.588V68.9904H422.322V70.4484H420.538V70.286H422.158V68.8281Z" fill="#0071BC"/>
<path d="M418.429 64.4524H422.891V65.912H425.76V64.4524H429.763V64.6164H425.922V66.0728H422.729V64.6164H418.429V64.4524Z" fill="#0071BC"/>
<path d="M426.686 65.9119H429.251V66.0726H426.849V67.5322H424.318V67.3682H426.686V65.9119Z" fill="#0071BC"/>
<path d="M418.859 65.912H421.289V66.0727H419.021V67.3683H420.195V68.9902H416.91V68.8279H420.033V67.5323H418.859V65.912Z" fill="#0071BC"/>
<path d="M453.52 73.2053V73.3677H456.918V73.2053H453.52Z" fill="#0071BC"/>
<path d="M432.534 70.2857H435.662V71.7453H439.032V73.2049H442.025V74.6628H444.892V73.2049H448.547V73.3672H445.056V74.8252H441.864V73.3672H438.868V71.9093H435.5V70.448H432.534V70.2857Z" fill="#0071BC"/>
<path d="M441.171 63.7226C441.418 63.7226 441.617 63.9227 441.617 64.167C441.617 64.4147 441.418 64.6147 441.171 64.6147C440.925 64.6147 440.721 64.4147 440.721 64.167C440.721 63.9227 440.923 63.7226 441.171 63.7226ZM441.171 64.4524C441.331 64.4524 441.456 64.3277 441.456 64.167C441.456 64.0129 441.328 63.8849 441.171 63.8849C441.013 63.8849 440.885 64.0129 440.885 64.167C440.885 64.3261 441.013 64.4524 441.171 64.4524Z" fill="#0071BC"/>
<path d="M441.171 67.3685C441.418 67.3685 441.617 67.5703 441.617 67.8163C441.617 68.0623 441.418 68.2656 441.171 68.2656C440.925 68.2656 440.721 68.0639 440.721 67.8163C440.721 67.5686 440.923 67.3685 441.171 67.3685ZM441.171 68.1033C441.331 68.1033 441.456 67.9786 441.456 67.8179C441.456 67.6605 441.328 67.5325 441.171 67.5325C441.013 67.5325 440.885 67.6605 440.885 67.8179C440.885 67.977 441.013 68.1033 441.171 68.1033Z" fill="#0071BC"/>
<path d="M441.09 64.5348V67.4507H441.253V64.5348H441.09Z" fill="#0071BC"/>
<path d="M452.096 84.0009C452.344 84.0009 452.542 84.201 452.542 84.4453C452.542 84.693 452.344 84.8931 452.096 84.8931C451.85 84.8931 451.647 84.6913 451.647 84.4453C451.647 84.201 451.849 84.0009 452.096 84.0009ZM452.096 84.7307C452.257 84.7307 452.38 84.6044 452.38 84.4453C452.38 84.2912 452.254 84.1633 452.096 84.1633C451.939 84.1633 451.811 84.2912 451.811 84.4453C451.811 84.6044 451.939 84.7307 452.096 84.7307Z" fill="#0071BC"/>
<path d="M452.096 87.6485C452.344 87.6485 452.542 87.8502 452.542 88.0962C452.542 88.3439 452.344 88.5439 452.096 88.5439C451.85 88.5439 451.647 88.3422 451.647 88.0962C451.647 87.8486 451.849 87.6485 452.096 87.6485ZM452.096 88.3816C452.257 88.3816 452.38 88.2553 452.38 88.0962C452.38 87.9388 452.254 87.8109 452.096 87.8109C451.939 87.8109 451.811 87.9388 451.811 88.0962C451.811 88.2537 451.939 88.3816 452.096 88.3816Z" fill="#0071BC"/>
<path d="M452.014 84.8131V87.729H452.178V84.8131H452.014Z" fill="#0071BC"/>
<path d="M452.308 86.271C452.308 86.025 452.506 85.8249 452.752 85.8249C452.998 85.8249 453.198 86.025 453.198 86.271C453.198 86.5187 452.998 86.7188 452.752 86.7188C452.506 86.7188 452.308 86.5187 452.308 86.271ZM453.038 86.271C453.038 86.1119 452.911 85.9873 452.752 85.9873C452.597 85.9873 452.469 86.1152 452.469 86.271C452.469 86.4301 452.597 86.5564 452.752 86.5564C452.91 86.5564 453.038 86.4301 453.038 86.271Z" fill="#0071BC"/>
<path d="M455.954 86.271C455.954 86.025 456.154 85.8249 456.4 85.8249C456.647 85.8249 456.847 86.025 456.847 86.271C456.847 86.5187 456.647 86.7188 456.4 86.7188C456.154 86.7188 455.954 86.5187 455.954 86.271ZM456.688 86.271C456.688 86.1119 456.562 85.9873 456.401 85.9873C456.244 85.9873 456.116 86.1152 456.116 86.271C456.116 86.4301 456.244 86.5564 456.401 86.5564C456.559 86.5564 456.688 86.4301 456.688 86.271Z" fill="#0071BC"/>
<path d="M453.12 86.1907V86.353H456.034V86.1907H453.12Z" fill="#0071BC"/>
<path d="M431.839 86.271C431.839 86.025 432.039 85.8249 432.284 85.8249C432.531 85.8249 432.731 86.025 432.731 86.271C432.731 86.5187 432.531 86.7188 432.284 86.7188C432.038 86.7188 431.839 86.5187 431.839 86.271ZM432.571 86.271C432.571 86.1119 432.444 85.9873 432.285 85.9873C432.131 85.9873 432.003 86.1152 432.003 86.271C432.003 86.4301 432.131 86.5564 432.285 86.5564C432.441 86.5564 432.571 86.4301 432.571 86.271Z" fill="#0071BC"/>
<path d="M435.485 86.271C435.485 86.025 435.687 85.8249 435.934 85.8249C436.182 85.8249 436.382 86.025 436.382 86.271C436.382 86.5187 436.182 86.7188 435.934 86.7188C435.687 86.7188 435.485 86.5187 435.485 86.271ZM436.22 86.271C436.22 86.1119 436.093 85.9873 435.934 85.9873C435.777 85.9873 435.649 86.1152 435.649 86.271C435.649 86.4301 435.777 86.5564 435.934 86.5564C436.092 86.5564 436.22 86.4301 436.22 86.271Z" fill="#0071BC"/>
<path d="M432.651 86.1907V86.353H435.567V86.1907H432.651Z" fill="#0071BC"/>
<path d="M433.045 63.3604C433.045 63.1144 433.245 62.9127 433.491 62.9127C433.738 62.9127 433.938 63.1127 433.938 63.3604C433.938 63.608 433.737 63.8081 433.491 63.8081C433.245 63.8097 433.045 63.6097 433.045 63.3604ZM433.776 63.3604C433.776 63.2013 433.65 63.0767 433.491 63.0767C433.336 63.0767 433.209 63.2046 433.209 63.3604C433.209 63.5195 433.336 63.6457 433.491 63.6457C433.648 63.6457 433.776 63.5195 433.776 63.3604Z" fill="#0071BC"/>
<path d="M436.692 63.3604C436.692 63.1144 436.894 62.9127 437.14 62.9127C437.387 62.9127 437.587 63.1127 437.587 63.3604C437.587 63.608 437.387 63.8081 437.14 63.8081C436.892 63.8097 436.692 63.6097 436.692 63.3604ZM437.425 63.3604C437.425 63.2013 437.299 63.0767 437.14 63.0767C436.982 63.0767 436.854 63.2046 436.854 63.3604C436.854 63.5195 436.982 63.6457 437.14 63.6457C437.297 63.6457 437.425 63.5195 437.425 63.3604Z" fill="#0071BC"/>
<path d="M433.856 63.2784V63.4424H436.772V63.2784H433.856Z" fill="#0071BC"/>
<path d="M450.989 58.8238C450.989 58.5778 451.188 58.3777 451.434 58.3777C451.68 58.3777 451.883 58.5761 451.883 58.8238C451.883 59.0714 451.681 59.2715 451.434 59.2715C451.188 59.2715 450.989 59.0714 450.989 58.8238ZM451.719 58.8238C451.719 58.6647 451.593 58.54 451.434 58.54C451.278 58.54 451.152 58.668 451.152 58.8238C451.152 58.9828 451.278 59.1108 451.434 59.1108C451.591 59.1091 451.719 58.9812 451.719 58.8238Z" fill="#0071BC"/>
<path d="M454.637 58.8238C454.637 58.5778 454.837 58.3777 455.085 58.3777C455.331 58.3777 455.532 58.5761 455.532 58.8238C455.532 59.0714 455.331 59.2715 455.085 59.2715C454.837 59.2715 454.637 59.0714 454.637 58.8238ZM455.37 58.8238C455.37 58.6647 455.244 58.54 455.085 58.54C454.925 58.54 454.797 58.668 454.797 58.8238C454.797 58.9828 454.925 59.1108 455.085 59.1108C455.242 59.1091 455.37 58.9812 455.37 58.8238Z" fill="#0071BC"/>
<path d="M451.801 58.7419V58.9043H454.717V58.7419H451.801Z" fill="#0071BC"/>
<path d="M416.828 74.3775C416.828 74.1298 417.028 73.9314 417.273 73.9314C417.519 73.9314 417.72 74.1298 417.72 74.3775C417.72 74.6235 417.519 74.8252 417.273 74.8252C417.027 74.8252 416.828 74.6235 416.828 74.3775ZM417.558 74.3775C417.558 74.2168 417.432 74.0921 417.273 74.0921C417.117 74.0921 416.991 74.22 416.991 74.3775C416.991 74.5349 417.118 74.6628 417.273 74.6628C417.432 74.6628 417.558 74.5349 417.558 74.3775Z" fill="#0071BC"/>
<path d="M420.476 74.3775C420.476 74.1298 420.677 73.9314 420.923 73.9314C421.169 73.9314 421.371 74.1298 421.371 74.3775C421.371 74.6235 421.169 74.8252 420.923 74.8252C420.676 74.8252 420.476 74.6235 420.476 74.3775ZM421.209 74.3775C421.209 74.2168 421.082 74.0921 420.923 74.0921C420.764 74.0921 420.638 74.22 420.638 74.3775C420.638 74.5349 420.766 74.6628 420.923 74.6628C421.081 74.6628 421.209 74.5349 421.209 74.3775Z" fill="#0071BC"/>
<path d="M417.64 74.2955V74.4595H420.556V74.2955H417.64Z" fill="#0071BC"/>
<path d="M416.828 62.6468C416.828 62.4008 417.028 62.2007 417.273 62.2007C417.519 62.2007 417.72 62.4008 417.72 62.6468C417.72 62.8928 417.519 63.0962 417.273 63.0962C417.027 63.0946 416.828 62.8928 416.828 62.6468ZM417.558 62.6468C417.558 62.4861 417.432 62.3631 417.273 62.3631C417.117 62.3631 416.991 62.4894 416.991 62.6468C416.991 62.8059 417.118 62.9322 417.273 62.9322C417.432 62.9306 417.558 62.8043 417.558 62.6468Z" fill="#0071BC"/>
<path d="M420.476 62.6468C420.476 62.4008 420.677 62.2007 420.923 62.2007C421.169 62.2007 421.371 62.4008 421.371 62.6468C421.371 62.8928 421.169 63.0962 420.923 63.0962C420.676 63.0946 420.476 62.8928 420.476 62.6468ZM421.209 62.6468C421.209 62.4861 421.082 62.3631 420.923 62.3631C420.764 62.3631 420.638 62.4894 420.638 62.6468C420.638 62.8059 420.766 62.9322 420.923 62.9322C421.081 62.9306 421.209 62.8043 421.209 62.6468Z" fill="#0071BC"/>
<path d="M417.64 62.5631V62.7271H420.556V62.5631H417.64Z" fill="#0071BC"/>
<path d="M416.827 57.6429C416.827 57.3969 417.027 57.1985 417.271 57.1985C417.517 57.1985 417.719 57.3969 417.719 57.6429C417.719 57.8906 417.517 58.0923 417.271 58.0923C417.025 58.0906 416.827 57.8906 416.827 57.6429ZM417.556 57.6429C417.556 57.4838 417.43 57.3592 417.271 57.3592C417.115 57.3592 416.989 57.4871 416.989 57.6429C416.989 57.802 417.117 57.9299 417.271 57.9299C417.43 57.9299 417.556 57.802 417.556 57.6429Z" fill="#0071BC"/>
<path d="M420.474 57.6429C420.474 57.3969 420.676 57.1985 420.922 57.1985C421.168 57.1985 421.369 57.3969 421.369 57.6429C421.369 57.8906 421.168 58.0923 420.922 58.0923C420.674 58.0906 420.474 57.8906 420.474 57.6429ZM421.207 57.6429C421.207 57.4838 421.081 57.3592 420.922 57.3592C420.763 57.3592 420.636 57.4871 420.636 57.6429C420.636 57.802 420.764 57.9299 420.922 57.9299C421.079 57.9299 421.207 57.802 421.207 57.6429Z" fill="#0071BC"/>
<path d="M417.638 57.5627V57.7251H420.554V57.5627H417.638Z" fill="#0071BC"/>
<path d="M445.897 57.6429C445.897 57.3969 446.096 57.1985 446.343 57.1985C446.589 57.1985 446.789 57.3969 446.789 57.6429C446.789 57.8906 446.589 58.0923 446.343 58.0923C446.097 58.0906 445.897 57.8906 445.897 57.6429ZM446.629 57.6429C446.629 57.4838 446.502 57.3592 446.343 57.3592C446.187 57.3592 446.06 57.4871 446.06 57.6429C446.06 57.802 446.187 57.9299 446.343 57.9299C446.501 57.9299 446.629 57.802 446.629 57.6429Z" fill="#0071BC"/>
<path d="M449.545 57.6429C449.545 57.3969 449.745 57.1985 449.992 57.1985C450.24 57.1985 450.44 57.3969 450.44 57.6429C450.44 57.8906 450.24 58.0923 449.992 58.0923C449.745 58.0906 449.545 57.8906 449.545 57.6429ZM450.278 57.6429C450.278 57.4838 450.151 57.3592 449.991 57.3592C449.833 57.3592 449.705 57.4871 449.705 57.6429C449.705 57.802 449.833 57.9299 449.991 57.9299C450.15 57.9299 450.278 57.802 450.278 57.6429Z" fill="#0071BC"/>
<path d="M446.711 57.5627V57.7251H449.625V57.5627H446.711Z" fill="#0071BC"/>
<path d="M435.411 74.8238C435.411 74.5761 435.611 74.376 435.855 74.376C436.103 74.376 436.303 74.5745 436.303 74.8238C436.303 75.0698 436.101 75.2715 435.855 75.2715C435.611 75.2731 435.411 75.0714 435.411 74.8238ZM436.142 74.8238C436.142 74.663 436.016 74.5384 435.857 74.5384C435.703 74.5384 435.575 74.6663 435.575 74.8238C435.575 74.9812 435.703 75.1091 435.857 75.1091C436.015 75.1091 436.142 74.9812 436.142 74.8238Z" fill="#0071BC"/>
<path d="M439.06 74.8238C439.06 74.5761 439.26 74.376 439.508 74.376C439.754 74.376 439.954 74.5745 439.954 74.8238C439.954 75.0698 439.754 75.2715 439.508 75.2715C439.26 75.2731 439.06 75.0714 439.06 74.8238ZM439.793 74.8238C439.793 74.663 439.667 74.5384 439.508 74.5384C439.349 74.5384 439.221 74.6663 439.221 74.8238C439.221 74.9812 439.349 75.1091 439.508 75.1091C439.665 75.1091 439.793 74.9812 439.793 74.8238Z" fill="#0071BC"/>
<path d="M436.224 74.7419V74.9043H439.14V74.7419H436.224Z" fill="#0071BC"/>
<path d="M443.826 64.167C443.826 63.921 444.024 63.7209 444.27 63.7209C444.516 63.7209 444.718 63.921 444.718 64.167C444.718 64.4147 444.516 64.6147 444.27 64.6147C444.024 64.6147 443.826 64.4163 443.826 64.167ZM444.556 64.167C444.556 64.0079 444.429 63.8833 444.27 63.8833C444.115 63.8833 443.987 64.0112 443.987 64.167C443.987 64.3261 444.115 64.4524 444.27 64.4524C444.428 64.4524 444.556 64.3261 444.556 64.167Z" fill="#0071BC"/>
<path d="M447.472 64.167C447.472 63.921 447.672 63.7209 447.921 63.7209C448.167 63.7209 448.367 63.921 448.367 64.167C448.367 64.4147 448.167 64.6147 447.921 64.6147C447.673 64.6164 447.472 64.4163 447.472 64.167ZM448.206 64.167C448.206 64.0079 448.08 63.8833 447.921 63.8833C447.762 63.8833 447.634 64.0112 447.634 64.167C447.634 64.3261 447.762 64.4524 447.921 64.4524C448.078 64.4524 448.206 64.3261 448.206 64.167Z" fill="#0071BC"/>
<path d="M444.638 64.085V64.249H447.554V64.085H444.638Z" fill="#0071BC"/>
<path d="M443.973 70.3679V73.2871H444.137V70.3679H443.973Z" fill="#0071BC"/>
<path d="M416.082 71.7453H421.929V73.2049H426.468V74.6628H430.837V73.2049H434.57V73.3672H430.999V74.8252H426.306V73.3672H421.765V71.9093H416.082V71.7453Z" fill="#0071BC"/>
<path d="M427.549 73.2053V73.3677H429.847V73.2053H427.549Z" fill="#0071BC"/>
<path d="M416.082 75.8995V76.0635H422.955V75.8995H416.082Z" fill="#0071BC"/>
<path d="M423.362 75.5338C423.61 75.5338 423.81 75.7338 423.81 75.9815C423.81 76.2275 423.608 76.4292 423.362 76.4292C423.116 76.4292 422.916 76.2275 422.916 75.9815C422.916 75.7338 423.114 75.5338 423.362 75.5338ZM423.362 76.2668C423.521 76.2668 423.647 76.1389 423.647 75.9815C423.647 75.8224 423.519 75.6961 423.362 75.6961C423.206 75.6961 423.078 75.8224 423.078 75.9815C423.078 76.1406 423.203 76.2668 423.362 76.2668Z" fill="#0071BC"/>
<path d="M434.111 75.1697C434.358 75.1697 434.558 75.3681 434.558 75.6158C434.558 75.8634 434.357 76.0635 434.111 76.0635C433.863 76.0635 433.663 75.8618 433.663 75.6158C433.663 75.3698 433.863 75.1697 434.111 75.1697ZM434.111 75.9011C434.268 75.9011 434.396 75.7732 434.396 75.6158C434.396 75.46 434.268 75.332 434.111 75.332C433.955 75.332 433.827 75.46 433.827 75.6158C433.827 75.7732 433.951 75.9011 434.111 75.9011Z" fill="#0071BC"/>
<path d="M426.904 76.9918C427.152 76.9918 427.35 77.1935 427.35 77.4395C427.35 77.6871 427.15 77.8872 426.904 77.8872C426.657 77.8872 426.457 77.6855 426.457 77.4395C426.457 77.1935 426.658 76.9918 426.904 76.9918ZM426.904 77.7248C427.063 77.7248 427.188 77.6002 427.188 77.4395C427.188 77.2837 427.06 77.1541 426.904 77.1541C426.747 77.1541 426.619 77.2837 426.619 77.4395C426.619 77.5986 426.747 77.7248 426.904 77.7248Z" fill="#0071BC"/>
<path d="M430.375 75.1697C430.622 75.1697 430.822 75.3681 430.822 75.6158C430.822 75.8634 430.621 76.0635 430.375 76.0635C430.129 76.0635 429.929 75.8618 429.929 75.6158C429.929 75.3698 430.127 75.1697 430.375 75.1697ZM430.375 75.9011C430.534 75.9011 430.66 75.7732 430.66 75.6158C430.66 75.46 430.532 75.332 430.375 75.332C430.219 75.332 430.091 75.46 430.091 75.6158C430.091 75.7732 430.214 75.9011 430.375 75.9011Z" fill="#0071BC"/>
<path d="M431.829 75.1697C432.077 75.1697 432.277 75.3681 432.277 75.6158C432.277 75.8634 432.075 76.0635 431.829 76.0635C431.582 76.0635 431.383 75.8618 431.383 75.6158C431.383 75.3698 431.582 75.1697 431.829 75.1697ZM431.829 75.9011C431.987 75.9011 432.115 75.7732 432.115 75.6158C432.115 75.46 431.987 75.332 431.829 75.332C431.673 75.332 431.546 75.46 431.546 75.6158C431.546 75.7732 431.67 75.9011 431.829 75.9011Z" fill="#0071BC"/>
<path d="M431.829 78.8153C432.077 78.8153 432.277 79.017 432.277 79.263C432.277 79.509 432.075 79.7124 431.829 79.7124C431.582 79.7124 431.382 79.5107 431.382 79.263C431.382 79.0154 431.582 78.8153 431.829 78.8153ZM431.829 79.55C431.987 79.55 432.115 79.4221 432.115 79.2647C432.115 79.1089 431.987 78.9793 431.829 78.9793C431.672 78.9793 431.544 79.1089 431.544 79.2647C431.544 79.4221 431.672 79.55 431.829 79.55Z" fill="#0071BC"/>
<path d="M422.165 84.6523C422.412 84.6523 422.611 84.854 422.611 85.1C422.611 85.346 422.411 85.5444 422.165 85.5444C421.919 85.5444 421.717 85.3444 421.717 85.1C421.717 84.8524 421.919 84.6523 422.165 84.6523ZM422.165 85.3821C422.322 85.3821 422.448 85.2558 422.448 85.1C422.448 84.9409 422.324 84.8146 422.165 84.8146C422.007 84.8146 421.879 84.9442 421.879 85.1C421.879 85.2558 422.007 85.3821 422.165 85.3821Z" fill="#0071BC"/>
<path d="M419.846 84.2847C420.093 84.2847 420.295 84.4865 420.295 84.7325C420.295 84.9801 420.093 85.1802 419.847 85.1802C419.6 85.1802 419.401 84.9785 419.401 84.7325C419.4 84.4865 419.598 84.2847 419.846 84.2847ZM419.846 85.0195C420.003 85.0195 420.131 84.8915 420.131 84.7341C420.131 84.575 420.005 84.4487 419.846 84.4487C419.69 84.4487 419.562 84.5783 419.562 84.7341C419.562 84.8915 419.69 85.0195 419.846 85.0195Z" fill="#0071BC"/>
<path d="M424.095 84.2847C424.341 84.2847 424.543 84.4865 424.543 84.7325C424.543 84.9801 424.341 85.1802 424.095 85.1802C423.847 85.1802 423.649 84.9785 423.649 84.7325C423.647 84.4865 423.847 84.2847 424.095 84.2847ZM424.095 85.0195C424.251 85.0195 424.379 84.8915 424.38 84.7341C424.38 84.5783 424.252 84.4487 424.095 84.4487C423.936 84.4487 423.811 84.575 423.811 84.7341C423.81 84.8915 423.938 85.0195 424.095 85.0195Z" fill="#0071BC"/>
<path d="M424.033 82.8266C424.28 82.8266 424.48 83.0283 424.48 83.2743C424.48 83.5203 424.279 83.7188 424.033 83.7188C423.785 83.7188 423.587 83.5187 423.587 83.2743C423.587 83.0283 423.787 82.8266 424.033 82.8266ZM424.033 83.558C424.19 83.558 424.318 83.4318 424.318 83.276C424.318 83.1202 424.19 82.9906 424.033 82.9906C423.874 82.9906 423.749 83.1169 423.749 83.276C423.749 83.4318 423.877 83.558 424.033 83.558Z" fill="#0071BC"/>
<path d="M430.742 82.8266C430.988 82.8266 431.188 83.0283 431.188 83.2743C431.188 83.5203 430.988 83.7188 430.742 83.7188C430.494 83.7188 430.294 83.5187 430.294 83.2743C430.293 83.0283 430.494 82.8266 430.742 82.8266ZM430.742 83.558C430.898 83.558 431.026 83.4318 431.026 83.276C431.026 83.1202 430.898 82.9906 430.742 82.9906C430.581 82.9906 430.457 83.1169 430.457 83.276C430.455 83.4318 430.583 83.558 430.742 83.558Z" fill="#0071BC"/>
<path d="M428.946 84.6523C429.192 84.6523 429.394 84.854 429.394 85.1C429.394 85.346 429.192 85.5444 428.946 85.5444C428.699 85.5444 428.498 85.3444 428.498 85.1C428.497 84.8524 428.699 84.6523 428.946 84.6523ZM428.946 85.3821C429.104 85.3821 429.232 85.2558 429.232 85.1C429.23 84.9442 429.104 84.8146 428.946 84.8146C428.787 84.8146 428.661 84.9442 428.661 85.1C428.659 85.2558 428.787 85.3821 428.946 85.3821Z" fill="#0071BC"/>
<path d="M428.946 81.0015C429.192 81.0015 429.394 81.2033 429.394 81.4493C429.394 81.6969 429.192 81.897 428.946 81.897C428.699 81.897 428.5 81.6953 428.5 81.4493C428.498 81.2033 428.699 81.0015 428.946 81.0015ZM428.946 81.7363C429.104 81.7363 429.232 81.6083 429.232 81.4509C429.232 81.2951 429.104 81.1655 428.946 81.1655C428.785 81.1655 428.662 81.2918 428.662 81.4509C428.661 81.6083 428.789 81.7363 428.946 81.7363Z" fill="#0071BC"/>
<path d="M440.839 81.3691C441.087 81.3691 441.287 81.5692 441.287 81.8135C441.287 82.0595 441.087 82.2612 440.839 82.2612C440.593 82.2612 440.392 82.0595 440.392 81.8135C440.39 81.5692 440.592 81.3691 440.839 81.3691ZM440.839 82.0989C440.999 82.0989 441.125 81.9693 441.125 81.8135C441.125 81.6561 440.999 81.5314 440.839 81.5314C440.682 81.5314 440.554 81.6577 440.554 81.8135C440.554 81.971 440.682 82.0989 440.839 82.0989Z" fill="#0071BC"/>
<path d="M427.729 81.3691C427.975 81.3691 428.175 81.5708 428.175 81.8168C428.175 82.0612 427.975 82.2612 427.729 82.2612C427.482 82.2612 427.282 82.0612 427.282 81.8168C427.282 81.5708 427.482 81.3691 427.729 81.3691ZM427.729 82.0989C427.885 82.0989 428.013 81.9726 428.013 81.8168C428.013 81.6561 427.888 81.5314 427.729 81.5314C427.57 81.5314 427.444 81.661 427.444 81.8168C427.444 81.9742 427.572 82.0989 427.729 82.0989Z" fill="#0071BC"/>
<path d="M437.684 79.9109C437.93 79.9109 438.132 80.111 438.132 80.3553C438.132 80.603 437.93 80.8047 437.684 80.8047C437.438 80.8047 437.236 80.603 437.236 80.3553C437.235 80.111 437.436 79.9109 437.684 79.9109ZM437.684 80.6407C437.843 80.6407 437.969 80.5111 437.969 80.3553C437.969 80.1995 437.843 80.0732 437.684 80.0732C437.525 80.0732 437.399 80.1995 437.399 80.3553C437.399 80.5128 437.525 80.6407 437.684 80.6407Z" fill="#0071BC"/>
<path d="M440.098 79.9109C440.344 79.9109 440.548 80.111 440.548 80.3553C440.548 80.603 440.346 80.8047 440.098 80.8047C439.851 80.8047 439.65 80.603 439.65 80.3553C439.65 80.111 439.852 79.9109 440.098 79.9109ZM440.098 80.6407C440.257 80.6407 440.384 80.5111 440.384 80.3553C440.384 80.1995 440.257 80.0732 440.098 80.0732C439.939 80.0732 439.813 80.1995 439.813 80.3553C439.814 80.5128 439.941 80.6407 440.098 80.6407Z" fill="#0071BC"/>
<path d="M450.191 82.8266C450.437 82.8266 450.638 83.0283 450.638 83.2743C450.638 83.5203 450.437 83.7188 450.191 83.7188C449.945 83.7188 449.741 83.5187 449.741 83.2743C449.741 83.0283 449.943 82.8266 450.191 82.8266ZM450.191 83.558C450.35 83.558 450.476 83.4318 450.476 83.276C450.476 83.1202 450.35 82.9906 450.191 82.9906C450.032 82.9906 449.905 83.1202 449.905 83.276C449.905 83.4318 450.032 83.558 450.191 83.558Z" fill="#0071BC"/>
<path d="M438.05 84.2847C438.297 84.2847 438.498 84.4865 438.498 84.7325C438.498 84.9801 438.297 85.1802 438.05 85.1802C437.804 85.1802 437.602 84.9785 437.602 84.7325C437.602 84.4865 437.804 84.2847 438.05 84.2847ZM438.05 85.0195C438.209 85.0195 438.335 84.8915 438.335 84.7341C438.335 84.5783 438.209 84.4487 438.05 84.4487C437.892 84.4487 437.764 84.5783 437.764 84.7341C437.764 84.8915 437.894 85.0195 438.05 85.0195Z" fill="#0071BC"/>
<path d="M447.158 81.3691C447.406 81.3691 447.606 81.5708 447.606 81.8168C447.606 82.0612 447.406 82.2612 447.158 82.2612C446.912 82.2612 446.712 82.0612 446.712 81.8168C446.712 81.5708 446.912 81.3691 447.158 81.3691ZM447.158 82.0989C447.317 82.0989 447.445 81.9726 447.445 81.8168C447.445 81.6594 447.317 81.5314 447.158 81.5314C447.001 81.5314 446.873 81.661 446.873 81.8168C446.873 81.9742 447.001 82.0989 447.158 82.0989Z" fill="#0071BC"/>
<path d="M452.828 81.3691C453.075 81.3691 453.276 81.5708 453.276 81.8168C453.276 82.0612 453.075 82.2612 452.828 82.2612C452.582 82.2612 452.378 82.0612 452.378 81.8168C452.38 81.5708 452.582 81.3691 452.828 81.3691ZM452.828 82.0989C452.987 82.0989 453.115 81.9726 453.115 81.8168C453.115 81.6594 452.987 81.5314 452.828 81.5314C452.67 81.5314 452.542 81.661 452.542 81.8168C452.542 81.9742 452.67 82.0989 452.828 82.0989Z" fill="#0071BC"/>
<path d="M436.5 76.9918C436.748 76.9918 436.948 77.1935 436.948 77.4395C436.948 77.6871 436.746 77.8872 436.5 77.8872C436.254 77.8872 436.052 77.6855 436.052 77.4395C436.052 77.1935 436.252 76.9918 436.5 76.9918ZM436.5 77.7248C436.657 77.7248 436.785 77.5953 436.785 77.4395C436.785 77.2837 436.657 77.1541 436.5 77.1541C436.343 77.1541 436.215 77.2837 436.215 77.4395C436.215 77.5969 436.343 77.7248 436.5 77.7248Z" fill="#0071BC"/>
<path d="M442.115 78.8153C442.361 78.8153 442.563 79.017 442.563 79.263C442.563 79.509 442.361 79.7124 442.115 79.7124C441.869 79.7124 441.668 79.5107 441.668 79.263C441.668 79.0154 441.868 78.8153 442.115 78.8153ZM442.115 79.55C442.274 79.55 442.401 79.4205 442.401 79.2647C442.401 79.1089 442.274 78.9793 442.115 78.9793C441.956 78.9793 441.83 79.1089 441.83 79.2647C441.83 79.4205 441.956 79.55 442.115 79.55Z" fill="#0071BC"/>
<path d="M443.381 76.995C443.627 76.995 443.829 77.1951 443.829 77.4395C443.829 77.6871 443.627 77.8872 443.381 77.8872C443.134 77.8872 442.934 77.6855 442.934 77.4395C442.934 77.1951 443.134 76.995 443.381 76.995ZM443.381 77.7248C443.539 77.7248 443.667 77.5953 443.667 77.4395C443.667 77.2837 443.539 77.1574 443.381 77.1574C443.222 77.1574 443.096 77.2837 443.096 77.4395C443.096 77.5969 443.224 77.7248 443.381 77.7248Z" fill="#0071BC"/>
<path d="M449.023 78.4529C449.269 78.4529 449.472 78.653 449.472 78.899C449.472 79.1466 449.271 79.3467 449.023 79.3467C448.775 79.3467 448.575 79.1466 448.575 78.899C448.574 78.6513 448.774 78.4529 449.023 78.4529ZM449.023 79.1843C449.18 79.1843 449.308 79.0548 449.308 78.899C449.308 78.7432 449.18 78.6169 449.023 78.6169C448.864 78.6169 448.738 78.7432 448.738 78.899C448.738 79.0531 448.864 79.1843 449.023 79.1843Z" fill="#0071BC"/>
<path d="M451.345 76.995C451.591 76.995 451.793 77.1951 451.793 77.4395C451.793 77.6871 451.591 77.8872 451.345 77.8872C451.099 77.8872 450.896 77.6855 450.896 77.4395C450.896 77.1951 451.098 76.995 451.345 76.995ZM451.345 77.7248C451.504 77.7248 451.631 77.5953 451.631 77.4395C451.631 77.2837 451.504 77.1574 451.345 77.1574C451.186 77.1574 451.06 77.2837 451.06 77.4395C451.06 77.5969 451.186 77.7248 451.345 77.7248Z" fill="#0071BC"/>
<path d="M456.552 79.9109C456.798 79.9109 457 80.111 457 80.3553C457 80.603 456.798 80.8047 456.552 80.8047C456.306 80.8047 456.103 80.603 456.103 80.3553C456.103 80.111 456.305 79.9109 456.552 79.9109ZM456.552 80.6407C456.713 80.6407 456.838 80.5144 456.838 80.3553C456.838 80.1995 456.711 80.0732 456.552 80.0732C456.395 80.0732 456.267 80.1995 456.267 80.3553C456.267 80.5128 456.395 80.6407 456.552 80.6407Z" fill="#0071BC"/>
<path d="M442.847 75.5338C443.094 75.5338 443.296 75.7338 443.296 75.9815C443.296 76.2275 443.096 76.4292 442.847 76.4292C442.601 76.4292 442.399 76.2275 442.399 75.9815C442.399 75.7338 442.601 75.5338 442.847 75.5338ZM442.847 76.2668C443.006 76.2668 443.132 76.1389 443.132 75.9815C443.132 75.8224 443.006 75.6961 442.847 75.6961C442.689 75.6961 442.561 75.8224 442.561 75.9815C442.561 76.1389 442.689 76.2668 442.847 76.2668Z" fill="#0071BC"/>
<path d="M454.937 75.5338C455.185 75.5338 455.385 75.7338 455.385 75.9815C455.385 76.2275 455.185 76.4292 454.937 76.4292C454.691 76.4292 454.489 76.2275 454.489 75.9815C454.489 75.7338 454.691 75.5338 454.937 75.5338ZM454.937 76.2668C455.096 76.2668 455.222 76.1389 455.222 75.9815C455.222 75.8224 455.096 75.6961 454.937 75.6961C454.779 75.6961 454.652 75.8224 454.652 75.9815C454.652 76.1389 454.779 76.2668 454.937 76.2668Z" fill="#0071BC"/>
<path d="M441.325 76.995C441.571 76.995 441.773 77.1951 441.773 77.4395C441.773 77.6871 441.571 77.8872 441.325 77.8872C441.079 77.8872 440.876 77.6855 440.876 77.4395C440.877 77.1951 441.079 76.995 441.325 76.995ZM441.325 77.7248C441.484 77.7248 441.61 77.5953 441.61 77.4395C441.61 77.2837 441.484 77.1574 441.325 77.1574C441.166 77.1574 441.04 77.2837 441.04 77.4395C441.041 77.5969 441.167 77.7248 441.325 77.7248Z" fill="#0071BC"/>
<path d="M436.338 78.4529C436.585 78.4529 436.785 78.653 436.785 78.899C436.785 79.1466 436.584 79.3467 436.338 79.3467C436.092 79.3467 435.89 79.1466 435.89 78.899C435.888 78.6513 436.09 78.4529 436.338 78.4529ZM436.338 79.1843C436.495 79.1843 436.623 79.0548 436.623 78.899C436.623 78.7432 436.495 78.6169 436.338 78.6169C436.18 78.6169 436.052 78.7432 436.052 78.899C436.052 79.0531 436.18 79.1843 436.338 79.1843Z" fill="#0071BC"/>
<path d="M421.502 78.4529C421.748 78.4529 421.948 78.653 421.948 78.899C421.948 79.1466 421.748 79.3467 421.502 79.3467C421.255 79.3467 421.054 79.1466 421.054 78.899C421.054 78.6513 421.255 78.4529 421.502 78.4529ZM421.502 79.1843C421.661 79.1843 421.786 79.0597 421.786 78.899C421.786 78.7448 421.658 78.6169 421.502 78.6169C421.343 78.6169 421.217 78.7448 421.217 78.899C421.217 79.0564 421.343 79.1843 421.502 79.1843Z" fill="#0071BC"/>
<path d="M416.082 77.3591V77.5215H426.598V77.3591H416.082Z" fill="#0071BC"/>
<path d="M416.082 78.8155V78.9795H421.135V78.8155H416.082Z" fill="#0071BC"/>
<path d="M430.293 75.9816H430.455V78.9795H424.6V80.4375H416.082V80.2751H424.438V78.8155H430.293V75.9816Z" fill="#0071BC"/>
<path d="M434.029 75.9813H434.191V77.3589H435.662V78.9792H433.008V80.4372H427.036V81.8984H416.082V81.7361H426.873V80.2748H432.844V78.8152H435.5V77.5213H434.029V75.9813Z" fill="#0071BC"/>
<path d="M416.082 83.1941H422.247V84.7324H422.084V83.3565H416.082V83.1941Z" fill="#0071BC"/>
<path d="M424.351 83.1941V83.3564H430.375V83.1941H424.351Z" fill="#0071BC"/>
<path d="M434.396 80.2748H437.317V80.4372H434.558V81.8984H428.061V81.7361H434.396V80.2748Z" fill="#0071BC"/>
<path d="M439.431 75.9012H442.197V78.8975H442.033V76.0635H439.593V77.5215H436.858V77.3591H439.431V75.9012Z" fill="#0071BC"/>
<path d="M440.129 77.3592H440.959V77.5215H440.293V78.9795H436.705V78.8155H440.129V77.3592Z" fill="#0071BC"/>
<path d="M440.466 80.2749H445.259V81.8985H443.406V83.1941H449.823V83.3564H443.242V81.7361H445.097V80.4372H440.466V80.2749Z" fill="#0071BC"/>
<path d="M449.248 80.2748H450.84V81.7328H452.46V81.8952H450.679V80.4372H449.412V81.8984H447.527V81.7361H449.248V80.2748Z" fill="#0071BC"/>
<path d="M443.237 75.9012H447.24V77.3591H450.109V75.9012H454.571V76.0635H450.271V77.5215H447.078V76.0635H443.237V75.9012Z" fill="#0071BC"/>
<path d="M443.749 77.3592H446.314V78.8155H448.684V78.9795H446.151V77.5215H443.749V77.3592Z" fill="#0071BC"/>
<path d="M451.711 77.3592H454.141V78.9795H452.967V80.2751H456.088V80.4375H452.803V78.8155H453.979V77.5216H451.711V77.3592Z" fill="#0071BC"/>
<path d="M416.082 84.6505V84.8145H419.482V84.6505H416.082Z" fill="#0071BC"/>
<path d="M437.338 81.7329H440.466V81.8953H437.5V83.3565H434.132V84.8145H431.137V86.2725H427.946V84.8145H424.453V84.6521H428.108V86.1101H430.973V84.6521H433.969V83.1942H437.338V81.7329Z" fill="#0071BC"/>
<path d="M431.749 75.9815V78.8975H431.911V75.9815H431.749Z" fill="#0071BC"/>
<path d="M428.864 81.8132V84.7324H429.027V81.8132H428.864Z" fill="#0071BC"/>
<path d="M451.099 83.1942H456.957V83.3565H451.262V84.8145H446.714V86.2725H442.007V84.8145H438.43V84.6521H442.169V86.1101H446.548V84.6521H451.099V83.1942Z" fill="#0071BC"/>
<path d="M443.153 84.6505V84.8145H445.453V84.6505H443.153Z" fill="#0071BC"/>
<path d="M445.9 87.2026C446.146 87.2026 446.347 87.4026 446.347 87.647C446.347 87.893 446.146 88.0947 445.9 88.0947C445.653 88.0947 445.453 87.893 445.453 87.647C445.453 87.4026 445.653 87.2026 445.9 87.2026ZM445.9 87.934C446.06 87.934 446.184 87.8077 446.184 87.6486C446.184 87.4912 446.056 87.3666 445.9 87.3666C445.741 87.3666 445.613 87.4928 445.613 87.6486C445.615 87.8044 445.743 87.934 445.9 87.934Z" fill="#0071BC"/>
<path d="M445.9 84.2866C446.146 84.2866 446.347 84.4866 446.347 84.731C446.347 84.9786 446.146 85.1787 445.9 85.1787C445.653 85.1787 445.453 84.977 445.453 84.731C445.453 84.4866 445.653 84.2866 445.9 84.2866ZM445.9 85.018C446.06 85.018 446.184 84.8917 446.184 84.7326C446.184 84.5768 446.056 84.4506 445.9 84.4506C445.741 84.4506 445.613 84.5768 445.613 84.7326C445.615 84.8884 445.743 85.018 445.9 85.018Z" fill="#0071BC"/>
<path d="M442.709 84.2866C442.955 84.2866 443.153 84.4866 443.153 84.731C443.153 84.9786 442.955 85.1787 442.709 85.1787C442.461 85.1787 442.261 84.977 442.261 84.731C442.261 84.4866 442.461 84.2866 442.709 84.2866ZM442.709 85.018C442.868 85.018 442.993 84.8917 442.993 84.7326C442.993 84.5768 442.865 84.4506 442.709 84.4506C442.55 84.4506 442.422 84.5768 442.422 84.7326C442.422 84.8884 442.552 85.018 442.709 85.018Z" fill="#0071BC"/>
<path d="M430.211 72.8427C430.458 72.8427 430.657 73.0395 430.657 73.2871C430.657 73.5348 430.457 73.7349 430.211 73.7349C429.965 73.7349 429.763 73.5348 429.763 73.2871C429.763 73.0411 429.963 72.8427 430.211 72.8427ZM430.211 73.5741C430.371 73.5741 430.494 73.4462 430.494 73.2871C430.494 73.1297 430.366 73.0051 430.211 73.0051C430.053 73.0051 429.925 73.1297 429.925 73.2871C429.925 73.4429 430.052 73.5741 430.211 73.5741Z" fill="#0071BC"/>
<path d="M427.101 72.8427C427.349 72.8427 427.547 73.0395 427.547 73.2871C427.547 73.5348 427.347 73.7349 427.101 73.7349C426.854 73.7349 426.653 73.5348 426.653 73.2871C426.653 73.0411 426.854 72.8427 427.101 72.8427ZM427.101 73.5741C427.26 73.5741 427.385 73.4462 427.385 73.2871C427.385 73.1297 427.257 73.0051 427.101 73.0051C426.944 73.0051 426.816 73.1297 426.816 73.2871C426.816 73.4429 426.944 73.5741 427.101 73.5741Z" fill="#0071BC"/>
<path d="M427.101 61.3757C427.349 61.3757 427.547 61.5742 427.547 61.8202C427.547 62.0678 427.347 62.2695 427.101 62.2695C426.854 62.2695 426.653 62.0678 426.653 61.8202C426.653 61.5742 426.854 61.3757 427.101 61.3757ZM427.101 62.1072C427.26 62.1072 427.385 61.9809 427.385 61.8202C427.385 61.6627 427.257 61.5397 427.101 61.5397C426.944 61.5397 426.816 61.6627 426.816 61.8202C426.816 61.976 426.944 62.1072 427.101 62.1072Z" fill="#0071BC"/>
<path d="M430.209 61.3757C430.457 61.3757 430.655 61.5742 430.655 61.8202C430.655 62.0678 430.455 62.2695 430.209 62.2695C429.963 62.2695 429.761 62.0678 429.761 61.8202C429.761 61.5742 429.961 61.3757 430.209 61.3757ZM430.209 62.1072C430.37 62.1072 430.493 61.9809 430.493 61.8202C430.493 61.6627 430.365 61.5397 430.209 61.5397C430.052 61.5397 429.924 61.6627 429.924 61.8202C429.924 61.976 430.05 62.1072 430.209 62.1072Z" fill="#0071BC"/>
<path d="M442.709 87.2026C442.955 87.2026 443.153 87.4026 443.153 87.647C443.153 87.893 442.955 88.0947 442.709 88.0947C442.461 88.0947 442.261 87.893 442.261 87.647C442.261 87.4026 442.461 87.2026 442.709 87.2026ZM442.709 87.934C442.868 87.934 442.993 87.8077 442.993 87.6486C442.993 87.4912 442.865 87.3666 442.709 87.3666C442.55 87.3666 442.422 87.4928 442.422 87.6486C442.422 87.8044 442.552 87.934 442.709 87.934Z" fill="#0071BC"/>
</g>
</mask>
<g mask="url(#mask0_286_344)">
<mask id="path-235-inside-3_286_344" fill="white">
<path fill-rule="evenodd" clip-rule="evenodd" d="M455.705 101.995C442.45 101.995 431.705 91.25 431.705 77.9951C431.705 64.7403 442.45 53.9951 455.705 53.9951C456.379 53.9951 457.046 54.0229 457.705 54.0773L457.705 101.913C457.046 101.967 456.379 101.995 455.705 101.995Z"/>
</mask>
<path fill-rule="evenodd" clip-rule="evenodd" d="M455.705 101.995C442.45 101.995 431.705 91.25 431.705 77.9951C431.705 64.7403 442.45 53.9951 455.705 53.9951C456.379 53.9951 457.046 54.0229 457.705 54.0773L457.705 101.913C457.046 101.967 456.379 101.995 455.705 101.995Z" fill="white"/>
<path d="M457.705 54.0773L458.034 50.0908L461.705 50.3937V54.0773L457.705 54.0773ZM457.705 101.913H461.705V105.597L458.034 105.899L457.705 101.913ZM435.705 77.9951C435.705 89.0408 444.659 97.9951 455.705 97.9951V105.995C440.241 105.995 427.705 93.4591 427.705 77.9951H435.705ZM455.705 57.9951C444.659 57.9951 435.705 66.9494 435.705 77.9951H427.705C427.705 62.5311 440.241 49.9951 455.705 49.9951V57.9951ZM457.376 58.0637C456.826 58.0183 456.269 57.9951 455.705 57.9951V49.9951C456.489 49.9951 457.265 50.0274 458.034 50.0908L457.376 58.0637ZM461.705 54.0773L461.705 101.913H453.705L453.705 54.0773L461.705 54.0773ZM455.705 97.9951C456.269 97.9951 456.826 97.9719 457.376 97.9265L458.034 105.899C457.265 105.963 456.489 105.995 455.705 105.995V97.9951Z" fill="#07162D" mask="url(#path-235-inside-3_286_344)"/>
</g>
<path d="M469.598 85.8737C469.598 84.1524 468.138 82.7521 466.344 82.7521C465.583 82.7521 464.884 83.0056 464.33 83.4266C464.198 83.5262 464.076 83.6356 463.962 83.7531C462.816 82.8406 461.881 81.3816 461.426 79.8985C461.356 79.6716 461.297 79.4443 461.251 79.2181H467.85C468.336 80.3567 469.502 81.1618 470.862 81.1618C472.657 81.1618 474.117 79.7614 474.117 78.0401C474.117 76.3189 472.657 74.9185 470.862 74.9185C469.502 74.9185 468.336 75.7235 467.85 76.8621H457.267C456.781 75.7235 455.615 74.9185 454.255 74.9185C452.46 74.9185 451 76.3188 451 78.0401C451 79.7614 452.46 81.1618 454.255 81.1618C455.615 81.1618 456.781 80.3567 457.267 79.2181H458.758C459.153 81.8674 460.819 84.6347 463.099 86.0645C463.203 87.6967 464.616 88.9953 466.344 88.9953C468.138 88.9954 469.598 87.595 469.598 85.8737ZM465.545 85.8737C465.545 85.8478 465.551 85.8235 465.553 85.7983C465.575 85.5865 465.686 85.4011 465.852 85.2755C465.988 85.1723 466.157 85.108 466.344 85.108C466.784 85.108 467.142 85.4515 467.142 85.8737C467.142 86.2959 466.784 86.6394 466.344 86.6394C465.904 86.6394 465.545 86.2959 465.545 85.8737ZM470.862 78.8058C470.422 78.8058 470.064 78.4623 470.064 78.0401C470.064 77.618 470.422 77.2745 470.862 77.2745C471.302 77.2745 471.661 77.618 471.661 78.0401C471.661 78.4623 471.302 78.8058 470.862 78.8058ZM454.255 77.2745C454.695 77.2745 455.053 77.618 455.053 78.0401C455.053 78.4623 454.695 78.8058 454.255 78.8058C453.815 78.8058 453.456 78.4623 453.456 78.0401C453.456 77.618 453.815 77.2745 454.255 77.2745Z" fill="#DE8B21"/>
<path d="M469.598 70.1214C469.598 71.8427 468.138 73.243 466.344 73.243C465.583 73.243 464.884 72.9895 464.33 72.5686C464.198 72.4689 464.076 72.3596 463.962 72.242C462.816 73.1545 461.881 74.6135 461.426 76.0966C461.356 76.3235 461.297 76.5508 461.251 76.777H467.85C468.336 75.6384 469.502 74.8334 470.862 74.8334C472.657 74.8334 474.117 76.2337 474.117 77.955C474.117 79.6762 472.657 81.0767 470.862 81.0767C469.502 81.0767 468.336 80.2716 467.85 79.133H457.267C456.781 80.2716 455.615 81.0767 454.255 81.0767C452.46 81.0767 451 79.6763 451 77.955C451 76.2337 452.46 74.8334 454.255 74.8334C455.615 74.8334 456.781 75.6384 457.267 76.777H458.758C459.153 74.1277 460.819 71.3604 463.099 69.9306C463.203 68.2984 464.616 66.9998 466.344 66.9998C468.138 66.9997 469.598 68.4001 469.598 70.1214ZM465.545 70.1214C465.545 70.1473 465.551 70.1716 465.553 70.1968C465.575 70.4086 465.686 70.594 465.852 70.7196C465.988 70.8228 466.157 70.8871 466.344 70.8871C466.784 70.8871 467.142 70.5436 467.142 70.1214C467.142 69.6992 466.784 69.3557 466.344 69.3557C465.904 69.3557 465.545 69.6992 465.545 70.1214ZM470.862 77.1893C470.422 77.1893 470.064 77.5328 470.064 77.955C470.064 78.3772 470.422 78.7207 470.862 78.7207C471.302 78.7207 471.661 78.3772 471.661 77.955C471.661 77.5328 471.302 77.1893 470.862 77.1893ZM454.255 78.7207C454.695 78.7207 455.053 78.3772 455.053 77.955C455.053 77.5328 454.695 77.1893 454.255 77.1893C453.815 77.1893 453.456 77.5328 453.456 77.955C453.456 78.3772 453.815 78.7207 454.255 78.7207Z" fill="#DE8B21"/>
<defs>
<clipPath id="clip0_286_344">
<rect width="41" height="41" fill="white" transform="matrix(0 -1 1 0 416 98)"/>
</clipPath>
</defs>
</svg>
