<svg width="730" height="125" viewBox="0 0 730 125" fill="none" xmlns="http://www.w3.org/2000/svg">
<path fill-rule="evenodd" clip-rule="evenodd" d="M82.0278 28.6166L85.9548 42.681C69.2002 43.6376 56.1897 47.2703 41.363 55.1318L37.436 41.0674C52.2525 33.1696 65.2812 29.5317 82.0278 28.6166Z" fill="#07182C"/>
<path fill-rule="evenodd" clip-rule="evenodd" d="M25.2824 65.6601L18.0228 39.6604L53.6219 11.2795L98.7955 17.1073L86.9048 26.5896C66.6343 27.6392 50.9879 32.008 33.1058 41.6112L21.4322 40.1007L28.3312 64.8088C29.9847 65.009 31.4512 66.1743 31.9242 67.8681L34.8859 78.4755L26.7557 80.7456L23.7881 70.117C23.321 68.4444 23.9717 66.6879 25.2824 65.6601Z" fill="#07182C"/>
<path d="M24.3899 42.5594L35.2052 78.5771L25.3836 81.2166L15.3472 45.0701L24.3899 42.5594Z" fill="white"/>
<path d="M17.1296 39.4951L23.0766 40.2909L22.2808 46.3667L16.3338 45.5709L17.1296 39.4951Z" fill="white"/>
<path d="M51.3527 70.6163C51.3527 76.803 53.2204 81.764 56.9557 85.4993C60.691 89.2346 65.6812 91.1023 71.9262 91.1023C74.7277 91.1023 77.4417 90.7813 80.0681 90.1393C82.7528 89.4973 84.9415 88.7969 86.6341 88.0382L87.422 99.5944C85.1458 100.236 82.5778 100.791 79.7179 101.258C76.858 101.783 73.8231 102.046 70.613 102.046C60.049 102.046 51.7321 99.3025 45.6621 93.8163C39.5922 88.2716 36.5573 80.6259 36.5573 70.879C36.5573 61.0737 39.6214 53.3112 45.7497 47.5915C51.878 41.8134 60.1074 38.9244 70.4379 38.9244C74.0565 38.9244 77.3249 39.2745 80.2432 39.9749C83.1614 40.6169 85.496 41.2589 87.2469 41.901L86.1088 53.8073C84.0661 52.5233 81.7607 51.5603 79.1926 50.9183C76.6246 50.2179 73.9982 49.8677 71.3134 49.8677C65.3602 49.8677 60.5451 51.7938 56.8681 55.6458C53.1912 59.4979 51.3527 64.4881 51.3527 70.6163ZM122.131 82.1725V81.122C121.722 81.2971 120.993 81.3846 119.942 81.3846C118.892 81.3846 117.608 81.4138 116.09 81.4722C112.413 81.5305 109.67 82.085 107.861 83.1355C106.11 84.1277 105.234 85.616 105.234 87.6004C105.234 89.1179 105.818 90.3436 106.985 91.2774C108.153 92.1529 109.845 92.5906 112.063 92.5906C115.098 92.5906 117.52 91.4817 119.329 89.2638C121.197 87.046 122.131 84.6822 122.131 82.1725ZM122.744 93.7287C121.051 96.5886 118.95 98.6897 116.44 100.032C113.989 101.374 111.304 102.046 108.386 102.046C103.367 102.046 99.4271 100.82 96.5672 98.3687C93.7074 95.859 92.2774 92.649 92.2774 88.7386C92.2774 83.9527 94.1451 80.3049 97.8805 77.7952C101.674 75.2271 107.16 73.9139 114.339 73.8556L122.131 73.9431C122.131 71.0249 121.197 68.9821 119.329 67.8148C117.52 66.6475 115.01 66.0639 111.8 66.0639C109.291 66.0639 106.752 66.4725 104.184 67.2896C101.674 68.1067 99.5147 69.1864 97.7054 70.5288L97.4427 60.0232C99.1937 59.0893 101.645 58.3014 104.797 57.6594C108.007 56.959 111.158 56.6088 114.252 56.6088C121.314 56.6088 126.508 58.1263 129.835 61.1613C133.22 64.1379 134.913 68.8946 134.913 75.4314V88.0382C134.913 91.5401 135 94.5166 135.175 96.968C135.409 99.4193 135.613 100.645 135.788 100.645L135.963 100.82L123.532 100.995C123.298 100.995 123.123 100.295 123.006 98.894C122.89 97.4932 122.802 95.7715 122.744 93.7287ZM217.912 100.995H204.255V76.8322C204.255 73.7972 203.671 71.521 202.504 70.0035C201.395 68.4277 199.615 67.6397 197.163 67.6397C194.304 67.6397 192.202 68.7779 190.86 71.0541C189.518 73.3303 188.817 76.6863 188.759 81.122V100.995H174.927V76.8322C174.927 73.7972 174.43 71.521 173.438 70.0035C172.446 68.4277 170.812 67.6397 168.536 67.6397C165.501 67.6397 163.224 68.807 161.707 71.1416C160.248 73.4178 159.46 76.7154 159.343 81.0344V100.995H145.686V57.6594H158.468V65.1009C160.102 62.3577 162.145 60.2566 164.596 58.7975C167.047 57.3384 170.082 56.6088 173.701 56.6088C177.086 56.6088 179.975 57.4259 182.368 59.0601C184.819 60.636 186.483 62.7079 187.358 65.276C188.642 62.8247 190.539 60.7819 193.049 59.1477C195.558 57.4551 198.798 56.6088 202.766 56.6088C208.019 56.6088 211.842 58.0679 214.235 60.9862C216.686 63.9044 217.912 68.3109 217.912 74.2058V100.995ZM242.011 95.0419V119.468H228.353V57.6594H241.223V65.1009C243.207 61.8325 245.483 59.6146 248.051 58.4473C250.678 57.2217 253.509 56.6088 256.543 56.6088C262.555 56.6088 267.312 58.6808 270.814 62.8247C274.316 66.9686 276.066 72.484 276.066 79.371C276.066 86.1997 274.199 91.686 270.463 95.8298C266.786 99.9737 261.913 102.046 255.843 102.046C253.275 102.046 250.707 101.52 248.139 100.47C245.629 99.4193 243.587 97.61 242.011 95.0419ZM242.011 79.5461C242.069 82.8729 243.003 85.7036 244.812 88.0382C246.68 90.3728 249.102 91.5401 252.079 91.5401C254.997 91.5401 257.361 90.4019 259.17 88.1257C260.979 85.7911 261.884 82.8145 261.884 79.1959C261.884 75.519 261.008 72.6007 259.257 70.4412C257.506 68.2818 255.114 67.202 252.079 67.202C249.219 67.202 246.855 68.2818 244.987 70.4412C243.12 72.6007 242.127 75.3147 242.011 78.5831V79.5461ZM329.183 57.6594V100.995H316.576V93.291C315.292 95.6839 313.278 97.7559 310.535 99.5068C307.851 101.199 304.699 102.046 301.08 102.046C295.652 102.046 291.479 100.528 288.561 97.4932C285.701 94.3999 284.271 89.9934 284.271 84.2737V57.6594H297.929V80.159C297.929 83.8359 298.541 86.5791 299.767 88.3884C300.993 90.1393 303.006 91.0148 305.808 91.0148C308.784 91.0148 311.119 89.8767 312.812 87.6004C314.562 85.2659 315.496 81.9099 315.613 77.5325V57.6594H329.183ZM372.844 87.7755C372.844 92.328 371.064 95.859 367.504 98.3687C363.943 100.82 359.041 102.046 352.796 102.046C349.936 102.046 347.164 101.841 344.479 101.433C341.794 101.024 339.605 100.499 337.913 99.857L338.788 89.4389C339.489 89.7307 341.123 90.3144 343.691 91.1899C346.317 92.0653 349.09 92.5031 352.008 92.5031C354.167 92.5031 355.86 92.2112 357.086 91.6276C358.37 90.9856 359.012 89.9058 359.012 88.3884C359.012 87.1043 358.34 86.083 356.998 85.3242C355.714 84.5655 353.409 83.7776 350.082 82.9605C346.58 82.2601 343.603 80.9761 341.152 79.1084C338.759 77.1824 337.563 74.2641 337.563 70.3537C337.563 65.9764 339.372 62.5912 342.991 60.1983C346.609 57.8053 351.162 56.6088 356.648 56.6088C359.099 56.6088 361.58 56.8423 364.089 57.3092C366.599 57.7178 368.7 58.1847 370.393 58.71L369.517 68.6028C368.175 67.844 366.424 67.2312 364.265 66.7643C362.163 66.2974 360.091 66.0639 358.049 66.0639C355.656 66.0639 353.876 66.3849 352.708 67.0269C351.541 67.6106 350.957 68.5152 350.957 69.7409C350.957 70.7331 351.599 71.5502 352.883 72.1922C354.167 72.8342 356.794 73.6513 360.763 74.6435C364.965 75.6941 368.029 77.2991 369.955 79.4586C371.881 81.5597 372.844 84.332 372.844 87.7755ZM394.53 70.6163C394.53 76.803 396.397 81.764 400.133 85.4993C403.868 89.2346 408.858 91.1023 415.103 91.1023C417.905 91.1023 420.619 90.7813 423.245 90.1393C425.93 89.4973 428.119 88.7969 429.811 88.0382L430.599 99.5944C428.323 100.236 425.755 100.791 422.895 101.258C420.035 101.783 417 102.046 413.79 102.046C403.226 102.046 394.909 99.3025 388.839 93.8163C382.769 88.2716 379.734 80.6259 379.734 70.879C379.734 61.0737 382.798 53.3112 388.927 47.5915C395.055 41.8134 403.284 38.9244 413.615 38.9244C417.234 38.9244 420.502 39.2745 423.42 39.9749C426.338 40.6169 428.673 41.2589 430.424 41.901L429.286 53.8073C427.243 52.5233 424.938 51.5603 422.37 50.9183C419.802 50.2179 417.175 49.8677 414.49 49.8677C408.537 49.8677 403.722 51.7938 400.045 55.6458C396.368 59.4979 394.53 64.4881 394.53 70.6163ZM485.444 79.371C485.444 86.1997 483.138 91.686 478.528 95.8298C473.975 99.9737 467.964 102.046 460.493 102.046C453.022 102.046 446.981 99.9737 442.371 95.8298C437.818 91.686 435.542 86.1997 435.542 79.371C435.542 72.484 437.818 66.9686 442.371 62.8247C446.981 58.6808 453.022 56.6088 460.493 56.6088C467.964 56.6088 473.975 58.6808 478.528 62.8247C483.138 66.9686 485.444 72.484 485.444 79.371ZM471.174 79.371C471.174 75.3439 470.24 72.2214 468.372 70.0035C466.563 67.7273 463.936 66.5892 460.493 66.5892C457.049 66.5892 454.394 67.7273 452.526 70.0035C450.717 72.2214 449.812 75.3439 449.812 79.371C449.812 83.2815 450.746 86.3748 452.614 88.651C454.481 90.9272 457.108 92.0653 460.493 92.0653C463.878 92.0653 466.504 90.9272 468.372 88.651C470.24 86.3748 471.174 83.2815 471.174 79.371ZM538.733 100.995H525.076V76.9197C525.076 74.0599 524.434 71.8128 523.15 70.1786C521.866 68.486 519.998 67.6397 517.547 67.6397C514.337 67.6397 511.856 68.807 510.105 71.1416C508.413 73.4178 507.537 76.7446 507.479 81.122V100.995H493.822V57.6594H506.603V65.1009C508.296 62.3577 510.426 60.2566 512.994 58.7975C515.621 57.3384 518.802 56.6088 522.537 56.6088C527.79 56.6088 531.788 58.1555 534.531 61.2488C537.332 64.2838 538.733 68.6028 538.733 74.2058V100.995ZM594.476 100.995H580.819V76.9197C580.819 74.0599 580.177 71.8128 578.893 70.1786C577.609 68.486 575.741 67.6397 573.29 67.6397C570.08 67.6397 567.599 68.807 565.848 71.1416C564.156 73.4178 563.28 76.7446 563.222 81.122V100.995H549.564V57.6594H562.346V65.1009C564.039 62.3577 566.169 60.2566 568.737 58.7975C571.364 57.3384 574.544 56.6088 578.28 56.6088C583.533 56.6088 587.531 58.1555 590.274 61.2488C593.075 64.2838 594.476 68.6028 594.476 74.2058V100.995ZM643.828 99.5944C641.668 100.353 639.305 100.937 636.736 101.345C634.168 101.812 631.279 102.046 628.069 102.046C620.19 102.046 613.974 100.032 609.422 96.0049C604.928 91.9778 602.681 86.404 602.681 79.2835C602.681 72.3965 604.723 66.9102 608.809 62.8247C612.953 58.6808 618.439 56.6088 625.268 56.6088C632.855 56.6088 638.429 58.8851 641.989 63.4375C645.55 67.9899 647.33 74.2641 647.33 82.2601L647.417 83.3106H616.075C616.776 85.9954 617.768 87.9798 619.052 89.2638C621.328 91.4817 624.801 92.5906 629.47 92.5906C632.447 92.5906 635.307 92.2112 638.05 91.4525C640.851 90.6354 642.777 89.935 643.828 89.3514V99.5944ZM615.988 74.9937H633.847L634.81 75.0812C634.752 71.9879 633.935 69.6825 632.359 68.165C630.783 66.5892 628.536 65.8013 625.618 65.8013C622.466 65.8013 620.015 66.9977 618.264 69.3907C617.213 70.7331 616.455 72.6007 615.988 74.9937ZM690.055 90.2268L690.493 100.645C689.676 100.82 688.217 101.083 686.116 101.433C684.015 101.841 681.592 102.046 678.849 102.046C671.145 102.046 665.017 100.003 660.464 95.9174C655.97 91.7735 653.723 86.1413 653.723 79.0208C653.723 72.3673 655.97 66.9686 660.464 62.8247C665.017 58.6808 670.941 56.6088 678.236 56.6088C680.571 56.6088 682.76 56.8131 684.802 57.2217C686.904 57.5719 688.654 58.0679 690.055 58.71L689.005 69.0405C688.363 68.5736 687.225 68.1067 685.59 67.6397C683.956 67.1728 682.205 66.9394 680.338 66.9394C676.602 66.9394 673.596 68.0483 671.32 70.2662C669.102 72.484 667.993 75.4314 667.993 79.1084C667.993 82.9605 669.132 86.0246 671.408 88.3008C673.742 90.577 676.865 91.7151 680.775 91.7151C682.993 91.7151 684.948 91.5109 686.641 91.1023C688.392 90.6354 689.53 90.3436 690.055 90.2268ZM715.674 85.0616C715.674 87.4545 716.17 89.2638 717.163 90.4895C718.213 91.6568 719.731 92.2404 721.715 92.2404C722.941 92.2404 723.991 92.1237 724.867 91.8902C725.801 91.6568 726.501 91.4233 726.968 91.1899L727.318 100.995C726.618 101.229 725.363 101.462 723.554 101.695C721.803 101.929 719.935 102.046 717.951 102.046C712.698 102.046 708.729 100.762 706.044 98.1936C703.418 95.6256 702.105 91.8027 702.105 86.725V67.3771H693.35V58.0096L702.28 57.6594L702.805 47.9417L715.587 43.827L715.674 57.6594H726.705V67.3771H715.674V85.0616Z" fill="#081A2E"/>
<path d="M21.5517 54.6255V39.9951L23.5468 40.6601V54.6255H21.5517Z" fill="#DE8B21"/>
<path d="M17.8941 66.2633L21.5517 54.6255H23.5468V69.2559C23.1034 69.3667 23.5468 70.2534 19.5566 69.9209C17.4359 69.7442 17.5616 67.4825 17.8941 66.2633Z" fill="#091A2E"/>
<ellipse cx="460.205" cy="77.9951" rx="26.5" ry="25" fill="white"/>
<circle cx="460.705" cy="77.9951" r="24" fill="#07162D"/>
<mask id="path-9-inside-1_286_344" fill="white">
<path fill-rule="evenodd" clip-rule="evenodd" d="M460.705 101.995C473.96 101.995 484.705 91.25 484.705 77.9951C484.705 64.7403 473.96 53.9951 460.705 53.9951C460.032 53.9951 459.365 54.0229 458.705 54.0773L458.705 101.913C459.365 101.967 460.032 101.995 460.705 101.995Z"/>
</mask>
<path fill-rule="evenodd" clip-rule="evenodd" d="M460.705 101.995C473.96 101.995 484.705 91.25 484.705 77.9951C484.705 64.7403 473.96 53.9951 460.705 53.9951C460.032 53.9951 459.365 54.0229 458.705 54.0773L458.705 101.913C459.365 101.967 460.032 101.995 460.705 101.995Z" fill="white"/>
<path d="M458.705 54.0773L458.376 50.0908L454.705 50.3937V54.0773L458.705 54.0773ZM458.705 101.913H454.705V105.597L458.376 105.899L458.705 101.913ZM480.705 77.9951C480.705 89.0408 471.751 97.9951 460.705 97.9951V105.995C476.169 105.995 488.705 93.4591 488.705 77.9951H480.705ZM460.705 57.9951C471.751 57.9951 480.705 66.9494 480.705 77.9951H488.705C488.705 62.5311 476.169 49.9951 460.705 49.9951V57.9951ZM459.034 58.0637C459.584 58.0183 460.142 57.9951 460.705 57.9951V49.9951C459.922 49.9951 459.145 50.0274 458.376 50.0908L459.034 58.0637ZM454.705 54.0773L454.705 101.913H462.705L462.705 54.0773L454.705 54.0773ZM460.705 97.9951C460.142 97.9951 459.584 97.9719 459.034 97.9265L458.376 105.899C459.145 105.963 459.922 105.995 460.705 105.995V97.9951Z" fill="#07162D" mask="url(#path-9-inside-1_286_344)"/>
<mask id="mask0_286_344" style="mask-type:alpha" maskUnits="userSpaceOnUse" x="421" y="57" width="41" height="41">
<g clip-path="url(#clip0_286_344)">
<path d="M421.082 96.3174V96.4814H427.955V96.3174H421.082Z" fill="#0071BC"/>
<path d="M428.362 95.9517C428.61 95.9517 428.81 96.1534 428.81 96.3994C428.81 96.6471 428.608 96.8472 428.362 96.8472C428.116 96.8472 427.914 96.6454 427.914 96.3994C427.914 96.1534 428.114 95.9517 428.362 95.9517ZM428.362 96.6864C428.521 96.6864 428.647 96.5585 428.647 96.4011C428.647 96.2453 428.519 96.1157 428.362 96.1157C428.205 96.1157 428.077 96.2453 428.077 96.4011C428.077 96.5585 428.205 96.6864 428.362 96.6864Z" fill="#0071BC"/>
<path d="M439.111 96.3193C439.358 96.3193 439.558 96.521 439.558 96.767C439.558 97.013 439.357 97.2114 439.111 97.2114C438.863 97.2114 438.661 97.0113 438.661 96.767C438.661 96.5193 438.863 96.3193 439.111 96.3193ZM439.111 97.0507C439.268 97.0507 439.396 96.9244 439.396 96.7686C439.396 96.6128 439.268 96.4833 439.111 96.4833C438.953 96.4833 438.825 96.6128 438.825 96.7686C438.825 96.9244 438.953 97.0507 439.111 97.0507Z" fill="#0071BC"/>
<path d="M431.903 94.494C432.15 94.494 432.35 94.6958 432.35 94.9418C432.35 95.1878 432.15 95.3911 431.903 95.3911C431.655 95.3911 431.457 95.1894 431.457 94.9434C431.457 94.6974 431.657 94.494 431.903 94.494ZM431.903 95.2288C432.06 95.2288 432.188 95.1008 432.188 94.9434C432.188 94.7843 432.062 94.658 431.903 94.658C431.747 94.658 431.619 94.7876 431.619 94.9434C431.619 95.1008 431.747 95.2288 431.903 95.2288Z" fill="#0071BC"/>
<path d="M435.375 96.3193C435.622 96.3193 435.822 96.521 435.822 96.767C435.822 97.013 435.621 97.2114 435.375 97.2114C435.129 97.2114 434.927 97.0113 434.927 96.767C434.927 96.5193 435.127 96.3193 435.375 96.3193ZM435.375 97.0507C435.534 97.0507 435.66 96.9244 435.66 96.7686C435.66 96.6128 435.532 96.4833 435.375 96.4833C435.217 96.4833 435.089 96.6128 435.089 96.7686C435.089 96.9244 435.216 97.0507 435.375 97.0507Z" fill="#0071BC"/>
<path d="M436.829 96.3193C437.077 96.3193 437.277 96.521 437.277 96.767C437.277 97.013 437.075 97.2114 436.829 97.2114C436.582 97.2114 436.382 97.0113 436.382 96.767C436.38 96.5193 436.582 96.3193 436.829 96.3193ZM436.829 97.0507C436.987 97.0507 437.115 96.9244 437.115 96.7686C437.115 96.6128 436.987 96.4833 436.829 96.4833C436.672 96.4833 436.544 96.6128 436.544 96.7686C436.544 96.9244 436.672 97.0507 436.829 97.0507Z" fill="#0071BC"/>
<path d="M436.829 92.6705C437.077 92.6705 437.277 92.8722 437.277 93.1182C437.277 93.3658 437.075 93.5659 436.829 93.5659C436.582 93.5659 436.382 93.3642 436.382 93.1182C436.38 92.8706 436.582 92.6705 436.829 92.6705ZM436.829 93.4036C436.987 93.4036 437.115 93.2756 437.115 93.1182C437.115 92.9624 436.987 92.8328 436.829 92.8328C436.672 92.8328 436.544 92.9624 436.544 93.1182C436.544 93.2756 436.672 93.4036 436.829 93.4036Z" fill="#0071BC"/>
<path d="M427.165 86.8383C427.412 86.8383 427.611 87.0384 427.611 87.2827C427.611 87.5304 427.411 87.7305 427.165 87.7305C426.919 87.7305 426.717 87.5287 426.717 87.2827C426.717 87.0367 426.919 86.8383 427.165 86.8383ZM427.165 87.5681C427.325 87.5681 427.448 87.4435 427.448 87.2827C427.448 87.1286 427.321 87.0007 427.165 87.0007C427.007 87.0007 426.879 87.1286 426.879 87.2827C426.879 87.4402 427.007 87.5681 427.165 87.5681Z" fill="#0071BC"/>
<path d="M424.846 87.2008C425.093 87.2008 425.294 87.4025 425.294 87.6485C425.294 87.8945 425.092 88.0962 424.846 88.0962C424.598 88.0962 424.4 87.8945 424.4 87.6485C424.4 87.4025 424.598 87.2008 424.846 87.2008ZM424.846 87.9355C425.005 87.9355 425.131 87.8108 425.131 87.6501C425.131 87.4927 425.003 87.3648 424.846 87.3648C424.69 87.3648 424.562 87.4943 424.562 87.6501C424.562 87.8076 424.69 87.9355 424.846 87.9355Z" fill="#0071BC"/>
<path d="M429.095 87.2008C429.341 87.2008 429.541 87.4025 429.541 87.6485C429.541 87.8945 429.341 88.0962 429.095 88.0962C428.847 88.0962 428.649 87.8945 428.649 87.6485C428.647 87.4025 428.847 87.2008 429.095 87.2008ZM429.095 87.9355C429.254 87.9355 429.379 87.8108 429.379 87.6501C429.379 87.4927 429.251 87.3648 429.095 87.3648C428.939 87.3648 428.811 87.4943 428.811 87.6501C428.81 87.8108 428.934 87.9355 429.095 87.9355Z" fill="#0071BC"/>
<path d="M429.033 88.662C429.28 88.662 429.479 88.8621 429.479 89.1065C429.479 89.3541 429.279 89.5542 429.033 89.5542C428.785 89.5542 428.587 89.3525 428.587 89.1065C428.587 88.8621 428.787 88.662 429.033 88.662ZM429.033 89.3935C429.192 89.3935 429.316 89.2688 429.316 89.1081C429.316 88.954 429.189 88.826 429.033 88.826C428.877 88.826 428.749 88.954 428.749 89.1081C428.749 89.2688 428.874 89.3935 429.033 89.3935Z" fill="#0071BC"/>
<path d="M435.742 88.662C435.988 88.662 436.188 88.8621 436.188 89.1065C436.188 89.3541 435.988 89.5542 435.742 89.5542C435.494 89.5542 435.294 89.3525 435.294 89.1065C435.293 88.8621 435.494 88.662 435.742 88.662ZM435.742 89.3935C435.898 89.3935 436.026 89.2656 436.026 89.1081C436.026 88.954 435.898 88.826 435.742 88.826C435.583 88.826 435.457 88.954 435.457 89.1081C435.455 89.2688 435.581 89.3935 435.742 89.3935Z" fill="#0071BC"/>
<path d="M433.946 86.8383C434.192 86.8383 434.394 87.0384 434.394 87.2827C434.394 87.5304 434.192 87.7305 433.946 87.7305C433.699 87.7305 433.498 87.5287 433.498 87.2827C433.497 87.0367 433.699 86.8383 433.946 86.8383ZM433.946 87.5681C434.104 87.5681 434.232 87.4402 434.232 87.2827C434.232 87.1286 434.104 87.0007 433.946 87.0007C433.787 87.0007 433.661 87.1286 433.661 87.2827C433.659 87.4402 433.787 87.5681 433.946 87.5681Z" fill="#0071BC"/>
<path d="M433.946 90.484C434.192 90.484 434.394 90.6857 434.394 90.9317C434.394 91.1793 434.192 91.3794 433.946 91.3794C433.699 91.3794 433.498 91.1777 433.498 90.9317C433.497 90.684 433.699 90.484 433.946 90.484ZM433.946 91.217C434.104 91.217 434.232 91.0891 434.232 90.9317C434.232 90.7759 434.104 90.6463 433.946 90.6463C433.787 90.6463 433.661 90.7759 433.661 90.9317C433.659 91.0891 433.787 91.217 433.946 91.217Z" fill="#0071BC"/>
<path d="M445.839 90.12C446.087 90.12 446.287 90.3218 446.287 90.5678C446.287 90.8138 446.087 91.0122 445.839 91.0122C445.593 91.0122 445.392 90.8121 445.392 90.5678C445.39 90.3218 445.592 90.12 445.839 90.12ZM445.839 90.8515C445.999 90.8515 446.125 90.7252 446.125 90.5694C446.125 90.4136 445.999 90.284 445.839 90.284C445.682 90.284 445.554 90.4136 445.554 90.5694C445.554 90.7252 445.682 90.8515 445.839 90.8515Z" fill="#0071BC"/>
<path d="M432.729 90.12C432.975 90.12 433.175 90.3201 433.175 90.5645C433.175 90.8121 432.975 91.0122 432.729 91.0122C432.482 91.0122 432.282 90.8105 432.282 90.5645C432.282 90.3201 432.482 90.12 432.729 90.12ZM432.729 90.8515C432.885 90.8515 433.013 90.7236 433.013 90.5661C433.013 90.412 432.885 90.284 432.729 90.284C432.57 90.284 432.444 90.412 432.444 90.5661C432.444 90.7268 432.57 90.8515 432.729 90.8515Z" fill="#0071BC"/>
<path d="M442.684 91.5781C442.93 91.5781 443.132 91.7798 443.132 92.0258C443.132 92.2718 442.93 92.4702 442.684 92.4702C442.438 92.4702 442.236 92.2701 442.236 92.0258C442.235 91.7798 442.436 91.5781 442.684 91.5781ZM442.684 92.3095C442.843 92.3095 442.969 92.1832 442.969 92.0274C442.969 91.8716 442.843 91.7421 442.684 91.7421C442.525 91.7421 442.399 91.8716 442.399 92.0274C442.399 92.1832 442.525 92.3095 442.684 92.3095Z" fill="#0071BC"/>
<path d="M445.098 91.5781C445.344 91.5781 445.548 91.7798 445.548 92.0258C445.548 92.2718 445.346 92.4702 445.098 92.4702C444.851 92.4702 444.65 92.2701 444.65 92.0258C444.65 91.7798 444.852 91.5781 445.098 91.5781ZM445.098 92.3095C445.257 92.3095 445.384 92.1832 445.384 92.0274C445.384 91.8716 445.257 91.7421 445.098 91.7421C444.939 91.7421 444.813 91.8716 444.813 92.0274C444.814 92.1832 444.941 92.3095 445.098 92.3095Z" fill="#0071BC"/>
<path d="M455.191 88.662C455.437 88.662 455.638 88.8621 455.638 89.1065C455.638 89.3541 455.437 89.5542 455.191 89.5542C454.945 89.5542 454.741 89.3525 454.741 89.1065C454.741 88.8621 454.943 88.662 455.191 88.662ZM455.191 89.3935C455.35 89.3935 455.476 89.2639 455.476 89.1081C455.476 88.9523 455.35 88.826 455.191 88.826C455.032 88.826 454.905 88.9523 454.905 89.1081C454.905 89.2639 455.032 89.3935 455.191 89.3935Z" fill="#0071BC"/>
<path d="M443.05 87.2008C443.297 87.2008 443.498 87.4025 443.498 87.6485C443.498 87.8945 443.297 88.0962 443.05 88.0962C442.804 88.0962 442.602 87.8945 442.602 87.6485C442.602 87.4025 442.804 87.2008 443.05 87.2008ZM443.05 87.9355C443.209 87.9355 443.335 87.8076 443.335 87.6501C443.335 87.4927 443.209 87.3648 443.05 87.3648C442.892 87.3648 442.764 87.4943 442.764 87.6501C442.764 87.8076 442.894 87.9355 443.05 87.9355Z" fill="#0071BC"/>
<path d="M452.158 90.12C452.406 90.12 452.606 90.3201 452.606 90.5645C452.606 90.8121 452.406 91.0122 452.158 91.0122C451.912 91.0122 451.712 90.8105 451.712 90.5645C451.712 90.3201 451.912 90.12 452.158 90.12ZM452.158 90.8515C452.317 90.8515 452.445 90.7219 452.445 90.5661C452.445 90.4103 452.317 90.284 452.158 90.284C452.001 90.284 451.873 90.4103 451.873 90.5661C451.873 90.7219 452.001 90.8515 452.158 90.8515Z" fill="#0071BC"/>
<path d="M457.828 90.12C458.075 90.12 458.276 90.3201 458.276 90.5645C458.276 90.8121 458.075 91.0122 457.828 91.0122C457.582 91.0122 457.378 90.8105 457.378 90.5645C457.38 90.3201 457.582 90.12 457.828 90.12ZM457.828 90.8515C457.987 90.8515 458.115 90.7219 458.115 90.5661C458.115 90.4103 457.987 90.284 457.828 90.284C457.67 90.284 457.542 90.4103 457.542 90.5661C457.542 90.7219 457.67 90.8515 457.828 90.8515Z" fill="#0071BC"/>
<path d="M441.5 94.494C441.748 94.494 441.948 94.6958 441.948 94.9418C441.948 95.1878 441.748 95.3911 441.5 95.3911C441.252 95.3911 441.052 95.1894 441.052 94.9434C441.052 94.6974 441.252 94.494 441.5 94.494ZM441.5 95.2288C441.657 95.2288 441.785 95.1008 441.785 94.9434C441.785 94.7876 441.657 94.658 441.5 94.658C441.343 94.658 441.215 94.7876 441.215 94.9434C441.215 95.1008 441.343 95.2288 441.5 95.2288Z" fill="#0071BC"/>
<path d="M447.115 92.6705C447.361 92.6705 447.563 92.8722 447.563 93.1182C447.563 93.3658 447.361 93.5659 447.115 93.5659C446.869 93.5659 446.668 93.3642 446.668 93.1182C446.666 92.8706 446.868 92.6705 447.115 92.6705ZM447.115 93.4036C447.274 93.4036 447.401 93.2756 447.401 93.1182C447.401 92.9624 447.274 92.8328 447.115 92.8328C446.956 92.8328 446.83 92.9624 446.83 93.1182C446.83 93.2756 446.956 93.4036 447.115 93.4036Z" fill="#0071BC"/>
<path d="M448.381 94.4941C448.627 94.4941 448.829 94.6958 448.829 94.9418C448.829 95.1878 448.627 95.3862 448.381 95.3862C448.134 95.3862 447.934 95.1862 447.934 94.9418C447.934 94.6958 448.134 94.4941 448.381 94.4941ZM448.381 95.2255C448.539 95.2255 448.667 95.0992 448.667 94.9434C448.667 94.7876 448.539 94.6581 448.381 94.6581C448.222 94.6581 448.096 94.7876 448.096 94.9434C448.096 95.0992 448.224 95.2255 448.381 95.2255Z" fill="#0071BC"/>
<path d="M454.023 93.0361C454.269 93.0361 454.472 93.2378 454.472 93.4838C454.472 93.7281 454.271 93.9282 454.023 93.9282C453.775 93.9282 453.575 93.7281 453.575 93.4838C453.574 93.2378 453.774 93.0361 454.023 93.0361ZM454.023 93.7675C454.18 93.7675 454.308 93.6412 454.308 93.4854C454.308 93.328 454.18 93.2001 454.023 93.2001C453.864 93.2001 453.738 93.3296 453.738 93.4854C453.738 93.6412 453.864 93.7675 454.023 93.7675Z" fill="#0071BC"/>
<path d="M456.345 94.4941C456.591 94.4941 456.793 94.6958 456.793 94.9418C456.793 95.1878 456.591 95.3862 456.345 95.3862C456.099 95.3862 455.896 95.1862 455.896 94.9418C455.896 94.6958 456.098 94.4941 456.345 94.4941ZM456.345 95.2255C456.504 95.2255 456.631 95.0992 456.631 94.9434C456.631 94.7876 456.504 94.6581 456.345 94.6581C456.186 94.6581 456.06 94.7876 456.06 94.9434C456.06 95.0992 456.186 95.2255 456.345 95.2255Z" fill="#0071BC"/>
<path d="M461.552 91.5781C461.798 91.5781 462 91.7798 462 92.0258C462 92.2718 461.798 92.4702 461.552 92.4702C461.306 92.4702 461.103 92.2701 461.103 92.0258C461.103 91.7798 461.305 91.5781 461.552 91.5781ZM461.552 92.3095C461.711 92.3095 461.838 92.1832 461.838 92.0274C461.838 91.8683 461.713 91.7421 461.552 91.7421C461.395 91.7421 461.267 91.8716 461.267 92.0274C461.267 92.1832 461.395 92.3095 461.552 92.3095Z" fill="#0071BC"/>
<path d="M447.847 95.9517C448.094 95.9517 448.296 96.1534 448.296 96.3994C448.296 96.6471 448.096 96.8472 447.847 96.8472C447.601 96.8472 447.399 96.6454 447.399 96.3994C447.399 96.1534 447.601 95.9517 447.847 95.9517ZM447.847 96.6864C448.006 96.6864 448.132 96.5585 448.132 96.4011C448.132 96.2453 448.006 96.1157 447.847 96.1157C447.689 96.1157 447.561 96.2453 447.561 96.4011C447.561 96.5585 447.689 96.6864 447.847 96.6864Z" fill="#0071BC"/>
<path d="M459.937 95.9517C460.185 95.9517 460.385 96.1534 460.385 96.3994C460.385 96.6471 460.185 96.8472 459.937 96.8472C459.691 96.8472 459.489 96.6454 459.489 96.3994C459.489 96.1534 459.691 95.9517 459.937 95.9517ZM459.937 96.6864C460.096 96.6864 460.222 96.5569 460.222 96.4011C460.222 96.2453 460.096 96.1157 459.937 96.1157C459.779 96.1157 459.652 96.2453 459.652 96.4011C459.652 96.5569 459.779 96.6864 459.937 96.6864Z" fill="#0071BC"/>
<path d="M446.325 94.4941C446.571 94.4941 446.773 94.6958 446.773 94.9418C446.773 95.1878 446.571 95.3862 446.325 95.3862C446.079 95.3862 445.876 95.1862 445.876 94.9418C445.877 94.6958 446.079 94.4941 446.325 94.4941ZM446.325 95.2255C446.484 95.2255 446.61 95.0992 446.61 94.9434C446.61 94.7876 446.484 94.6581 446.325 94.6581C446.166 94.6581 446.04 94.7876 446.04 94.9434C446.041 95.0992 446.167 95.2255 446.325 95.2255Z" fill="#0071BC"/>
<path d="M441.338 93.0361C441.585 93.0361 441.785 93.2378 441.785 93.4838C441.785 93.7281 441.584 93.9282 441.338 93.9282C441.092 93.9282 440.89 93.7281 440.89 93.4838C440.888 93.2378 441.09 93.0361 441.338 93.0361ZM441.338 93.7675C441.495 93.7675 441.623 93.6412 441.623 93.4854C441.623 93.328 441.495 93.2001 441.338 93.2001C441.18 93.2001 441.052 93.3296 441.052 93.4854C441.052 93.6412 441.18 93.7675 441.338 93.7675Z" fill="#0071BC"/>
<path d="M426.502 93.0361C426.748 93.0361 426.948 93.2378 426.948 93.4838C426.948 93.7281 426.748 93.9282 426.502 93.9282C426.255 93.9282 426.054 93.7281 426.054 93.4838C426.054 93.2378 426.255 93.0361 426.502 93.0361ZM426.502 93.7675C426.658 93.7675 426.786 93.6412 426.786 93.4854C426.786 93.328 426.658 93.2001 426.502 93.2001C426.341 93.2001 426.217 93.3263 426.217 93.4854C426.217 93.6412 426.343 93.7675 426.502 93.7675Z" fill="#0071BC"/>
<path d="M421.082 94.8611V95.0234H431.598V94.8611H421.082Z" fill="#0071BC"/>
<path d="M421.082 93.4036V93.5659H426.135V93.4036H421.082Z" fill="#0071BC"/>
<path d="M421.082 91.9455H429.6V93.4034H435.455V96.4014H435.293V93.5658H429.438V92.1078H421.082V91.9455Z" fill="#0071BC"/>
<path d="M421.082 90.4842H432.036V91.9455H438.008V93.4034H440.662V95.0238H439.191V96.4014H439.029V94.8614H440.5V93.5658H437.844V92.1078H431.873V90.6466H421.082V90.4842Z" fill="#0071BC"/>
<path d="M427.084 87.6502H427.247V89.1885H421.082V89.0261H427.084V87.6502Z" fill="#0071BC"/>
<path d="M429.351 89.0261V89.1885H435.375V89.0261H429.351Z" fill="#0071BC"/>
<path d="M433.061 90.4843H439.558V91.9456H442.317V92.1079H439.396V90.6467H433.061V90.4843Z" fill="#0071BC"/>
<path d="M447.033 93.4852H447.197V96.4814H444.431V95.0235H441.858V94.8611H444.593V96.3191H447.033V93.4852Z" fill="#0071BC"/>
<path d="M441.705 93.4031H445.293V94.8611H445.959V95.0234H445.129V93.5655H441.705V93.4031Z" fill="#0071BC"/>
<path d="M448.242 89.0264H454.823V89.1887H448.406V90.4843H450.259V92.1079H445.466V91.9456H450.097V90.6467H448.242V89.0264Z" fill="#0071BC"/>
<path d="M452.527 90.4843H454.412V91.9456H455.679V90.4876H457.46V90.6499H455.84V92.1079H454.248V90.6467H452.527V90.4843Z" fill="#0071BC"/>
<path d="M452.078 94.8611H455.271V96.3191H459.571V96.4814H455.109V95.0235H452.24V96.4814H448.237V96.3191H452.078V94.8611Z" fill="#0071BC"/>
<path d="M451.151 93.4031H453.684V93.5655H451.314V95.0234H448.749V94.8611H451.151V93.4031Z" fill="#0071BC"/>
<path d="M457.803 91.9452H461.088V92.1075H457.967V93.4031H459.141V95.0234H456.711V94.8611H458.979V93.5655H457.803V91.9452Z" fill="#0071BC"/>
<path d="M421.082 87.5681V87.7305H424.482V87.5681H421.082Z" fill="#0071BC"/>
<path d="M432.946 86.1104H436.137V87.5683H439.132V89.0263H442.5V90.4875H445.466V90.6499H442.338V89.1887H438.969V87.7307H435.973V86.2727H433.108V87.7307H429.453V87.5683H432.946V86.1104Z" fill="#0071BC"/>
<path d="M436.749 93.4854V96.4014H436.911V93.4854H436.749Z" fill="#0071BC"/>
<path d="M433.864 87.6487V90.5679H434.027V87.6487H433.864Z" fill="#0071BC"/>
<path d="M447.012 86.1102H451.724V87.5682H456.28V89.0261H461.982V89.1885H456.117V87.7305H451.56V86.2726H447.176V87.7305H443.43V87.5682H447.012V86.1102Z" fill="#0071BC"/>
<path d="M448.153 87.5681V87.7305H450.453V87.5681H448.153Z" fill="#0071BC"/>
<path d="M455.834 61.7413C456.081 61.7413 456.283 61.943 456.283 62.189C456.283 62.435 456.083 62.6367 455.834 62.6367C455.588 62.6367 455.388 62.435 455.388 62.189C455.388 61.943 455.588 61.7413 455.834 61.7413ZM455.834 62.4744C455.993 62.4744 456.121 62.3481 456.121 62.189C456.121 62.0299 455.994 61.9036 455.834 61.9036C455.678 61.9036 455.55 62.0316 455.55 62.189C455.55 62.3481 455.679 62.4744 455.834 62.4744Z" fill="#0071BC"/>
<path d="M458.154 61.3739C458.4 61.3739 458.599 61.5756 458.599 61.8233C458.599 62.0709 458.4 62.271 458.154 62.271C457.907 62.271 457.705 62.0693 457.705 61.8233C457.705 61.5773 457.907 61.3739 458.154 61.3739ZM458.154 62.107C458.31 62.107 458.438 61.9807 458.438 61.8216C458.438 61.6626 458.31 61.5363 458.154 61.5363C457.995 61.5363 457.867 61.6626 457.867 61.8216C457.867 61.9824 457.995 62.107 458.154 62.107Z" fill="#0071BC"/>
<path d="M453.907 61.3739C454.154 61.3739 454.353 61.5756 454.353 61.8233C454.353 62.0709 454.154 62.271 453.907 62.271C453.661 62.271 453.459 62.0693 453.459 61.8233C453.459 61.5773 453.659 61.3739 453.907 61.3739ZM453.907 62.107C454.067 62.107 454.19 61.9824 454.19 61.8216C454.19 61.6626 454.064 61.5363 453.907 61.5363C453.751 61.5363 453.623 61.6626 453.623 61.8216C453.623 61.9824 453.748 62.107 453.907 62.107Z" fill="#0071BC"/>
<path d="M453.967 59.918C454.213 59.918 454.413 60.1181 454.413 60.3658C454.413 60.6118 454.213 60.8135 453.967 60.8135C453.721 60.8135 453.52 60.6118 453.52 60.3658C453.52 60.1181 453.72 59.918 453.967 59.918ZM453.967 60.6511C454.125 60.6511 454.251 60.5232 454.251 60.3658C454.251 60.205 454.128 60.0788 453.967 60.0788C453.807 60.0788 453.684 60.205 453.684 60.3658C453.684 60.5232 453.81 60.6511 453.967 60.6511Z" fill="#0071BC"/>
<path d="M447.26 59.918C447.506 59.918 447.709 60.1181 447.709 60.3658C447.709 60.6118 447.507 60.8135 447.26 60.8135C447.012 60.8135 446.814 60.6118 446.814 60.3658C446.812 60.1181 447.01 59.918 447.26 59.918ZM447.26 60.6511C447.417 60.6511 447.545 60.5232 447.545 60.3658C447.545 60.205 447.419 60.0788 447.26 60.0788C447.102 60.0788 446.974 60.2067 446.974 60.3658C446.974 60.5232 447.102 60.6511 447.26 60.6511Z" fill="#0071BC"/>
<path d="M449.054 61.7413C449.302 61.7413 449.503 61.943 449.503 62.189C449.503 62.435 449.303 62.6367 449.054 62.6367C448.808 62.6367 448.606 62.435 448.606 62.189C448.606 61.943 448.808 61.7413 449.054 61.7413ZM449.054 62.4744C449.213 62.4744 449.339 62.3481 449.339 62.189C449.339 62.0316 449.213 61.9036 449.054 61.9036C448.896 61.9036 448.768 62.0316 448.768 62.189C448.77 62.3481 448.898 62.4744 449.054 62.4744Z" fill="#0071BC"/>
<path d="M449.054 58.0909C449.302 58.0909 449.503 58.2926 449.503 58.5386C449.503 58.7862 449.303 58.9863 449.054 58.9863C448.808 58.9863 448.606 58.7862 448.606 58.5386C448.606 58.2926 448.808 58.0909 449.054 58.0909ZM449.054 58.8256C449.213 58.8256 449.339 58.6993 449.339 58.5402C449.339 58.3828 449.213 58.2549 449.054 58.2549C448.896 58.2549 448.768 58.3828 448.768 58.5402C448.77 58.6977 448.898 58.8256 449.054 58.8256Z" fill="#0071BC"/>
<path d="M437.161 58.4584C437.407 58.4584 437.608 58.6601 437.608 58.9061C437.608 59.1521 437.407 59.3506 437.161 59.3506C436.913 59.3506 436.713 59.1521 436.713 58.9061C436.713 58.6601 436.915 58.4584 437.161 58.4584ZM437.161 59.1899C437.318 59.1899 437.446 59.0619 437.446 58.9061C437.446 58.7487 437.318 58.6208 437.161 58.6208C437.001 58.6208 436.875 58.7487 436.875 58.9061C436.875 59.0619 437.003 59.1899 437.161 59.1899Z" fill="#0071BC"/>
<path d="M450.271 58.4584C450.518 58.4584 450.718 58.6601 450.718 58.9061C450.718 59.1537 450.518 59.3555 450.271 59.3555C450.025 59.3555 449.823 59.1554 449.823 58.9061C449.823 58.6601 450.023 58.4584 450.271 58.4584ZM450.271 59.1931C450.43 59.1931 450.556 59.0652 450.556 58.9061C450.556 58.747 450.431 58.6207 450.271 58.6207C450.115 58.6207 449.987 58.7487 449.987 58.9061C449.987 59.0652 450.115 59.1931 450.271 59.1931Z" fill="#0071BC"/>
<path d="M440.316 57.0002C440.564 57.0002 440.764 57.202 440.764 57.4496C440.764 57.694 440.562 57.894 440.316 57.894C440.07 57.894 439.868 57.694 439.868 57.4496C439.868 57.202 440.068 57.0002 440.316 57.0002ZM440.316 57.73C440.473 57.73 440.601 57.6038 440.601 57.448C440.601 57.2889 440.473 57.1626 440.316 57.1626C440.158 57.1626 440.031 57.2889 440.031 57.448C440.031 57.6038 440.158 57.73 440.316 57.73Z" fill="#0071BC"/>
<path d="M437.902 57.0002C438.149 57.0002 438.35 57.202 438.35 57.4496C438.35 57.694 438.148 57.894 437.902 57.894C437.654 57.894 437.452 57.694 437.452 57.4496C437.452 57.202 437.654 57.0002 437.902 57.0002ZM437.902 57.73C438.059 57.73 438.187 57.6038 438.187 57.448C438.187 57.2889 438.059 57.1626 437.902 57.1626C437.744 57.1626 437.616 57.2889 437.616 57.448C437.615 57.6038 437.744 57.73 437.902 57.73Z" fill="#0071BC"/>
<path d="M427.809 59.918C428.057 59.918 428.257 60.1181 428.257 60.3658C428.257 60.6118 428.055 60.8135 427.809 60.8135C427.563 60.8135 427.362 60.6118 427.362 60.3658C427.362 60.1181 427.562 59.918 427.809 59.918ZM427.809 60.6511C427.967 60.6511 428.095 60.5232 428.095 60.3658C428.095 60.2067 427.967 60.0788 427.809 60.0788C427.652 60.0788 427.524 60.2067 427.524 60.3658C427.526 60.5232 427.652 60.6511 427.809 60.6511Z" fill="#0071BC"/>
<path d="M439.95 61.3739C440.196 61.3739 440.398 61.5756 440.398 61.8233C440.398 62.0709 440.198 62.271 439.95 62.271C439.703 62.271 439.502 62.0693 439.502 61.8233C439.502 61.5773 439.703 61.3739 439.95 61.3739ZM439.95 62.107C440.108 62.107 440.236 61.9807 440.236 61.8216C440.236 61.6626 440.108 61.5363 439.95 61.5363C439.791 61.5363 439.665 61.6626 439.665 61.8216C439.663 61.9807 439.791 62.107 439.95 62.107Z" fill="#0071BC"/>
<path d="M430.84 58.4584C431.088 58.4584 431.288 58.6601 431.288 58.9061C431.288 59.1537 431.086 59.3555 430.84 59.3555C430.592 59.3555 430.392 59.1554 430.392 58.9061C430.392 58.6601 430.594 58.4584 430.84 58.4584ZM430.84 59.1931C430.997 59.1931 431.125 59.0652 431.125 58.9061C431.125 58.7487 430.997 58.6207 430.84 58.6207C430.683 58.6207 430.555 58.7487 430.555 58.9061C430.555 59.0652 430.683 59.1931 430.84 59.1931Z" fill="#0071BC"/>
<path d="M425.171 58.4584C425.418 58.4584 425.618 58.6601 425.618 58.9061C425.618 59.1537 425.417 59.3555 425.171 59.3555C424.923 59.3555 424.723 59.1554 424.723 58.9061C424.723 58.6601 424.925 58.4584 425.171 58.4584ZM425.171 59.1931C425.328 59.1931 425.456 59.0652 425.456 58.9061C425.456 58.7487 425.328 58.6207 425.171 58.6207C425.013 58.6207 424.885 58.7487 424.885 58.9061C424.887 59.0652 425.013 59.1931 425.171 59.1931Z" fill="#0071BC"/>
<path d="M455.753 60.2838H461.918V60.4461H455.916V61.8237H455.753V60.2838Z" fill="#0071BC"/>
<path d="M447.625 60.2834V60.4458H453.649V60.2834H447.625Z" fill="#0071BC"/>
<path d="M440.683 57.3675H443.604V58.8254H449.939V58.9878H443.442V57.5298H440.683V57.3675Z" fill="#0071BC"/>
<path d="M432.741 57.3675H437.534V57.5299H432.903V58.8255H434.758V60.4458H428.177V60.2834H434.594V58.9878H432.741V57.3675Z" fill="#0071BC"/>
<path d="M427.158 57.3675H428.751V58.8254H430.474V58.9878H428.588V57.5298H427.322V58.9878H425.538V58.8254H427.158V57.3675Z" fill="#0071BC"/>
<path d="M458.52 61.7398V61.9038H461.918V61.7398H458.52Z" fill="#0071BC"/>
<path d="M437.534 58.8256H440.662V60.2835H444.032V61.7415H447.025V63.2011H449.892V61.7415H453.547V61.9039H450.056V63.3618H446.864V61.9039H443.868V60.4459H440.5V58.9879H437.534V58.8256Z" fill="#0071BC"/>
<path d="M448.973 58.9078V61.8237H449.137V58.9078H448.973Z" fill="#0071BC"/>
<path d="M421.082 60.2835H426.929V61.7415H431.468V63.2011H435.837V61.7415H439.57V61.9039H435.999V63.3618H431.306V61.9039H426.765V60.4459H421.082V60.2835Z" fill="#0071BC"/>
<path d="M432.549 61.7398V61.9038H434.847V61.7398H432.549Z" fill="#0071BC"/>
<path d="M455.045 64.4522V64.6162H461.918V64.4522H455.045Z" fill="#0071BC"/>
<path d="M454.638 64.0849C454.886 64.0849 455.087 64.2866 455.087 64.5342C455.087 64.7819 454.887 64.9819 454.638 64.9819C454.392 64.9819 454.19 64.7819 454.19 64.5342C454.189 64.2882 454.39 64.0849 454.638 64.0849ZM454.638 64.8212C454.797 64.8212 454.925 64.6933 454.925 64.5342C454.925 64.3768 454.797 64.2489 454.638 64.2489C454.481 64.2489 454.353 64.3768 454.353 64.5342C454.353 64.6933 454.481 64.8212 454.638 64.8212Z" fill="#0071BC"/>
<path d="M443.889 63.7226C444.135 63.7226 444.337 63.9227 444.337 64.167C444.337 64.4147 444.137 64.6147 443.889 64.6147C443.642 64.6147 443.442 64.4147 443.442 64.167C443.442 63.9227 443.643 63.7226 443.889 63.7226ZM443.889 64.4524C444.05 64.4524 444.173 64.3277 444.173 64.167C444.173 64.0129 444.047 63.8849 443.889 63.8849C443.73 63.8849 443.604 64.0129 443.604 64.167C443.604 64.3261 443.73 64.4524 443.889 64.4524Z" fill="#0071BC"/>
<path d="M451.097 65.5448C451.345 65.5448 451.543 65.7449 451.543 65.9925C451.543 66.2385 451.345 66.4419 451.097 66.4419C450.851 66.4419 450.648 66.2402 450.648 65.9925C450.648 65.7449 450.85 65.5448 451.097 65.5448ZM451.097 66.2779C451.255 66.2779 451.381 66.15 451.381 65.9925C451.381 65.8335 451.255 65.7055 451.097 65.7055C450.94 65.7055 450.812 65.8335 450.812 65.9925C450.812 66.1516 450.938 66.2779 451.097 66.2779Z" fill="#0071BC"/>
<path d="M447.625 63.7226C447.871 63.7226 448.073 63.9227 448.073 64.167C448.073 64.4147 447.871 64.6147 447.625 64.6147C447.378 64.6147 447.178 64.4147 447.178 64.167C447.178 63.9227 447.378 63.7226 447.625 63.7226ZM447.625 64.4524C447.783 64.4524 447.911 64.3261 447.911 64.167C447.911 64.0129 447.783 63.8849 447.625 63.8849C447.466 63.8849 447.338 64.0129 447.338 64.167C447.338 64.3261 447.468 64.4524 447.625 64.4524Z" fill="#0071BC"/>
<path d="M455.834 73.205C456.081 73.205 456.283 73.4051 456.283 73.6527C456.283 73.8971 456.083 74.0972 455.834 74.0972C455.588 74.0972 455.388 73.8987 455.388 73.6527C455.388 73.4051 455.588 73.205 455.834 73.205ZM455.834 73.9348C455.993 73.9348 456.121 73.8069 456.121 73.6527C456.121 73.4936 455.993 73.3657 455.834 73.3657C455.675 73.3657 455.55 73.492 455.55 73.6527C455.55 73.8069 455.679 73.9348 455.834 73.9348Z" fill="#0071BC"/>
<path d="M458.153 72.8394C458.399 72.8394 458.599 73.0395 458.599 73.2871C458.599 73.5331 458.399 73.7349 458.153 73.7349C457.905 73.7349 457.705 73.5348 457.705 73.2871C457.706 73.0379 457.905 72.8394 458.153 72.8394ZM458.153 73.5725C458.31 73.5725 458.438 73.4446 458.438 73.2871C458.438 73.1281 458.31 73.0001 458.153 73.0001C457.992 73.0001 457.867 73.1264 457.867 73.2871C457.867 73.4446 457.997 73.5725 458.153 73.5725Z" fill="#0071BC"/>
<path d="M453.907 72.8394C454.154 72.8394 454.353 73.0395 454.353 73.2871C454.353 73.5331 454.154 73.7349 453.907 73.7349C453.661 73.7349 453.457 73.5348 453.457 73.2871C453.457 73.0379 453.659 72.8394 453.907 72.8394ZM453.907 73.5725C454.064 73.5725 454.19 73.4446 454.19 73.2871C454.19 73.1264 454.067 73.0001 453.907 73.0001C453.749 73.0001 453.621 73.1281 453.621 73.2871C453.621 73.4446 453.749 73.5725 453.907 73.5725Z" fill="#0071BC"/>
<path d="M453.967 71.3798C454.213 71.3798 454.413 71.5815 454.413 71.8275C454.413 72.0735 454.213 72.272 453.967 72.272C453.721 72.272 453.518 72.0735 453.518 71.8275C453.518 71.5815 453.72 71.3798 453.967 71.3798ZM453.967 72.1096C454.125 72.1096 454.251 71.9833 454.251 71.8275C454.251 71.6685 454.128 71.5422 453.967 71.5422C453.808 71.5422 453.682 71.6701 453.682 71.8275C453.682 71.9833 453.808 72.1096 453.967 72.1096Z" fill="#0071BC"/>
<path d="M447.26 71.3798C447.506 71.3798 447.709 71.5815 447.709 71.8275C447.709 72.0735 447.507 72.272 447.26 72.272C447.012 72.272 446.814 72.0735 446.814 71.8275C446.812 71.5815 447.01 71.3798 447.26 71.3798ZM447.26 72.1096C447.417 72.1096 447.545 71.9833 447.545 71.8275C447.545 71.6685 447.419 71.5422 447.26 71.5422C447.099 71.5422 446.974 71.6685 446.974 71.8275C446.974 71.9833 447.102 72.1096 447.26 72.1096Z" fill="#0071BC"/>
<path d="M449.054 73.205C449.301 73.205 449.502 73.4051 449.502 73.6527C449.502 73.8971 449.303 74.0972 449.054 74.0972C448.808 74.0972 448.606 73.8987 448.606 73.6527C448.606 73.4051 448.808 73.205 449.054 73.205ZM449.054 73.9348C449.211 73.9348 449.338 73.8069 449.338 73.6527C449.338 73.492 449.215 73.3657 449.054 73.3657C448.896 73.3657 448.768 73.4936 448.768 73.6527C448.77 73.8069 448.898 73.9348 449.054 73.9348Z" fill="#0071BC"/>
<path d="M449.054 69.556C449.301 69.556 449.502 69.7561 449.502 70.0038C449.502 70.2498 449.303 70.4531 449.054 70.4531C448.808 70.4531 448.606 70.2514 448.606 70.0038C448.606 69.7561 448.808 69.556 449.054 69.556ZM449.054 70.2891C449.211 70.2891 449.338 70.1612 449.338 70.0038C449.338 69.843 449.215 69.7168 449.054 69.7168C448.896 69.7168 448.768 69.8447 448.768 70.0038C448.77 70.1612 448.898 70.2891 449.054 70.2891Z" fill="#0071BC"/>
<path d="M437.161 69.9216C437.407 69.9216 437.608 70.1201 437.608 70.3661C437.608 70.6121 437.407 70.8154 437.161 70.8154C436.913 70.8154 436.713 70.6137 436.713 70.3661C436.713 70.1184 436.915 69.9216 437.161 69.9216ZM437.161 70.6531C437.318 70.6531 437.446 70.5252 437.446 70.3677C437.446 70.2119 437.318 70.084 437.161 70.084C437.001 70.084 436.875 70.2119 436.875 70.3677C436.875 70.5235 437.003 70.6531 437.161 70.6531Z" fill="#0071BC"/>
<path d="M450.271 69.9216C450.518 69.9216 450.718 70.1217 450.718 70.3694C450.718 70.6137 450.518 70.8154 450.271 70.8154C450.025 70.8154 449.823 70.6154 449.823 70.3694C449.823 70.1217 450.023 69.9216 450.271 69.9216ZM450.271 70.6531C450.43 70.6531 450.556 70.5251 450.556 70.371C450.556 70.2119 450.43 70.084 450.271 70.084C450.112 70.084 449.987 70.2103 449.987 70.371C449.987 70.5235 450.115 70.6531 450.271 70.6531Z" fill="#0071BC"/>
<path d="M440.316 68.4638C440.564 68.4638 440.764 68.6622 440.764 68.9082C440.764 69.1559 440.562 69.356 440.316 69.356C440.07 69.356 439.868 69.1559 439.868 68.9082C439.868 68.6639 440.068 68.4638 440.316 68.4638ZM440.316 69.1952C440.473 69.1952 440.601 69.0673 440.601 68.9082C440.601 68.7541 440.473 68.6262 440.316 68.6262C440.158 68.6262 440.031 68.7541 440.031 68.9082C440.031 69.0673 440.158 69.1952 440.316 69.1952Z" fill="#0071BC"/>
<path d="M437.902 68.4638C438.149 68.4638 438.35 68.6622 438.35 68.9082C438.35 69.1559 438.148 69.356 437.902 69.356C437.654 69.356 437.452 69.1559 437.452 68.9082C437.452 68.6639 437.654 68.4638 437.902 68.4638ZM437.902 69.1952C438.059 69.1952 438.187 69.0673 438.187 68.9082C438.187 68.7541 438.059 68.6262 437.902 68.6262C437.744 68.6262 437.616 68.7541 437.616 68.9082C437.615 69.0673 437.744 69.1952 437.902 69.1952Z" fill="#0071BC"/>
<path d="M427.809 71.3798C428.057 71.3798 428.257 71.5815 428.257 71.8275C428.257 72.0735 428.055 72.272 427.809 72.272C427.563 72.272 427.362 72.0735 427.362 71.8275C427.362 71.5815 427.562 71.3798 427.809 71.3798ZM427.809 72.1096C427.967 72.1096 428.095 71.9833 428.095 71.8275C428.095 71.6701 427.967 71.5422 427.809 71.5422C427.652 71.5422 427.524 71.6701 427.524 71.8275C427.526 71.9833 427.652 72.1096 427.809 72.1096Z" fill="#0071BC"/>
<path d="M439.95 72.8394C440.196 72.8394 440.398 73.0395 440.398 73.2871C440.398 73.5331 440.198 73.7349 439.95 73.7349C439.703 73.7349 439.502 73.5348 439.502 73.2871C439.501 73.0379 439.703 72.8394 439.95 72.8394ZM439.95 73.5725C440.108 73.5725 440.236 73.4446 440.236 73.2871C440.236 73.1281 440.108 73.0001 439.95 73.0001C439.791 73.0001 439.665 73.1281 439.665 73.2871C439.663 73.4446 439.791 73.5725 439.95 73.5725Z" fill="#0071BC"/>
<path d="M430.84 69.9216C431.088 69.9216 431.288 70.1217 431.288 70.3694C431.288 70.6137 431.086 70.8154 430.84 70.8154C430.592 70.8154 430.392 70.6154 430.392 70.3694C430.392 70.1217 430.594 69.9216 430.84 69.9216ZM430.84 70.6531C430.997 70.6531 431.125 70.5251 431.125 70.371C431.125 70.2119 430.997 70.084 430.84 70.084C430.683 70.084 430.555 70.2119 430.555 70.371C430.555 70.5235 430.683 70.6531 430.84 70.6531Z" fill="#0071BC"/>
<path d="M425.171 69.9216C425.418 69.9216 425.618 70.1217 425.618 70.3694C425.618 70.6137 425.417 70.8154 425.171 70.8154C424.923 70.8154 424.723 70.6154 424.723 70.3694C424.723 70.1217 424.925 69.9216 425.171 69.9216ZM425.171 70.6531C425.328 70.6531 425.456 70.5251 425.456 70.371C425.456 70.2119 425.328 70.084 425.171 70.084C425.013 70.084 424.885 70.2119 424.885 70.371C424.887 70.5235 425.013 70.6531 425.171 70.6531Z" fill="#0071BC"/>
<path d="M441.5 65.5448C441.748 65.5448 441.948 65.7449 441.948 65.9925C441.948 66.2385 441.746 66.4419 441.5 66.4419C441.254 66.4419 441.052 66.2402 441.052 65.9925C441.052 65.7449 441.252 65.5448 441.5 65.5448ZM441.5 66.2779C441.657 66.2779 441.785 66.15 441.785 65.9925C441.785 65.8335 441.657 65.7055 441.5 65.7055C441.343 65.7055 441.215 65.8335 441.215 65.9925C441.215 66.15 441.343 66.2779 441.5 66.2779Z" fill="#0071BC"/>
<path d="M435.885 67.3685C436.132 67.3685 436.332 67.5703 436.332 67.8163C436.332 68.0623 436.131 68.2656 435.885 68.2656C435.639 68.2656 435.437 68.0639 435.437 67.8163C435.437 67.5686 435.637 67.3685 435.885 67.3685ZM435.885 68.1033C436.042 68.1033 436.17 67.977 436.17 67.8179C436.17 67.6605 436.042 67.5325 435.885 67.5325C435.727 67.5325 435.599 67.6605 435.599 67.8179C435.599 67.977 435.727 68.1033 435.885 68.1033Z" fill="#0071BC"/>
<path d="M434.619 65.5481C434.866 65.5481 435.066 65.7465 435.066 65.9925C435.066 66.2385 434.865 66.4419 434.619 66.4419C434.373 66.4419 434.171 66.2402 434.171 65.9925C434.171 65.7449 434.371 65.5481 434.619 65.5481ZM434.619 66.2779C434.776 66.2779 434.904 66.15 434.904 65.9925C434.904 65.8367 434.776 65.7088 434.619 65.7088C434.461 65.7088 434.333 65.8384 434.333 65.9942C434.333 66.15 434.461 66.2779 434.619 66.2779Z" fill="#0071BC"/>
<path d="M428.977 67.0061C429.225 67.0061 429.425 67.2062 429.425 67.4522C429.425 67.6982 429.223 67.8999 428.977 67.8999C428.731 67.8999 428.529 67.6982 428.529 67.4522C428.529 67.2062 428.731 67.0061 428.977 67.0061ZM428.977 67.7359C429.136 67.7359 429.262 67.6096 429.262 67.4505C429.262 67.2947 429.134 67.1685 428.977 67.1685C428.82 67.1685 428.692 67.2947 428.692 67.4505C428.692 67.6096 428.82 67.7359 428.977 67.7359Z" fill="#0071BC"/>
<path d="M426.655 65.5481C426.902 65.5481 427.102 65.7465 427.102 65.9925C427.102 66.2385 426.901 66.4419 426.655 66.4419C426.407 66.4419 426.207 66.2402 426.207 65.9925C426.207 65.7449 426.407 65.5481 426.655 65.5481ZM426.655 66.2779C426.812 66.2779 426.94 66.15 426.94 65.9925C426.94 65.8367 426.812 65.7088 426.655 65.7088C426.497 65.7088 426.369 65.8367 426.369 65.9925C426.369 66.15 426.497 66.2779 426.655 66.2779Z" fill="#0071BC"/>
<path d="M421.448 68.4638C421.695 68.4638 421.895 68.6622 421.895 68.9082C421.895 69.1559 421.694 69.356 421.448 69.356C421.202 69.356 421 69.1559 421 68.9082C421 68.6639 421.202 68.4638 421.448 68.4638ZM421.448 69.1952C421.605 69.1952 421.733 69.0673 421.733 68.9082C421.733 68.7541 421.605 68.6262 421.448 68.6262C421.29 68.6262 421.162 68.7541 421.162 68.9082C421.162 69.069 421.289 69.1952 421.448 69.1952Z" fill="#0071BC"/>
<path d="M435.153 64.0849C435.399 64.0849 435.601 64.2866 435.601 64.5342C435.601 64.7819 435.399 64.9819 435.153 64.9819C434.906 64.9819 434.705 64.7819 434.705 64.5342C434.704 64.2882 434.906 64.0849 435.153 64.0849ZM435.153 64.8212C435.311 64.8212 435.439 64.6933 435.439 64.5342C435.439 64.3768 435.311 64.2489 435.153 64.2489C434.994 64.2489 434.868 64.3768 434.868 64.5342C434.868 64.6933 434.994 64.8212 435.153 64.8212Z" fill="#0071BC"/>
<path d="M423.063 64.0849C423.311 64.0849 423.511 64.2866 423.511 64.5342C423.511 64.7819 423.309 64.9819 423.063 64.9819C422.817 64.9819 422.615 64.7819 422.615 64.5342C422.614 64.2882 422.815 64.0849 423.063 64.0849ZM423.063 64.8212C423.221 64.8212 423.348 64.6933 423.348 64.5342C423.348 64.3768 423.221 64.2489 423.063 64.2489C422.906 64.2489 422.778 64.3768 422.778 64.5342C422.778 64.6933 422.906 64.8212 423.063 64.8212Z" fill="#0071BC"/>
<path d="M436.675 65.5481C436.923 65.5481 437.123 65.7465 437.123 65.9925C437.123 66.2385 436.921 66.4419 436.675 66.4419C436.429 66.4419 436.227 66.2402 436.227 65.9925C436.227 65.7449 436.427 65.5481 436.675 65.5481ZM436.675 66.2779C436.833 66.2779 436.96 66.15 436.96 65.9925C436.96 65.8367 436.833 65.7088 436.675 65.7088C436.518 65.7088 436.39 65.8367 436.39 65.9925C436.388 66.15 436.516 66.2779 436.675 66.2779Z" fill="#0071BC"/>
<path d="M441.662 67.0061C441.91 67.0061 442.11 67.2062 442.11 67.4522C442.11 67.6982 441.908 67.8999 441.662 67.8999C441.416 67.8999 441.215 67.6982 441.215 67.4522C441.215 67.2062 441.415 67.0061 441.662 67.0061ZM441.662 67.7359C441.82 67.7359 441.948 67.6096 441.948 67.4505C441.948 67.2947 441.82 67.1685 441.662 67.1685C441.505 67.1685 441.377 67.2947 441.377 67.4505C441.377 67.6096 441.505 67.7359 441.662 67.7359Z" fill="#0071BC"/>
<path d="M456.499 67.0061C456.745 67.0061 456.947 67.2062 456.947 67.4522C456.947 67.6982 456.745 67.8999 456.499 67.8999C456.252 67.8999 456.052 67.6982 456.052 67.4522C456.052 67.2062 456.25 67.0061 456.499 67.0061ZM456.499 67.7359C456.657 67.7359 456.785 67.6096 456.785 67.4505C456.785 67.2947 456.657 67.1685 456.499 67.1685C456.342 67.1685 456.214 67.2947 456.214 67.4505C456.214 67.6113 456.339 67.7359 456.499 67.7359Z" fill="#0071BC"/>
<path d="M451.402 65.9104V66.0728H461.918V65.9104H451.402Z" fill="#0071BC"/>
<path d="M456.865 67.3682V67.5322H461.918V67.3682H456.865Z" fill="#0071BC"/>
<path d="M447.543 64.5344H447.707V67.3683H453.562V68.8279H461.918V68.9902H453.4V67.5323H447.543V64.5344Z" fill="#0071BC"/>
<path d="M443.807 64.5345H443.971V66.0729H442.5V67.3685H445.156V68.8281H451.127V70.2893H461.918V70.4517H450.964V68.9904H444.992V67.5325H442.338V65.9121H443.807V64.5345Z" fill="#0071BC"/>
<path d="M455.753 71.7455H461.918V71.9095H455.916V73.2871H455.753V71.7455Z" fill="#0071BC"/>
<path d="M447.625 71.7457V71.9097H453.649V71.7457H447.625Z" fill="#0071BC"/>
<path d="M440.683 68.8281H443.604V70.2893H449.939V70.4517H443.442V68.9904H440.683V68.8281Z" fill="#0071BC"/>
<path d="M435.803 64.4523H438.569V65.9119H441.142V66.0726H438.407V64.6163H435.967V67.4502H435.803V64.4523Z" fill="#0071BC"/>
<path d="M437.041 65.9119H437.871V67.3682H441.295V67.5322H437.708V66.0726H437.041V65.9119Z" fill="#0071BC"/>
<path d="M432.741 68.8281H437.534V68.9905H432.903V70.2893H434.758V71.9097H428.177V71.7457H434.594V70.4517H432.741V68.8281Z" fill="#0071BC"/>
<path d="M427.158 68.8281H428.751V70.2893H430.474V70.4517H428.588V68.9904H427.322V70.4484H425.538V70.286H427.158V68.8281Z" fill="#0071BC"/>
<path d="M423.429 64.4524H427.891V65.912H430.76V64.4524H434.763V64.6164H430.922V66.0728H427.729V64.6164H423.429V64.4524Z" fill="#0071BC"/>
<path d="M431.686 65.9119H434.251V66.0726H431.849V67.5322H429.318V67.3682H431.686V65.9119Z" fill="#0071BC"/>
<path d="M423.859 65.912H426.289V66.0727H424.021V67.3683H425.195V68.9902H421.91V68.8279H425.033V67.5323H423.859V65.912Z" fill="#0071BC"/>
<path d="M458.52 73.2053V73.3677H461.918V73.2053H458.52Z" fill="#0071BC"/>
<path d="M437.534 70.2857H440.662V71.7453H444.032V73.2049H447.025V74.6628H449.892V73.2049H453.547V73.3672H450.056V74.8252H446.864V73.3672H443.868V71.9093H440.5V70.448H437.534V70.2857Z" fill="#0071BC"/>
<path d="M446.171 63.7226C446.418 63.7226 446.617 63.9227 446.617 64.167C446.617 64.4147 446.418 64.6147 446.171 64.6147C445.925 64.6147 445.721 64.4147 445.721 64.167C445.721 63.9227 445.923 63.7226 446.171 63.7226ZM446.171 64.4524C446.331 64.4524 446.456 64.3277 446.456 64.167C446.456 64.0129 446.328 63.8849 446.171 63.8849C446.013 63.8849 445.885 64.0129 445.885 64.167C445.885 64.3261 446.013 64.4524 446.171 64.4524Z" fill="#0071BC"/>
<path d="M446.171 67.3685C446.418 67.3685 446.617 67.5703 446.617 67.8163C446.617 68.0623 446.418 68.2656 446.171 68.2656C445.925 68.2656 445.721 68.0639 445.721 67.8163C445.721 67.5686 445.923 67.3685 446.171 67.3685ZM446.171 68.1033C446.331 68.1033 446.456 67.9786 446.456 67.8179C446.456 67.6605 446.328 67.5325 446.171 67.5325C446.013 67.5325 445.885 67.6605 445.885 67.8179C445.885 67.977 446.013 68.1033 446.171 68.1033Z" fill="#0071BC"/>
<path d="M446.09 64.5348V67.4507H446.253V64.5348H446.09Z" fill="#0071BC"/>
<path d="M457.096 84.0009C457.344 84.0009 457.542 84.201 457.542 84.4453C457.542 84.693 457.344 84.8931 457.096 84.8931C456.85 84.8931 456.647 84.6913 456.647 84.4453C456.647 84.201 456.849 84.0009 457.096 84.0009ZM457.096 84.7307C457.257 84.7307 457.38 84.6044 457.38 84.4453C457.38 84.2912 457.254 84.1633 457.096 84.1633C456.939 84.1633 456.811 84.2912 456.811 84.4453C456.811 84.6044 456.939 84.7307 457.096 84.7307Z" fill="#0071BC"/>
<path d="M457.096 87.6485C457.344 87.6485 457.542 87.8502 457.542 88.0962C457.542 88.3439 457.344 88.5439 457.096 88.5439C456.85 88.5439 456.647 88.3422 456.647 88.0962C456.647 87.8486 456.849 87.6485 457.096 87.6485ZM457.096 88.3816C457.257 88.3816 457.38 88.2553 457.38 88.0962C457.38 87.9388 457.254 87.8109 457.096 87.8109C456.939 87.8109 456.811 87.9388 456.811 88.0962C456.811 88.2537 456.939 88.3816 457.096 88.3816Z" fill="#0071BC"/>
<path d="M457.014 84.8131V87.729H457.178V84.8131H457.014Z" fill="#0071BC"/>
<path d="M457.308 86.271C457.308 86.025 457.506 85.8249 457.752 85.8249C457.998 85.8249 458.198 86.025 458.198 86.271C458.198 86.5187 457.998 86.7188 457.752 86.7188C457.506 86.7188 457.308 86.5187 457.308 86.271ZM458.038 86.271C458.038 86.1119 457.911 85.9873 457.752 85.9873C457.597 85.9873 457.469 86.1152 457.469 86.271C457.469 86.4301 457.597 86.5564 457.752 86.5564C457.91 86.5564 458.038 86.4301 458.038 86.271Z" fill="#0071BC"/>
<path d="M460.954 86.271C460.954 86.025 461.154 85.8249 461.4 85.8249C461.647 85.8249 461.847 86.025 461.847 86.271C461.847 86.5187 461.647 86.7188 461.4 86.7188C461.154 86.7188 460.954 86.5187 460.954 86.271ZM461.688 86.271C461.688 86.1119 461.562 85.9873 461.401 85.9873C461.244 85.9873 461.116 86.1152 461.116 86.271C461.116 86.4301 461.244 86.5564 461.401 86.5564C461.559 86.5564 461.688 86.4301 461.688 86.271Z" fill="#0071BC"/>
<path d="M458.12 86.1907V86.353H461.034V86.1907H458.12Z" fill="#0071BC"/>
<path d="M436.839 86.271C436.839 86.025 437.039 85.8249 437.284 85.8249C437.531 85.8249 437.731 86.025 437.731 86.271C437.731 86.5187 437.531 86.7188 437.284 86.7188C437.038 86.7188 436.839 86.5187 436.839 86.271ZM437.571 86.271C437.571 86.1119 437.444 85.9873 437.285 85.9873C437.131 85.9873 437.003 86.1152 437.003 86.271C437.003 86.4301 437.131 86.5564 437.285 86.5564C437.441 86.5564 437.571 86.4301 437.571 86.271Z" fill="#0071BC"/>
<path d="M440.485 86.271C440.485 86.025 440.687 85.8249 440.934 85.8249C441.182 85.8249 441.382 86.025 441.382 86.271C441.382 86.5187 441.182 86.7188 440.934 86.7188C440.687 86.7188 440.485 86.5187 440.485 86.271ZM441.22 86.271C441.22 86.1119 441.093 85.9873 440.934 85.9873C440.777 85.9873 440.649 86.1152 440.649 86.271C440.649 86.4301 440.777 86.5564 440.934 86.5564C441.092 86.5564 441.22 86.4301 441.22 86.271Z" fill="#0071BC"/>
<path d="M437.651 86.1907V86.353H440.567V86.1907H437.651Z" fill="#0071BC"/>
<path d="M438.045 63.3604C438.045 63.1144 438.245 62.9127 438.491 62.9127C438.738 62.9127 438.938 63.1127 438.938 63.3604C438.938 63.608 438.737 63.8081 438.491 63.8081C438.245 63.8097 438.045 63.6097 438.045 63.3604ZM438.776 63.3604C438.776 63.2013 438.65 63.0767 438.491 63.0767C438.336 63.0767 438.209 63.2046 438.209 63.3604C438.209 63.5195 438.336 63.6457 438.491 63.6457C438.648 63.6457 438.776 63.5195 438.776 63.3604Z" fill="#0071BC"/>
<path d="M441.692 63.3604C441.692 63.1144 441.894 62.9127 442.14 62.9127C442.387 62.9127 442.587 63.1127 442.587 63.3604C442.587 63.608 442.387 63.8081 442.14 63.8081C441.892 63.8097 441.692 63.6097 441.692 63.3604ZM442.425 63.3604C442.425 63.2013 442.299 63.0767 442.14 63.0767C441.982 63.0767 441.854 63.2046 441.854 63.3604C441.854 63.5195 441.982 63.6457 442.14 63.6457C442.297 63.6457 442.425 63.5195 442.425 63.3604Z" fill="#0071BC"/>
<path d="M438.856 63.2784V63.4424H441.772V63.2784H438.856Z" fill="#0071BC"/>
<path d="M455.989 58.8238C455.989 58.5778 456.188 58.3777 456.434 58.3777C456.68 58.3777 456.883 58.5761 456.883 58.8238C456.883 59.0714 456.681 59.2715 456.434 59.2715C456.188 59.2715 455.989 59.0714 455.989 58.8238ZM456.719 58.8238C456.719 58.6647 456.593 58.54 456.434 58.54C456.278 58.54 456.152 58.668 456.152 58.8238C456.152 58.9828 456.278 59.1108 456.434 59.1108C456.591 59.1091 456.719 58.9812 456.719 58.8238Z" fill="#0071BC"/>
<path d="M459.637 58.8238C459.637 58.5778 459.837 58.3777 460.085 58.3777C460.331 58.3777 460.532 58.5761 460.532 58.8238C460.532 59.0714 460.331 59.2715 460.085 59.2715C459.837 59.2715 459.637 59.0714 459.637 58.8238ZM460.37 58.8238C460.37 58.6647 460.244 58.54 460.085 58.54C459.925 58.54 459.797 58.668 459.797 58.8238C459.797 58.9828 459.925 59.1108 460.085 59.1108C460.242 59.1091 460.37 58.9812 460.37 58.8238Z" fill="#0071BC"/>
<path d="M456.801 58.7419V58.9043H459.717V58.7419H456.801Z" fill="#0071BC"/>
<path d="M421.828 74.3775C421.828 74.1298 422.028 73.9314 422.273 73.9314C422.519 73.9314 422.72 74.1298 422.72 74.3775C422.72 74.6235 422.519 74.8252 422.273 74.8252C422.027 74.8252 421.828 74.6235 421.828 74.3775ZM422.558 74.3775C422.558 74.2168 422.432 74.0921 422.273 74.0921C422.117 74.0921 421.991 74.22 421.991 74.3775C421.991 74.5349 422.118 74.6628 422.273 74.6628C422.432 74.6628 422.558 74.5349 422.558 74.3775Z" fill="#0071BC"/>
<path d="M425.476 74.3775C425.476 74.1298 425.677 73.9314 425.923 73.9314C426.169 73.9314 426.371 74.1298 426.371 74.3775C426.371 74.6235 426.169 74.8252 425.923 74.8252C425.676 74.8252 425.476 74.6235 425.476 74.3775ZM426.209 74.3775C426.209 74.2168 426.082 74.0921 425.923 74.0921C425.764 74.0921 425.638 74.22 425.638 74.3775C425.638 74.5349 425.766 74.6628 425.923 74.6628C426.081 74.6628 426.209 74.5349 426.209 74.3775Z" fill="#0071BC"/>
<path d="M422.64 74.2955V74.4595H425.556V74.2955H422.64Z" fill="#0071BC"/>
<path d="M421.828 62.6468C421.828 62.4008 422.028 62.2007 422.273 62.2007C422.519 62.2007 422.72 62.4008 422.72 62.6468C422.72 62.8928 422.519 63.0962 422.273 63.0962C422.027 63.0946 421.828 62.8928 421.828 62.6468ZM422.558 62.6468C422.558 62.4861 422.432 62.3631 422.273 62.3631C422.117 62.3631 421.991 62.4894 421.991 62.6468C421.991 62.8059 422.118 62.9322 422.273 62.9322C422.432 62.9306 422.558 62.8043 422.558 62.6468Z" fill="#0071BC"/>
<path d="M425.476 62.6468C425.476 62.4008 425.677 62.2007 425.923 62.2007C426.169 62.2007 426.371 62.4008 426.371 62.6468C426.371 62.8928 426.169 63.0962 425.923 63.0962C425.676 63.0946 425.476 62.8928 425.476 62.6468ZM426.209 62.6468C426.209 62.4861 426.082 62.3631 425.923 62.3631C425.764 62.3631 425.638 62.4894 425.638 62.6468C425.638 62.8059 425.766 62.9322 425.923 62.9322C426.081 62.9306 426.209 62.8043 426.209 62.6468Z" fill="#0071BC"/>
<path d="M422.64 62.5631V62.7271H425.556V62.5631H422.64Z" fill="#0071BC"/>
<path d="M421.827 57.6429C421.827 57.3969 422.027 57.1985 422.271 57.1985C422.517 57.1985 422.719 57.3969 422.719 57.6429C422.719 57.8906 422.517 58.0923 422.271 58.0923C422.025 58.0906 421.827 57.8906 421.827 57.6429ZM422.556 57.6429C422.556 57.4838 422.43 57.3592 422.271 57.3592C422.115 57.3592 421.989 57.4871 421.989 57.6429C421.989 57.802 422.117 57.9299 422.271 57.9299C422.43 57.9299 422.556 57.802 422.556 57.6429Z" fill="#0071BC"/>
<path d="M425.474 57.6429C425.474 57.3969 425.676 57.1985 425.922 57.1985C426.168 57.1985 426.369 57.3969 426.369 57.6429C426.369 57.8906 426.168 58.0923 425.922 58.0923C425.674 58.0906 425.474 57.8906 425.474 57.6429ZM426.207 57.6429C426.207 57.4838 426.081 57.3592 425.922 57.3592C425.763 57.3592 425.636 57.4871 425.636 57.6429C425.636 57.802 425.764 57.9299 425.922 57.9299C426.079 57.9299 426.207 57.802 426.207 57.6429Z" fill="#0071BC"/>
<path d="M422.638 57.5627V57.7251H425.554V57.5627H422.638Z" fill="#0071BC"/>
<path d="M450.897 57.6429C450.897 57.3969 451.096 57.1985 451.343 57.1985C451.589 57.1985 451.789 57.3969 451.789 57.6429C451.789 57.8906 451.589 58.0923 451.343 58.0923C451.097 58.0906 450.897 57.8906 450.897 57.6429ZM451.629 57.6429C451.629 57.4838 451.502 57.3592 451.343 57.3592C451.187 57.3592 451.06 57.4871 451.06 57.6429C451.06 57.802 451.187 57.9299 451.343 57.9299C451.501 57.9299 451.629 57.802 451.629 57.6429Z" fill="#0071BC"/>
<path d="M454.545 57.6429C454.545 57.3969 454.745 57.1985 454.992 57.1985C455.24 57.1985 455.44 57.3969 455.44 57.6429C455.44 57.8906 455.24 58.0923 454.992 58.0923C454.745 58.0906 454.545 57.8906 454.545 57.6429ZM455.278 57.6429C455.278 57.4838 455.151 57.3592 454.991 57.3592C454.833 57.3592 454.705 57.4871 454.705 57.6429C454.705 57.802 454.833 57.9299 454.991 57.9299C455.15 57.9299 455.278 57.802 455.278 57.6429Z" fill="#0071BC"/>
<path d="M451.711 57.5627V57.7251H454.625V57.5627H451.711Z" fill="#0071BC"/>
<path d="M440.411 74.8238C440.411 74.5761 440.611 74.376 440.855 74.376C441.103 74.376 441.303 74.5745 441.303 74.8238C441.303 75.0698 441.101 75.2715 440.855 75.2715C440.611 75.2731 440.411 75.0714 440.411 74.8238ZM441.142 74.8238C441.142 74.663 441.016 74.5384 440.857 74.5384C440.703 74.5384 440.575 74.6663 440.575 74.8238C440.575 74.9812 440.703 75.1091 440.857 75.1091C441.015 75.1091 441.142 74.9812 441.142 74.8238Z" fill="#0071BC"/>
<path d="M444.06 74.8238C444.06 74.5761 444.26 74.376 444.508 74.376C444.754 74.376 444.954 74.5745 444.954 74.8238C444.954 75.0698 444.754 75.2715 444.508 75.2715C444.26 75.2731 444.06 75.0714 444.06 74.8238ZM444.793 74.8238C444.793 74.663 444.667 74.5384 444.508 74.5384C444.349 74.5384 444.221 74.6663 444.221 74.8238C444.221 74.9812 444.349 75.1091 444.508 75.1091C444.665 75.1091 444.793 74.9812 444.793 74.8238Z" fill="#0071BC"/>
<path d="M441.224 74.7419V74.9043H444.14V74.7419H441.224Z" fill="#0071BC"/>
<path d="M448.826 64.167C448.826 63.921 449.024 63.7209 449.27 63.7209C449.516 63.7209 449.718 63.921 449.718 64.167C449.718 64.4147 449.516 64.6147 449.27 64.6147C449.024 64.6147 448.826 64.4163 448.826 64.167ZM449.556 64.167C449.556 64.0079 449.429 63.8833 449.27 63.8833C449.115 63.8833 448.987 64.0112 448.987 64.167C448.987 64.3261 449.115 64.4524 449.27 64.4524C449.428 64.4524 449.556 64.3261 449.556 64.167Z" fill="#0071BC"/>
<path d="M452.472 64.167C452.472 63.921 452.672 63.7209 452.921 63.7209C453.167 63.7209 453.367 63.921 453.367 64.167C453.367 64.4147 453.167 64.6147 452.921 64.6147C452.673 64.6164 452.472 64.4163 452.472 64.167ZM453.206 64.167C453.206 64.0079 453.08 63.8833 452.921 63.8833C452.762 63.8833 452.634 64.0112 452.634 64.167C452.634 64.3261 452.762 64.4524 452.921 64.4524C453.078 64.4524 453.206 64.3261 453.206 64.167Z" fill="#0071BC"/>
<path d="M449.638 64.085V64.249H452.554V64.085H449.638Z" fill="#0071BC"/>
<path d="M448.973 70.3679V73.2871H449.137V70.3679H448.973Z" fill="#0071BC"/>
<path d="M421.082 71.7453H426.929V73.2049H431.468V74.6628H435.837V73.2049H439.57V73.3672H435.999V74.8252H431.306V73.3672H426.765V71.9093H421.082V71.7453Z" fill="#0071BC"/>
<path d="M432.549 73.2053V73.3677H434.847V73.2053H432.549Z" fill="#0071BC"/>
<path d="M421.082 75.8995V76.0635H427.955V75.8995H421.082Z" fill="#0071BC"/>
<path d="M428.362 75.5338C428.61 75.5338 428.81 75.7338 428.81 75.9815C428.81 76.2275 428.608 76.4292 428.362 76.4292C428.116 76.4292 427.916 76.2275 427.916 75.9815C427.916 75.7338 428.114 75.5338 428.362 75.5338ZM428.362 76.2668C428.521 76.2668 428.647 76.1389 428.647 75.9815C428.647 75.8224 428.519 75.6961 428.362 75.6961C428.206 75.6961 428.078 75.8224 428.078 75.9815C428.078 76.1406 428.203 76.2668 428.362 76.2668Z" fill="#0071BC"/>
<path d="M439.111 75.1697C439.358 75.1697 439.558 75.3681 439.558 75.6158C439.558 75.8634 439.357 76.0635 439.111 76.0635C438.863 76.0635 438.663 75.8618 438.663 75.6158C438.663 75.3698 438.863 75.1697 439.111 75.1697ZM439.111 75.9011C439.268 75.9011 439.396 75.7732 439.396 75.6158C439.396 75.46 439.268 75.332 439.111 75.332C438.955 75.332 438.827 75.46 438.827 75.6158C438.827 75.7732 438.951 75.9011 439.111 75.9011Z" fill="#0071BC"/>
<path d="M431.904 76.9918C432.152 76.9918 432.35 77.1935 432.35 77.4395C432.35 77.6871 432.15 77.8872 431.904 77.8872C431.657 77.8872 431.457 77.6855 431.457 77.4395C431.457 77.1935 431.658 76.9918 431.904 76.9918ZM431.904 77.7248C432.063 77.7248 432.188 77.6002 432.188 77.4395C432.188 77.2837 432.06 77.1541 431.904 77.1541C431.747 77.1541 431.619 77.2837 431.619 77.4395C431.619 77.5986 431.747 77.7248 431.904 77.7248Z" fill="#0071BC"/>
<path d="M435.375 75.1697C435.622 75.1697 435.822 75.3681 435.822 75.6158C435.822 75.8634 435.621 76.0635 435.375 76.0635C435.129 76.0635 434.929 75.8618 434.929 75.6158C434.929 75.3698 435.127 75.1697 435.375 75.1697ZM435.375 75.9011C435.534 75.9011 435.66 75.7732 435.66 75.6158C435.66 75.46 435.532 75.332 435.375 75.332C435.219 75.332 435.091 75.46 435.091 75.6158C435.091 75.7732 435.214 75.9011 435.375 75.9011Z" fill="#0071BC"/>
<path d="M436.829 75.1697C437.077 75.1697 437.277 75.3681 437.277 75.6158C437.277 75.8634 437.075 76.0635 436.829 76.0635C436.582 76.0635 436.383 75.8618 436.383 75.6158C436.383 75.3698 436.582 75.1697 436.829 75.1697ZM436.829 75.9011C436.987 75.9011 437.115 75.7732 437.115 75.6158C437.115 75.46 436.987 75.332 436.829 75.332C436.673 75.332 436.546 75.46 436.546 75.6158C436.546 75.7732 436.67 75.9011 436.829 75.9011Z" fill="#0071BC"/>
<path d="M436.829 78.8153C437.077 78.8153 437.277 79.017 437.277 79.263C437.277 79.509 437.075 79.7124 436.829 79.7124C436.582 79.7124 436.382 79.5107 436.382 79.263C436.382 79.0154 436.582 78.8153 436.829 78.8153ZM436.829 79.55C436.987 79.55 437.115 79.4221 437.115 79.2647C437.115 79.1089 436.987 78.9793 436.829 78.9793C436.672 78.9793 436.544 79.1089 436.544 79.2647C436.544 79.4221 436.672 79.55 436.829 79.55Z" fill="#0071BC"/>
<path d="M427.165 84.6523C427.412 84.6523 427.611 84.854 427.611 85.1C427.611 85.346 427.411 85.5444 427.165 85.5444C426.919 85.5444 426.717 85.3444 426.717 85.1C426.717 84.8524 426.919 84.6523 427.165 84.6523ZM427.165 85.3821C427.322 85.3821 427.448 85.2558 427.448 85.1C427.448 84.9409 427.324 84.8146 427.165 84.8146C427.007 84.8146 426.879 84.9442 426.879 85.1C426.879 85.2558 427.007 85.3821 427.165 85.3821Z" fill="#0071BC"/>
<path d="M424.846 84.2847C425.093 84.2847 425.295 84.4865 425.295 84.7325C425.295 84.9801 425.093 85.1802 424.847 85.1802C424.6 85.1802 424.401 84.9785 424.401 84.7325C424.4 84.4865 424.598 84.2847 424.846 84.2847ZM424.846 85.0195C425.003 85.0195 425.131 84.8915 425.131 84.7341C425.131 84.575 425.005 84.4487 424.846 84.4487C424.69 84.4487 424.562 84.5783 424.562 84.7341C424.562 84.8915 424.69 85.0195 424.846 85.0195Z" fill="#0071BC"/>
<path d="M429.095 84.2847C429.341 84.2847 429.543 84.4865 429.543 84.7325C429.543 84.9801 429.341 85.1802 429.095 85.1802C428.847 85.1802 428.649 84.9785 428.649 84.7325C428.647 84.4865 428.847 84.2847 429.095 84.2847ZM429.095 85.0195C429.251 85.0195 429.379 84.8915 429.38 84.7341C429.38 84.5783 429.252 84.4487 429.095 84.4487C428.936 84.4487 428.811 84.575 428.811 84.7341C428.81 84.8915 428.938 85.0195 429.095 85.0195Z" fill="#0071BC"/>
<path d="M429.033 82.8266C429.28 82.8266 429.48 83.0283 429.48 83.2743C429.48 83.5203 429.279 83.7188 429.033 83.7188C428.785 83.7188 428.587 83.5187 428.587 83.2743C428.587 83.0283 428.787 82.8266 429.033 82.8266ZM429.033 83.558C429.19 83.558 429.318 83.4318 429.318 83.276C429.318 83.1202 429.19 82.9906 429.033 82.9906C428.874 82.9906 428.749 83.1169 428.749 83.276C428.749 83.4318 428.877 83.558 429.033 83.558Z" fill="#0071BC"/>
<path d="M435.742 82.8266C435.988 82.8266 436.188 83.0283 436.188 83.2743C436.188 83.5203 435.988 83.7188 435.742 83.7188C435.494 83.7188 435.294 83.5187 435.294 83.2743C435.293 83.0283 435.494 82.8266 435.742 82.8266ZM435.742 83.558C435.898 83.558 436.026 83.4318 436.026 83.276C436.026 83.1202 435.898 82.9906 435.742 82.9906C435.581 82.9906 435.457 83.1169 435.457 83.276C435.455 83.4318 435.583 83.558 435.742 83.558Z" fill="#0071BC"/>
<path d="M433.946 84.6523C434.192 84.6523 434.394 84.854 434.394 85.1C434.394 85.346 434.192 85.5444 433.946 85.5444C433.699 85.5444 433.498 85.3444 433.498 85.1C433.497 84.8524 433.699 84.6523 433.946 84.6523ZM433.946 85.3821C434.104 85.3821 434.232 85.2558 434.232 85.1C434.23 84.9442 434.104 84.8146 433.946 84.8146C433.787 84.8146 433.661 84.9442 433.661 85.1C433.659 85.2558 433.787 85.3821 433.946 85.3821Z" fill="#0071BC"/>
<path d="M433.946 81.0015C434.192 81.0015 434.394 81.2033 434.394 81.4493C434.394 81.6969 434.192 81.897 433.946 81.897C433.699 81.897 433.5 81.6953 433.5 81.4493C433.498 81.2033 433.699 81.0015 433.946 81.0015ZM433.946 81.7363C434.104 81.7363 434.232 81.6083 434.232 81.4509C434.232 81.2951 434.104 81.1655 433.946 81.1655C433.785 81.1655 433.662 81.2918 433.662 81.4509C433.661 81.6083 433.789 81.7363 433.946 81.7363Z" fill="#0071BC"/>
<path d="M445.839 81.3691C446.087 81.3691 446.287 81.5692 446.287 81.8135C446.287 82.0595 446.087 82.2612 445.839 82.2612C445.593 82.2612 445.392 82.0595 445.392 81.8135C445.39 81.5692 445.592 81.3691 445.839 81.3691ZM445.839 82.0989C445.999 82.0989 446.125 81.9693 446.125 81.8135C446.125 81.6561 445.999 81.5314 445.839 81.5314C445.682 81.5314 445.554 81.6577 445.554 81.8135C445.554 81.971 445.682 82.0989 445.839 82.0989Z" fill="#0071BC"/>
<path d="M432.729 81.3691C432.975 81.3691 433.175 81.5708 433.175 81.8168C433.175 82.0612 432.975 82.2612 432.729 82.2612C432.482 82.2612 432.282 82.0612 432.282 81.8168C432.282 81.5708 432.482 81.3691 432.729 81.3691ZM432.729 82.0989C432.885 82.0989 433.013 81.9726 433.013 81.8168C433.013 81.6561 432.888 81.5314 432.729 81.5314C432.57 81.5314 432.444 81.661 432.444 81.8168C432.444 81.9742 432.572 82.0989 432.729 82.0989Z" fill="#0071BC"/>
<path d="M442.684 79.9109C442.93 79.9109 443.132 80.111 443.132 80.3553C443.132 80.603 442.93 80.8047 442.684 80.8047C442.438 80.8047 442.236 80.603 442.236 80.3553C442.235 80.111 442.436 79.9109 442.684 79.9109ZM442.684 80.6407C442.843 80.6407 442.969 80.5111 442.969 80.3553C442.969 80.1995 442.843 80.0732 442.684 80.0732C442.525 80.0732 442.399 80.1995 442.399 80.3553C442.399 80.5128 442.525 80.6407 442.684 80.6407Z" fill="#0071BC"/>
<path d="M445.098 79.9109C445.344 79.9109 445.548 80.111 445.548 80.3553C445.548 80.603 445.346 80.8047 445.098 80.8047C444.851 80.8047 444.65 80.603 444.65 80.3553C444.65 80.111 444.852 79.9109 445.098 79.9109ZM445.098 80.6407C445.257 80.6407 445.384 80.5111 445.384 80.3553C445.384 80.1995 445.257 80.0732 445.098 80.0732C444.939 80.0732 444.813 80.1995 444.813 80.3553C444.814 80.5128 444.941 80.6407 445.098 80.6407Z" fill="#0071BC"/>
<path d="M455.191 82.8266C455.437 82.8266 455.638 83.0283 455.638 83.2743C455.638 83.5203 455.437 83.7188 455.191 83.7188C454.945 83.7188 454.741 83.5187 454.741 83.2743C454.741 83.0283 454.943 82.8266 455.191 82.8266ZM455.191 83.558C455.35 83.558 455.476 83.4318 455.476 83.276C455.476 83.1202 455.35 82.9906 455.191 82.9906C455.032 82.9906 454.905 83.1202 454.905 83.276C454.905 83.4318 455.032 83.558 455.191 83.558Z" fill="#0071BC"/>
<path d="M443.05 84.2847C443.297 84.2847 443.498 84.4865 443.498 84.7325C443.498 84.9801 443.297 85.1802 443.05 85.1802C442.804 85.1802 442.602 84.9785 442.602 84.7325C442.602 84.4865 442.804 84.2847 443.05 84.2847ZM443.05 85.0195C443.209 85.0195 443.335 84.8915 443.335 84.7341C443.335 84.5783 443.209 84.4487 443.05 84.4487C442.892 84.4487 442.764 84.5783 442.764 84.7341C442.764 84.8915 442.894 85.0195 443.05 85.0195Z" fill="#0071BC"/>
<path d="M452.158 81.3691C452.406 81.3691 452.606 81.5708 452.606 81.8168C452.606 82.0612 452.406 82.2612 452.158 82.2612C451.912 82.2612 451.712 82.0612 451.712 81.8168C451.712 81.5708 451.912 81.3691 452.158 81.3691ZM452.158 82.0989C452.317 82.0989 452.445 81.9726 452.445 81.8168C452.445 81.6594 452.317 81.5314 452.158 81.5314C452.001 81.5314 451.873 81.661 451.873 81.8168C451.873 81.9742 452.001 82.0989 452.158 82.0989Z" fill="#0071BC"/>
<path d="M457.828 81.3691C458.075 81.3691 458.276 81.5708 458.276 81.8168C458.276 82.0612 458.075 82.2612 457.828 82.2612C457.582 82.2612 457.378 82.0612 457.378 81.8168C457.38 81.5708 457.582 81.3691 457.828 81.3691ZM457.828 82.0989C457.987 82.0989 458.115 81.9726 458.115 81.8168C458.115 81.6594 457.987 81.5314 457.828 81.5314C457.67 81.5314 457.542 81.661 457.542 81.8168C457.542 81.9742 457.67 82.0989 457.828 82.0989Z" fill="#0071BC"/>
<path d="M441.5 76.9918C441.748 76.9918 441.948 77.1935 441.948 77.4395C441.948 77.6871 441.746 77.8872 441.5 77.8872C441.254 77.8872 441.052 77.6855 441.052 77.4395C441.052 77.1935 441.252 76.9918 441.5 76.9918ZM441.5 77.7248C441.657 77.7248 441.785 77.5953 441.785 77.4395C441.785 77.2837 441.657 77.1541 441.5 77.1541C441.343 77.1541 441.215 77.2837 441.215 77.4395C441.215 77.5969 441.343 77.7248 441.5 77.7248Z" fill="#0071BC"/>
<path d="M447.115 78.8153C447.361 78.8153 447.563 79.017 447.563 79.263C447.563 79.509 447.361 79.7124 447.115 79.7124C446.869 79.7124 446.668 79.5107 446.668 79.263C446.668 79.0154 446.868 78.8153 447.115 78.8153ZM447.115 79.55C447.274 79.55 447.401 79.4205 447.401 79.2647C447.401 79.1089 447.274 78.9793 447.115 78.9793C446.956 78.9793 446.83 79.1089 446.83 79.2647C446.83 79.4205 446.956 79.55 447.115 79.55Z" fill="#0071BC"/>
<path d="M448.381 76.995C448.627 76.995 448.829 77.1951 448.829 77.4395C448.829 77.6871 448.627 77.8872 448.381 77.8872C448.134 77.8872 447.934 77.6855 447.934 77.4395C447.934 77.1951 448.134 76.995 448.381 76.995ZM448.381 77.7248C448.539 77.7248 448.667 77.5953 448.667 77.4395C448.667 77.2837 448.539 77.1574 448.381 77.1574C448.222 77.1574 448.096 77.2837 448.096 77.4395C448.096 77.5969 448.224 77.7248 448.381 77.7248Z" fill="#0071BC"/>
<path d="M454.023 78.4529C454.269 78.4529 454.472 78.653 454.472 78.899C454.472 79.1466 454.271 79.3467 454.023 79.3467C453.775 79.3467 453.575 79.1466 453.575 78.899C453.574 78.6513 453.774 78.4529 454.023 78.4529ZM454.023 79.1843C454.18 79.1843 454.308 79.0548 454.308 78.899C454.308 78.7432 454.18 78.6169 454.023 78.6169C453.864 78.6169 453.738 78.7432 453.738 78.899C453.738 79.0531 453.864 79.1843 454.023 79.1843Z" fill="#0071BC"/>
<path d="M456.345 76.995C456.591 76.995 456.793 77.1951 456.793 77.4395C456.793 77.6871 456.591 77.8872 456.345 77.8872C456.099 77.8872 455.896 77.6855 455.896 77.4395C455.896 77.1951 456.098 76.995 456.345 76.995ZM456.345 77.7248C456.504 77.7248 456.631 77.5953 456.631 77.4395C456.631 77.2837 456.504 77.1574 456.345 77.1574C456.186 77.1574 456.06 77.2837 456.06 77.4395C456.06 77.5969 456.186 77.7248 456.345 77.7248Z" fill="#0071BC"/>
<path d="M461.552 79.9109C461.798 79.9109 462 80.111 462 80.3553C462 80.603 461.798 80.8047 461.552 80.8047C461.306 80.8047 461.103 80.603 461.103 80.3553C461.103 80.111 461.305 79.9109 461.552 79.9109ZM461.552 80.6407C461.713 80.6407 461.838 80.5144 461.838 80.3553C461.838 80.1995 461.711 80.0732 461.552 80.0732C461.395 80.0732 461.267 80.1995 461.267 80.3553C461.267 80.5128 461.395 80.6407 461.552 80.6407Z" fill="#0071BC"/>
<path d="M447.847 75.5338C448.094 75.5338 448.296 75.7338 448.296 75.9815C448.296 76.2275 448.096 76.4292 447.847 76.4292C447.601 76.4292 447.399 76.2275 447.399 75.9815C447.399 75.7338 447.601 75.5338 447.847 75.5338ZM447.847 76.2668C448.006 76.2668 448.132 76.1389 448.132 75.9815C448.132 75.8224 448.006 75.6961 447.847 75.6961C447.689 75.6961 447.561 75.8224 447.561 75.9815C447.561 76.1389 447.689 76.2668 447.847 76.2668Z" fill="#0071BC"/>
<path d="M459.937 75.5338C460.185 75.5338 460.385 75.7338 460.385 75.9815C460.385 76.2275 460.185 76.4292 459.937 76.4292C459.691 76.4292 459.489 76.2275 459.489 75.9815C459.489 75.7338 459.691 75.5338 459.937 75.5338ZM459.937 76.2668C460.096 76.2668 460.222 76.1389 460.222 75.9815C460.222 75.8224 460.096 75.6961 459.937 75.6961C459.779 75.6961 459.652 75.8224 459.652 75.9815C459.652 76.1389 459.779 76.2668 459.937 76.2668Z" fill="#0071BC"/>
<path d="M446.325 76.995C446.571 76.995 446.773 77.1951 446.773 77.4395C446.773 77.6871 446.571 77.8872 446.325 77.8872C446.079 77.8872 445.876 77.6855 445.876 77.4395C445.877 77.1951 446.079 76.995 446.325 76.995ZM446.325 77.7248C446.484 77.7248 446.61 77.5953 446.61 77.4395C446.61 77.2837 446.484 77.1574 446.325 77.1574C446.166 77.1574 446.04 77.2837 446.04 77.4395C446.041 77.5969 446.167 77.7248 446.325 77.7248Z" fill="#0071BC"/>
<path d="M441.338 78.4529C441.585 78.4529 441.785 78.653 441.785 78.899C441.785 79.1466 441.584 79.3467 441.338 79.3467C441.092 79.3467 440.89 79.1466 440.89 78.899C440.888 78.6513 441.09 78.4529 441.338 78.4529ZM441.338 79.1843C441.495 79.1843 441.623 79.0548 441.623 78.899C441.623 78.7432 441.495 78.6169 441.338 78.6169C441.18 78.6169 441.052 78.7432 441.052 78.899C441.052 79.0531 441.18 79.1843 441.338 79.1843Z" fill="#0071BC"/>
<path d="M426.502 78.4529C426.748 78.4529 426.948 78.653 426.948 78.899C426.948 79.1466 426.748 79.3467 426.502 79.3467C426.255 79.3467 426.054 79.1466 426.054 78.899C426.054 78.6513 426.255 78.4529 426.502 78.4529ZM426.502 79.1843C426.661 79.1843 426.786 79.0597 426.786 78.899C426.786 78.7448 426.658 78.6169 426.502 78.6169C426.343 78.6169 426.217 78.7448 426.217 78.899C426.217 79.0564 426.343 79.1843 426.502 79.1843Z" fill="#0071BC"/>
<path d="M421.082 77.3591V77.5215H431.598V77.3591H421.082Z" fill="#0071BC"/>
<path d="M421.082 78.8155V78.9795H426.135V78.8155H421.082Z" fill="#0071BC"/>
<path d="M435.293 75.9816H435.455V78.9795H429.6V80.4375H421.082V80.2751H429.438V78.8155H435.293V75.9816Z" fill="#0071BC"/>
<path d="M439.029 75.9813H439.191V77.3589H440.662V78.9792H438.008V80.4372H432.036V81.8984H421.082V81.7361H431.873V80.2748H437.844V78.8152H440.5V77.5213H439.029V75.9813Z" fill="#0071BC"/>
<path d="M421.082 83.1941H427.247V84.7324H427.084V83.3565H421.082V83.1941Z" fill="#0071BC"/>
<path d="M429.351 83.1941V83.3564H435.375V83.1941H429.351Z" fill="#0071BC"/>
<path d="M439.396 80.2748H442.317V80.4372H439.558V81.8984H433.061V81.7361H439.396V80.2748Z" fill="#0071BC"/>
<path d="M444.431 75.9012H447.197V78.8975H447.033V76.0635H444.593V77.5215H441.858V77.3591H444.431V75.9012Z" fill="#0071BC"/>
<path d="M445.129 77.3592H445.959V77.5215H445.293V78.9795H441.705V78.8155H445.129V77.3592Z" fill="#0071BC"/>
<path d="M445.466 80.2749H450.259V81.8985H448.406V83.1941H454.823V83.3564H448.242V81.7361H450.097V80.4372H445.466V80.2749Z" fill="#0071BC"/>
<path d="M454.248 80.2748H455.84V81.7328H457.46V81.8952H455.679V80.4372H454.412V81.8984H452.527V81.7361H454.248V80.2748Z" fill="#0071BC"/>
<path d="M448.237 75.9012H452.24V77.3591H455.109V75.9012H459.571V76.0635H455.271V77.5215H452.078V76.0635H448.237V75.9012Z" fill="#0071BC"/>
<path d="M448.749 77.3592H451.314V78.8155H453.684V78.9795H451.151V77.5215H448.749V77.3592Z" fill="#0071BC"/>
<path d="M456.711 77.3592H459.141V78.9795H457.967V80.2751H461.088V80.4375H457.803V78.8155H458.979V77.5216H456.711V77.3592Z" fill="#0071BC"/>
<path d="M421.082 84.6505V84.8145H424.482V84.6505H421.082Z" fill="#0071BC"/>
<path d="M442.338 81.7329H445.466V81.8953H442.5V83.3565H439.132V84.8145H436.137V86.2725H432.946V84.8145H429.453V84.6521H433.108V86.1101H435.973V84.6521H438.969V83.1942H442.338V81.7329Z" fill="#0071BC"/>
<path d="M436.749 75.9815V78.8975H436.911V75.9815H436.749Z" fill="#0071BC"/>
<path d="M433.864 81.8132V84.7324H434.027V81.8132H433.864Z" fill="#0071BC"/>
<path d="M456.099 83.1942H461.957V83.3565H456.262V84.8145H451.714V86.2725H447.007V84.8145H443.43V84.6521H447.169V86.1101H451.548V84.6521H456.099V83.1942Z" fill="#0071BC"/>
<path d="M448.153 84.6505V84.8145H450.453V84.6505H448.153Z" fill="#0071BC"/>
<path d="M450.9 87.2026C451.146 87.2026 451.347 87.4026 451.347 87.647C451.347 87.893 451.146 88.0947 450.9 88.0947C450.653 88.0947 450.453 87.893 450.453 87.647C450.453 87.4026 450.653 87.2026 450.9 87.2026ZM450.9 87.934C451.06 87.934 451.184 87.8077 451.184 87.6486C451.184 87.4912 451.056 87.3666 450.9 87.3666C450.741 87.3666 450.613 87.4928 450.613 87.6486C450.615 87.8044 450.743 87.934 450.9 87.934Z" fill="#0071BC"/>
<path d="M450.9 84.2866C451.146 84.2866 451.347 84.4866 451.347 84.731C451.347 84.9786 451.146 85.1787 450.9 85.1787C450.653 85.1787 450.453 84.977 450.453 84.731C450.453 84.4866 450.653 84.2866 450.9 84.2866ZM450.9 85.018C451.06 85.018 451.184 84.8917 451.184 84.7326C451.184 84.5768 451.056 84.4506 450.9 84.4506C450.741 84.4506 450.613 84.5768 450.613 84.7326C450.615 84.8884 450.743 85.018 450.9 85.018Z" fill="#0071BC"/>
<path d="M447.709 84.2866C447.955 84.2866 448.153 84.4866 448.153 84.731C448.153 84.9786 447.955 85.1787 447.709 85.1787C447.461 85.1787 447.261 84.977 447.261 84.731C447.261 84.4866 447.461 84.2866 447.709 84.2866ZM447.709 85.018C447.868 85.018 447.993 84.8917 447.993 84.7326C447.993 84.5768 447.865 84.4506 447.709 84.4506C447.55 84.4506 447.422 84.5768 447.422 84.7326C447.422 84.8884 447.552 85.018 447.709 85.018Z" fill="#0071BC"/>
<path d="M435.211 72.8427C435.458 72.8427 435.657 73.0395 435.657 73.2871C435.657 73.5348 435.457 73.7349 435.211 73.7349C434.965 73.7349 434.763 73.5348 434.763 73.2871C434.763 73.0411 434.963 72.8427 435.211 72.8427ZM435.211 73.5741C435.371 73.5741 435.494 73.4462 435.494 73.2871C435.494 73.1297 435.366 73.0051 435.211 73.0051C435.053 73.0051 434.925 73.1297 434.925 73.2871C434.925 73.4429 435.052 73.5741 435.211 73.5741Z" fill="#0071BC"/>
<path d="M432.101 72.8427C432.349 72.8427 432.547 73.0395 432.547 73.2871C432.547 73.5348 432.347 73.7349 432.101 73.7349C431.854 73.7349 431.653 73.5348 431.653 73.2871C431.653 73.0411 431.854 72.8427 432.101 72.8427ZM432.101 73.5741C432.26 73.5741 432.385 73.4462 432.385 73.2871C432.385 73.1297 432.257 73.0051 432.101 73.0051C431.944 73.0051 431.816 73.1297 431.816 73.2871C431.816 73.4429 431.944 73.5741 432.101 73.5741Z" fill="#0071BC"/>
<path d="M432.101 61.3757C432.349 61.3757 432.547 61.5742 432.547 61.8202C432.547 62.0678 432.347 62.2695 432.101 62.2695C431.854 62.2695 431.653 62.0678 431.653 61.8202C431.653 61.5742 431.854 61.3757 432.101 61.3757ZM432.101 62.1072C432.26 62.1072 432.385 61.9809 432.385 61.8202C432.385 61.6627 432.257 61.5397 432.101 61.5397C431.944 61.5397 431.816 61.6627 431.816 61.8202C431.816 61.976 431.944 62.1072 432.101 62.1072Z" fill="#0071BC"/>
<path d="M435.209 61.3757C435.457 61.3757 435.655 61.5742 435.655 61.8202C435.655 62.0678 435.455 62.2695 435.209 62.2695C434.963 62.2695 434.761 62.0678 434.761 61.8202C434.761 61.5742 434.961 61.3757 435.209 61.3757ZM435.209 62.1072C435.37 62.1072 435.493 61.9809 435.493 61.8202C435.493 61.6627 435.365 61.5397 435.209 61.5397C435.052 61.5397 434.924 61.6627 434.924 61.8202C434.924 61.976 435.05 62.1072 435.209 62.1072Z" fill="#0071BC"/>
<path d="M447.709 87.2026C447.955 87.2026 448.153 87.4026 448.153 87.647C448.153 87.893 447.955 88.0947 447.709 88.0947C447.461 88.0947 447.261 87.893 447.261 87.647C447.261 87.4026 447.461 87.2026 447.709 87.2026ZM447.709 87.934C447.868 87.934 447.993 87.8077 447.993 87.6486C447.993 87.4912 447.865 87.3666 447.709 87.3666C447.55 87.3666 447.422 87.4928 447.422 87.6486C447.422 87.8044 447.552 87.934 447.709 87.934Z" fill="#0071BC"/>
</g>
</mask>
<g mask="url(#mask0_286_344)">
<mask id="path-236-inside-2_286_344" fill="white">
<path fill-rule="evenodd" clip-rule="evenodd" d="M460.705 101.995C447.45 101.995 436.705 91.25 436.705 77.9951C436.705 64.7403 447.45 53.9951 460.705 53.9951C461.379 53.9951 462.046 54.0229 462.705 54.0773L462.705 101.913C462.046 101.967 461.379 101.995 460.705 101.995Z"/>
</mask>
<path fill-rule="evenodd" clip-rule="evenodd" d="M460.705 101.995C447.45 101.995 436.705 91.25 436.705 77.9951C436.705 64.7403 447.45 53.9951 460.705 53.9951C461.379 53.9951 462.046 54.0229 462.705 54.0773L462.705 101.913C462.046 101.967 461.379 101.995 460.705 101.995Z" fill="white"/>
<path d="M462.705 54.0773L463.034 50.0908L466.705 50.3937V54.0773L462.705 54.0773ZM462.705 101.913H466.705V105.597L463.034 105.899L462.705 101.913ZM440.705 77.9951C440.705 89.0408 449.659 97.9951 460.705 97.9951V105.995C445.241 105.995 432.705 93.4591 432.705 77.9951H440.705ZM460.705 57.9951C449.659 57.9951 440.705 66.9494 440.705 77.9951H432.705C432.705 62.5311 445.241 49.9951 460.705 49.9951V57.9951ZM462.376 58.0637C461.826 58.0183 461.269 57.9951 460.705 57.9951V49.9951C461.489 49.9951 462.265 50.0274 463.034 50.0908L462.376 58.0637ZM466.705 54.0773L466.705 101.913H458.705L458.705 54.0773L466.705 54.0773ZM460.705 97.9951C461.269 97.9951 461.826 97.9719 462.376 97.9265L463.034 105.899C462.265 105.963 461.489 105.995 460.705 105.995V97.9951Z" fill="#07162D" mask="url(#path-236-inside-2_286_344)"/>
</g>
<path d="M471.046 85.8884L471.046 85.885C471.048 85.8762 471.049 85.8626 471.051 85.8467L470.553 85.7983C470.575 85.5865 470.686 85.4011 470.852 85.2755L471.046 85.8884ZM471.046 85.8884C471.054 86.0107 471.167 86.1394 471.344 86.1394L471.046 85.8884ZM469.027 83.0283L469.027 83.0285C469.002 83.0473 468.978 83.0665 468.953 83.086C468.04 82.2385 467.289 81.0077 466.904 79.7517L466.903 79.7511C466.9 79.7401 466.897 79.7291 466.893 79.7181H472.537C473.168 80.8776 474.426 81.6618 475.862 81.6618C477.913 81.6618 479.617 80.057 479.617 78.0401C479.617 76.0233 477.913 74.4185 475.862 74.4185C474.426 74.4185 473.168 75.2026 472.537 76.3621H462.58C461.949 75.2026 460.691 74.4185 459.255 74.4185C457.204 74.4185 455.5 76.0232 455.5 78.0401C455.5 80.057 457.204 81.6618 459.255 81.6618C460.691 81.6618 461.949 80.8776 462.58 79.7181H463.337C463.841 82.2823 465.439 84.8866 467.626 86.3535C467.871 88.1386 469.457 89.4953 471.344 89.4953C473.395 89.4954 475.098 87.8906 475.098 85.8737C475.098 83.8568 473.395 82.2521 471.344 82.2521C470.47 82.2521 469.666 82.5434 469.027 83.0283ZM475.862 78.3058C475.678 78.3058 475.564 78.1667 475.564 78.0401C475.564 77.9136 475.678 77.7745 475.862 77.7745C476.046 77.7745 476.161 77.9136 476.161 78.0401C476.161 78.1667 476.046 78.3058 475.862 78.3058ZM459.255 77.7745C459.439 77.7745 459.553 77.9136 459.553 78.0401C459.553 78.1667 459.439 78.3058 459.255 78.3058C459.071 78.3058 458.956 78.1667 458.956 78.0401C458.956 77.9136 459.071 77.7745 459.255 77.7745Z" fill="#DE8B21" stroke="white"/>
<path d="M474.598 70.1214C474.598 71.8427 473.138 73.243 471.344 73.243C470.583 73.243 469.884 72.9895 469.33 72.5686C469.198 72.4689 469.076 72.3596 468.962 72.242C467.816 73.1545 466.881 74.6135 466.426 76.0966C466.356 76.3235 466.297 76.5508 466.251 76.777H472.85C473.336 75.6384 474.502 74.8334 475.862 74.8334C477.657 74.8334 479.117 76.2337 479.117 77.955C479.117 79.6762 477.657 81.0767 475.862 81.0767C474.502 81.0767 473.336 80.2716 472.85 79.133H462.267C461.781 80.2716 460.615 81.0767 459.255 81.0767C457.46 81.0767 456 79.6763 456 77.955C456 76.2337 457.46 74.8334 459.255 74.8334C460.615 74.8334 461.781 75.6384 462.267 76.777H463.758C464.153 74.1277 465.819 71.3604 468.099 69.9306C468.203 68.2984 469.616 66.9998 471.344 66.9998C473.138 66.9997 474.598 68.4001 474.598 70.1214ZM470.545 70.1214C470.545 70.1473 470.551 70.1716 470.553 70.1968C470.575 70.4086 470.686 70.594 470.852 70.7196C470.988 70.8228 471.157 70.8871 471.344 70.8871C471.784 70.8871 472.142 70.5436 472.142 70.1214C472.142 69.6992 471.784 69.3557 471.344 69.3557C470.904 69.3557 470.545 69.6992 470.545 70.1214ZM475.862 77.1893C475.422 77.1893 475.064 77.5328 475.064 77.955C475.064 78.3772 475.422 78.7207 475.862 78.7207C476.302 78.7207 476.661 78.3772 476.661 77.955C476.661 77.5328 476.302 77.1893 475.862 77.1893ZM459.255 78.7207C459.695 78.7207 460.053 78.3772 460.053 77.955C460.053 77.5328 459.695 77.1893 459.255 77.1893C458.815 77.1893 458.456 77.5328 458.456 77.955C458.456 78.3772 458.815 78.7207 459.255 78.7207Z" fill="#DE8B21"/>
<defs>
<clipPath id="clip0_286_344">
<rect width="41" height="41" fill="white" transform="matrix(0 -1 1 0 421 98)"/>
</clipPath>
</defs>
</svg>
