<svg width="730" height="125" viewBox="0 0 730 125" fill="none" xmlns="http://www.w3.org/2000/svg">
<path fill-rule="evenodd" clip-rule="evenodd" d="M82.0278 28.6166L85.9548 42.681C69.2002 43.6376 56.1897 47.2703 41.363 55.1318L37.436 41.0674C52.2525 33.1696 65.2812 29.5317 82.0278 28.6166Z" fill="#07182C"/>
<path fill-rule="evenodd" clip-rule="evenodd" d="M25.2824 65.6601L18.0228 39.6604L53.6219 11.2795L98.7955 17.1073L86.9048 26.5896C66.6343 27.6392 50.9879 32.008 33.1058 41.6112L21.4322 40.1007L28.3312 64.8088C29.9847 65.009 31.4512 66.1743 31.9242 67.8681L34.8859 78.4755L26.7557 80.7456L23.7881 70.117C23.321 68.4444 23.9717 66.6879 25.2824 65.6601Z" fill="#07182C"/>
<path d="M24.3899 42.5594L35.2052 78.5771L25.3836 81.2166L15.3472 45.0701L24.3899 42.5594Z" fill="white"/>
<path d="M17.1296 39.4951L23.0766 40.2909L22.2808 46.3667L16.3338 45.5709L17.1296 39.4951Z" fill="white"/>
<path d="M51.3527 70.6163C51.3527 76.803 53.2204 81.764 56.9557 85.4993C60.691 89.2346 65.6812 91.1023 71.9262 91.1023C74.7277 91.1023 77.4417 90.7813 80.0681 90.1393C82.7528 89.4973 84.9415 88.7969 86.6341 88.0382L87.422 99.5944C85.1458 100.236 82.5778 100.791 79.7179 101.258C76.858 101.783 73.8231 102.046 70.613 102.046C60.049 102.046 51.7321 99.3025 45.6621 93.8163C39.5922 88.2716 36.5573 80.6259 36.5573 70.879C36.5573 61.0737 39.6214 53.3112 45.7497 47.5915C51.878 41.8134 60.1074 38.9244 70.4379 38.9244C74.0565 38.9244 77.3249 39.2745 80.2432 39.9749C83.1614 40.6169 85.496 41.2589 87.2469 41.901L86.1088 53.8073C84.0661 52.5233 81.7607 51.5603 79.1926 50.9183C76.6246 50.2179 73.9982 49.8677 71.3134 49.8677C65.3602 49.8677 60.5451 51.7938 56.8681 55.6458C53.1912 59.4979 51.3527 64.4881 51.3527 70.6163ZM122.131 82.1725V81.122C121.722 81.2971 120.993 81.3846 119.942 81.3846C118.892 81.3846 117.608 81.4138 116.09 81.4722C112.413 81.5305 109.67 82.085 107.861 83.1355C106.11 84.1277 105.234 85.616 105.234 87.6004C105.234 89.1179 105.818 90.3436 106.985 91.2774C108.153 92.1529 109.845 92.5906 112.063 92.5906C115.098 92.5906 117.52 91.4817 119.329 89.2638C121.197 87.046 122.131 84.6822 122.131 82.1725ZM122.744 93.7287C121.051 96.5886 118.95 98.6897 116.44 100.032C113.989 101.374 111.304 102.046 108.386 102.046C103.367 102.046 99.4271 100.82 96.5672 98.3687C93.7074 95.859 92.2774 92.649 92.2774 88.7386C92.2774 83.9527 94.1451 80.3049 97.8805 77.7952C101.674 75.2271 107.16 73.9139 114.339 73.8556L122.131 73.9431C122.131 71.0249 121.197 68.9821 119.329 67.8148C117.52 66.6475 115.01 66.0639 111.8 66.0639C109.291 66.0639 106.752 66.4725 104.184 67.2896C101.674 68.1067 99.5147 69.1864 97.7054 70.5288L97.4427 60.0232C99.1937 59.0893 101.645 58.3014 104.797 57.6594C108.007 56.959 111.158 56.6088 114.252 56.6088C121.314 56.6088 126.508 58.1263 129.835 61.1613C133.22 64.1379 134.913 68.8946 134.913 75.4314V88.0382C134.913 91.5401 135 94.5166 135.175 96.968C135.409 99.4193 135.613 100.645 135.788 100.645L135.963 100.82L123.532 100.995C123.298 100.995 123.123 100.295 123.006 98.894C122.89 97.4932 122.802 95.7715 122.744 93.7287ZM217.912 100.995H204.255V76.8322C204.255 73.7972 203.671 71.521 202.504 70.0035C201.395 68.4277 199.615 67.6397 197.163 67.6397C194.304 67.6397 192.202 68.7779 190.86 71.0541C189.518 73.3303 188.817 76.6863 188.759 81.122V100.995H174.927V76.8322C174.927 73.7972 174.43 71.521 173.438 70.0035C172.446 68.4277 170.812 67.6397 168.536 67.6397C165.501 67.6397 163.224 68.807 161.707 71.1416C160.248 73.4178 159.46 76.7154 159.343 81.0344V100.995H145.686V57.6594H158.468V65.1009C160.102 62.3577 162.145 60.2566 164.596 58.7975C167.047 57.3384 170.082 56.6088 173.701 56.6088C177.086 56.6088 179.975 57.4259 182.368 59.0601C184.819 60.636 186.483 62.7079 187.358 65.276C188.642 62.8247 190.539 60.7819 193.049 59.1477C195.558 57.4551 198.798 56.6088 202.766 56.6088C208.019 56.6088 211.842 58.0679 214.235 60.9862C216.686 63.9044 217.912 68.3109 217.912 74.2058V100.995ZM242.011 95.0419V119.468H228.353V57.6594H241.223V65.1009C243.207 61.8325 245.483 59.6146 248.051 58.4473C250.678 57.2217 253.509 56.6088 256.543 56.6088C262.555 56.6088 267.312 58.6808 270.814 62.8247C274.316 66.9686 276.066 72.484 276.066 79.371C276.066 86.1997 274.199 91.686 270.463 95.8298C266.786 99.9737 261.913 102.046 255.843 102.046C253.275 102.046 250.707 101.52 248.139 100.47C245.629 99.4193 243.587 97.61 242.011 95.0419ZM242.011 79.5461C242.069 82.8729 243.003 85.7036 244.812 88.0382C246.68 90.3728 249.102 91.5401 252.079 91.5401C254.997 91.5401 257.361 90.4019 259.17 88.1257C260.979 85.7911 261.884 82.8145 261.884 79.1959C261.884 75.519 261.008 72.6007 259.257 70.4412C257.506 68.2818 255.114 67.202 252.079 67.202C249.219 67.202 246.855 68.2818 244.987 70.4412C243.12 72.6007 242.127 75.3147 242.011 78.5831V79.5461ZM329.183 57.6594V100.995H316.576V93.291C315.292 95.6839 313.278 97.7559 310.535 99.5068C307.851 101.199 304.699 102.046 301.08 102.046C295.652 102.046 291.479 100.528 288.561 97.4932C285.701 94.3999 284.271 89.9934 284.271 84.2737V57.6594H297.929V80.159C297.929 83.8359 298.541 86.5791 299.767 88.3884C300.993 90.1393 303.006 91.0148 305.808 91.0148C308.784 91.0148 311.119 89.8767 312.812 87.6004C314.562 85.2659 315.496 81.9099 315.613 77.5325V57.6594H329.183ZM372.844 87.7755C372.844 92.328 371.064 95.859 367.504 98.3687C363.943 100.82 359.041 102.046 352.796 102.046C349.936 102.046 347.164 101.841 344.479 101.433C341.794 101.024 339.605 100.499 337.913 99.857L338.788 89.4389C339.489 89.7307 341.123 90.3144 343.691 91.1899C346.317 92.0653 349.09 92.5031 352.008 92.5031C354.167 92.5031 355.86 92.2112 357.086 91.6276C358.37 90.9856 359.012 89.9058 359.012 88.3884C359.012 87.1043 358.34 86.083 356.998 85.3242C355.714 84.5655 353.409 83.7776 350.082 82.9605C346.58 82.2601 343.603 80.9761 341.152 79.1084C338.759 77.1824 337.563 74.2641 337.563 70.3537C337.563 65.9764 339.372 62.5912 342.991 60.1983C346.609 57.8053 351.162 56.6088 356.648 56.6088C359.099 56.6088 361.58 56.8423 364.089 57.3092C366.599 57.7178 368.7 58.1847 370.393 58.71L369.517 68.6028C368.175 67.844 366.424 67.2312 364.265 66.7643C362.163 66.2974 360.091 66.0639 358.049 66.0639C355.656 66.0639 353.876 66.3849 352.708 67.0269C351.541 67.6106 350.957 68.5152 350.957 69.7409C350.957 70.7331 351.599 71.5502 352.883 72.1922C354.167 72.8342 356.794 73.6513 360.763 74.6435C364.965 75.6941 368.029 77.2991 369.955 79.4586C371.881 81.5597 372.844 84.332 372.844 87.7755ZM394.53 70.6163C394.53 76.803 396.397 81.764 400.133 85.4993C403.868 89.2346 408.858 91.1023 415.103 91.1023C417.905 91.1023 420.619 90.7813 423.245 90.1393C425.93 89.4973 428.119 88.7969 429.811 88.0382L430.599 99.5944C428.323 100.236 425.755 100.791 422.895 101.258C420.035 101.783 417 102.046 413.79 102.046C403.226 102.046 394.909 99.3025 388.839 93.8163C382.769 88.2716 379.734 80.6259 379.734 70.879C379.734 61.0737 382.798 53.3112 388.927 47.5915C395.055 41.8134 403.284 38.9244 413.615 38.9244C417.234 38.9244 420.502 39.2745 423.42 39.9749C426.338 40.6169 428.673 41.2589 430.424 41.901L429.286 53.8073C427.243 52.5233 424.938 51.5603 422.37 50.9183C419.802 50.2179 417.175 49.8677 414.49 49.8677C408.537 49.8677 403.722 51.7938 400.045 55.6458C396.368 59.4979 394.53 64.4881 394.53 70.6163ZM485.444 79.371C485.444 86.1997 483.138 91.686 478.528 95.8298C473.975 99.9737 467.964 102.046 460.493 102.046C453.022 102.046 446.981 99.9737 442.371 95.8298C437.818 91.686 435.542 86.1997 435.542 79.371C435.542 72.484 437.818 66.9686 442.371 62.8247C446.981 58.6808 453.022 56.6088 460.493 56.6088C467.964 56.6088 473.975 58.6808 478.528 62.8247C483.138 66.9686 485.444 72.484 485.444 79.371ZM471.174 79.371C471.174 75.3439 470.24 72.2214 468.372 70.0035C466.563 67.7273 463.936 66.5892 460.493 66.5892C457.049 66.5892 454.394 67.7273 452.526 70.0035C450.717 72.2214 449.812 75.3439 449.812 79.371C449.812 83.2815 450.746 86.3748 452.614 88.651C454.481 90.9272 457.108 92.0653 460.493 92.0653C463.878 92.0653 466.504 90.9272 468.372 88.651C470.24 86.3748 471.174 83.2815 471.174 79.371ZM538.733 100.995H525.076V76.9197C525.076 74.0599 524.434 71.8128 523.15 70.1786C521.866 68.486 519.998 67.6397 517.547 67.6397C514.337 67.6397 511.856 68.807 510.105 71.1416C508.413 73.4178 507.537 76.7446 507.479 81.122V100.995H493.822V57.6594H506.603V65.1009C508.296 62.3577 510.426 60.2566 512.994 58.7975C515.621 57.3384 518.802 56.6088 522.537 56.6088C527.79 56.6088 531.788 58.1555 534.531 61.2488C537.332 64.2838 538.733 68.6028 538.733 74.2058V100.995ZM594.476 100.995H580.819V76.9197C580.819 74.0599 580.177 71.8128 578.893 70.1786C577.609 68.486 575.741 67.6397 573.29 67.6397C570.08 67.6397 567.599 68.807 565.848 71.1416C564.156 73.4178 563.28 76.7446 563.222 81.122V100.995H549.564V57.6594H562.346V65.1009C564.039 62.3577 566.169 60.2566 568.737 58.7975C571.364 57.3384 574.544 56.6088 578.28 56.6088C583.533 56.6088 587.531 58.1555 590.274 61.2488C593.075 64.2838 594.476 68.6028 594.476 74.2058V100.995ZM643.828 99.5944C641.668 100.353 639.305 100.937 636.736 101.345C634.168 101.812 631.279 102.046 628.069 102.046C620.19 102.046 613.974 100.032 609.422 96.0049C604.928 91.9778 602.681 86.404 602.681 79.2835C602.681 72.3965 604.723 66.9102 608.809 62.8247C612.953 58.6808 618.439 56.6088 625.268 56.6088C632.855 56.6088 638.429 58.8851 641.989 63.4375C645.55 67.9899 647.33 74.2641 647.33 82.2601L647.417 83.3106H616.075C616.776 85.9954 617.768 87.9798 619.052 89.2638C621.328 91.4817 624.801 92.5906 629.47 92.5906C632.447 92.5906 635.307 92.2112 638.05 91.4525C640.851 90.6354 642.777 89.935 643.828 89.3514V99.5944ZM615.988 74.9937H633.847L634.81 75.0812C634.752 71.9879 633.935 69.6825 632.359 68.165C630.783 66.5892 628.536 65.8013 625.618 65.8013C622.466 65.8013 620.015 66.9977 618.264 69.3907C617.213 70.7331 616.455 72.6007 615.988 74.9937ZM690.055 90.2268L690.493 100.645C689.676 100.82 688.217 101.083 686.116 101.433C684.015 101.841 681.592 102.046 678.849 102.046C671.145 102.046 665.017 100.003 660.464 95.9174C655.97 91.7735 653.723 86.1413 653.723 79.0208C653.723 72.3673 655.97 66.9686 660.464 62.8247C665.017 58.6808 670.941 56.6088 678.236 56.6088C680.571 56.6088 682.76 56.8131 684.802 57.2217C686.904 57.5719 688.654 58.0679 690.055 58.71L689.005 69.0405C688.363 68.5736 687.225 68.1067 685.59 67.6397C683.956 67.1728 682.205 66.9394 680.338 66.9394C676.602 66.9394 673.596 68.0483 671.32 70.2662C669.102 72.484 667.993 75.4314 667.993 79.1084C667.993 82.9605 669.132 86.0246 671.408 88.3008C673.742 90.577 676.865 91.7151 680.775 91.7151C682.993 91.7151 684.948 91.5109 686.641 91.1023C688.392 90.6354 689.53 90.3436 690.055 90.2268ZM715.674 85.0616C715.674 87.4545 716.17 89.2638 717.163 90.4895C718.213 91.6568 719.731 92.2404 721.715 92.2404C722.941 92.2404 723.991 92.1237 724.867 91.8902C725.801 91.6568 726.501 91.4233 726.968 91.1899L727.318 100.995C726.618 101.229 725.363 101.462 723.554 101.695C721.803 101.929 719.935 102.046 717.951 102.046C712.698 102.046 708.729 100.762 706.044 98.1936C703.418 95.6256 702.105 91.8027 702.105 86.725V67.3771H693.35V58.0096L702.28 57.6594L702.805 47.9417L715.587 43.827L715.674 57.6594H726.705V67.3771H715.674V85.0616Z" fill="#081A2E"/>
<path d="M21.5517 54.6255V39.9951L23.5468 40.6601V54.6255H21.5517Z" fill="#DE8B21"/>
<path d="M17.8941 66.2633L21.5517 54.6255H23.5468V69.2559C23.1034 69.3667 23.5468 70.2534 19.5566 69.9209C17.4359 69.7442 17.5616 67.4825 17.8941 66.2633Z" fill="#091A2E"/>
<ellipse cx="461.205" cy="78.9951" rx="26.5" ry="25" fill="white"/>
<circle cx="460.705" cy="77.9951" r="24" fill="#07162D"/>
<mask id="path-9-inside-1_286_344" fill="white">
<path fill-rule="evenodd" clip-rule="evenodd" d="M460.705 101.995C473.96 101.995 484.705 91.25 484.705 77.9951C484.705 64.7403 473.96 53.9951 460.705 53.9951C460.032 53.9951 459.365 54.0229 458.705 54.0773L458.705 101.913C459.365 101.967 460.032 101.995 460.705 101.995Z"/>
</mask>
<path fill-rule="evenodd" clip-rule="evenodd" d="M460.705 101.995C473.96 101.995 484.705 91.25 484.705 77.9951C484.705 64.7403 473.96 53.9951 460.705 53.9951C460.032 53.9951 459.365 54.0229 458.705 54.0773L458.705 101.913C459.365 101.967 460.032 101.995 460.705 101.995Z" fill="white"/>
<path d="M458.705 54.0773L458.459 51.0874L455.705 51.3146V54.0773L458.705 54.0773ZM458.705 101.913H455.705V104.676L458.459 104.903L458.705 101.913ZM481.705 77.9951C481.705 89.5931 472.303 98.9951 460.705 98.9951V104.995C475.617 104.995 487.705 92.9068 487.705 77.9951H481.705ZM460.705 56.9951C472.303 56.9951 481.705 66.3971 481.705 77.9951H487.705C487.705 63.0834 475.617 50.9951 460.705 50.9951V56.9951ZM458.952 57.0671C459.529 57.0195 460.114 56.9951 460.705 56.9951V50.9951C459.949 50.9951 459.2 51.0263 458.459 51.0874L458.952 57.0671ZM455.705 54.0773L455.705 101.913H461.705L461.705 54.0773L455.705 54.0773ZM460.705 98.9951C460.114 98.9951 459.529 98.9708 458.952 98.9231L458.459 104.903C459.2 104.964 459.949 104.995 460.705 104.995V98.9951Z" fill="#07162D" mask="url(#path-9-inside-1_286_344)"/>
<path d="M471.195 87.4601C471.202 87.6542 471.365 87.8173 471.572 87.8173L471.195 87.4601ZM471.195 87.4601L471.196 87.4483C471.198 87.4388 471.199 87.4246 471.201 87.4082L470.703 87.3614L471.195 87.4601ZM469.049 84.2722L469.049 84.2724C469.013 84.3007 468.978 84.3296 468.943 84.359C467.918 83.3871 467.077 81.9655 466.645 80.5131L466.645 80.5126C466.632 80.4691 466.619 80.4256 466.607 80.3821H472.909C473.585 81.6922 474.957 82.5914 476.539 82.5914C478.784 82.5914 480.617 80.7797 480.617 78.5432C480.617 76.3068 478.784 74.4951 476.539 74.4951C474.957 74.4951 473.585 75.3943 472.909 76.7043H461.913C461.238 75.3943 459.865 74.4951 458.283 74.4951C456.038 74.4951 454.205 76.3067 454.205 78.5432C454.205 80.7797 456.038 82.5914 458.283 82.5914C459.865 82.5914 461.238 81.6922 461.913 80.3821H462.809C463.35 83.3023 465.112 86.2818 467.53 87.9474C467.779 89.9464 469.496 91.4951 471.572 91.4951C473.817 91.4952 475.65 89.6835 475.65 87.447C475.65 85.2106 473.817 83.3989 471.572 83.3989C470.619 83.3989 469.743 83.7278 469.049 84.2722ZM476.539 78.9136C476.328 78.9136 476.162 78.7431 476.162 78.5433C476.162 78.3435 476.328 78.173 476.539 78.173C476.751 78.173 476.917 78.3435 476.917 78.5433C476.917 78.7431 476.751 78.9136 476.539 78.9136ZM458.283 78.173C458.495 78.173 458.661 78.3435 458.661 78.5433C458.661 78.7431 458.495 78.9136 458.283 78.9136C458.071 78.9136 457.905 78.743 457.905 78.5433C457.905 78.3435 458.071 78.173 458.283 78.173Z" fill="#07162D" stroke="white"/>
<path d="M475.15 69.5432C475.15 71.4996 473.545 73.0913 471.572 73.0913C470.736 73.0913 469.968 72.8032 469.358 72.3247C469.214 72.2114 469.079 72.0871 468.954 71.9535C467.694 72.9907 466.667 74.649 466.166 76.3347C466.089 76.5926 466.024 76.851 465.973 77.1081H473.228C473.762 75.8139 475.044 74.8989 476.539 74.8989C478.512 74.8989 480.117 76.4906 480.117 78.447C480.117 80.4034 478.512 81.9951 476.539 81.9951C475.044 81.9951 473.762 81.0801 473.228 79.7859H461.594C461.06 81.0801 459.778 81.9951 458.283 81.9951C456.31 81.9951 454.705 80.4034 454.705 78.447C454.705 76.4906 456.31 74.8989 458.283 74.8989C459.778 74.8989 461.06 75.8139 461.594 77.1081H463.233C463.668 74.0968 465.499 70.9515 468.005 69.3263C468.119 67.4712 469.673 65.9951 471.572 65.9951C473.545 65.9951 475.15 67.5868 475.15 69.5432ZM470.695 69.5432C470.695 69.5726 470.7 69.6002 470.703 69.6289C470.728 69.8696 470.849 70.0803 471.031 70.2231C471.181 70.3404 471.367 70.4135 471.572 70.4135C472.056 70.4135 472.45 70.0231 472.45 69.5432C472.45 69.0633 472.056 68.6729 471.572 68.6729C471.088 68.6729 470.695 69.0634 470.695 69.5432ZM476.539 77.5767C476.055 77.5767 475.662 77.9671 475.662 78.447C475.662 78.9268 476.055 79.3172 476.539 79.3172C477.023 79.3172 477.417 78.9268 477.417 78.447C477.417 77.9671 477.023 77.5767 476.539 77.5767ZM458.283 79.3172C458.767 79.3172 459.161 78.9268 459.161 78.447C459.161 77.9671 458.767 77.5767 458.283 77.5767C457.799 77.5767 457.405 77.9671 457.405 78.447C457.405 78.9268 457.799 79.3172 458.283 79.3172Z" fill="#07162D"/>
</svg>
